<svg width="50" height="50" viewBox="0 0 50 50" fill="none" xmlns="http://www.w3.org/2000/svg">
<g id="Group 163274">
<circle id="Ellipse 2" cx="25.3706" cy="25.2776" r="24.3677" transform="rotate(0.477926 25.3706 25.2776)" fill="#0052B5"/>
<g id="Vector">
<path d="M25.3261 15.3844L23.1677 16.4544L23.8932 14.3022L22.4616 12.8609L24.6163 12.8681L25.482 10.6439L26.4119 12.8742L28.2074 12.8802L26.7661 14.3118L27.4771 16.469L25.3261 15.3844Z" fill="#FFDB44"/>
<path d="M25.1572 35.6266L23.017 34.5207L23.7065 36.6847L22.2511 38.1019L24.4056 38.1306L25.234 40.3689L26.201 38.1545L27.9964 38.1784L26.5792 36.723L27.3261 34.578L25.1572 35.6266Z" fill="#FFDB44"/>
<path d="M35.225 25.5552L33.7294 23.6666L35.9855 23.9286L37.0976 22.2285L37.5386 24.3376L39.8942 24.7218L37.9061 26.0952L38.2736 27.8527L36.5735 26.7407L34.6115 27.8847L35.225 25.5552Z" fill="#FFDB44"/>
<path d="M32.6137 18.8308L30.2537 18.3474L32.1493 17.0963L31.9067 15.0794L33.6013 16.4101L35.6517 15.1885L35.0135 17.519L36.4258 18.628L34.4088 18.8706L33.643 21.0088L32.6137 18.8308Z" fill="#FFDB44"/>
<path d="M32.5326 32.3445L33.5777 30.1739L34.328 32.3177L36.3431 32.5749L34.6389 33.8933L35.3228 36.1799L33.2186 34.992L31.7984 36.0906L32.0557 34.0755L30.1692 32.8107L32.5326 32.3445Z" fill="#FFDB44"/>
<path d="M35.225 25.5552L33.7294 23.6666L35.9855 23.9286L37.0976 22.2285L37.5386 24.3376L39.8942 24.7218L37.9061 26.0952L38.2736 27.8527L36.5735 26.7407L34.6115 27.8847L35.225 25.5552Z" fill="#FFDB44"/>
<path d="M15.5739 25.3912L17.1007 23.5279L14.8406 23.7522L13.757 22.0338L13.2809 24.1353L10.9192 24.4801L12.8841 25.8865L12.4873 27.6376L14.2057 26.5541L16.1484 27.7307L15.5739 25.3912Z" fill="#FFDB44"/>
<path d="M18.297 18.7113L20.6647 18.2674L18.7903 16.9848L19.0665 14.9723L17.3499 16.2745L15.3201 15.0189L15.9193 17.3597L14.4888 18.445L16.5014 18.7212L17.2315 20.8719L18.297 18.7113Z" fill="#FFDB44"/>
<path d="M18.1526 32.2245L17.1439 30.0368L16.3579 32.1678L14.3388 32.3914L16.0208 33.738L15.2988 36.0129L17.4225 34.8602L18.8242 35.9824L18.6006 33.9633L20.5079 32.7301L18.1526 32.2245Z" fill="#FFDB44"/>
<path d="M15.5739 25.3912L17.1007 23.5279L14.8406 23.7522L13.757 22.0338L13.2809 24.1353L10.9192 24.4801L12.8841 25.8865L12.4873 27.6376L14.2057 26.5541L16.1484 27.7307L15.5739 25.3912Z" fill="#FFDB44"/>
</g>
</g>
</svg>
