<svg width="28" height="23" viewBox="0 0 28 23" fill="none" xmlns="http://www.w3.org/2000/svg">
<path d="M4.66957 0.421875C2.20225 0.421875 0.179688 2.44444 0.179688 4.91176V18.036C0.179688 20.5034 2.20225 22.5259 4.66957 22.5259H23.3199C25.7872 22.5259 27.8097 20.5034 27.8097 18.036V4.91176C27.8097 2.44444 25.7872 0.421875 23.3199 0.421875H4.66957ZM4.66957 2.49413H23.3199C24.6669 2.49413 25.7375 3.56475 25.7375 4.91176V5.67536L13.9947 12.023L2.25194 5.67536V4.91176C2.25194 3.56475 3.32256 2.49413 4.66957 2.49413ZM2.25194 8.03094L13.5023 14.1128C13.6536 14.1945 13.8228 14.2373 13.9947 14.2373C14.1666 14.2373 14.3359 14.1945 14.4871 14.1128L25.7375 8.03094V18.036C25.7375 19.383 24.6669 20.4537 23.3199 20.4537H4.66957C3.32256 20.4537 2.25194 19.383 2.25194 18.036V8.03094Z" fill="#283760"/>
</svg>
