<svg width="19" height="25" viewBox="0 0 19 25" fill="none" xmlns="http://www.w3.org/2000/svg">
<path d="M6.39874 0.32932C6.00632 0.300213 5.60423 0.341107 5.20993 0.459903L3.79873 0.886081C2.29497 1.33951 1.12001 2.55596 0.722494 4.09132C-0.160154 7.50582 0.849561 11.5474 3.47737 16.0967C6.10148 20.6397 9.09156 23.5271 12.4685 24.4695C13.9893 24.8939 15.6294 24.4885 16.7813 23.3975L17.8549 22.3825C19.0561 21.2454 19.2352 19.3514 18.2647 18.0056L16.7138 15.8581C15.8824 14.7068 14.417 14.2167 13.0694 14.6294L10.6428 15.3702C10.541 15.4005 10.2972 15.2591 10.0851 15.0722L10.0839 15.071C9.70613 14.7361 9.18268 14.0591 8.62267 13.0909V13.0897C8.02218 12.0499 7.76606 11.3699 7.66324 10.9683C7.56036 10.5666 7.58533 10.5177 7.60036 10.3819C7.60818 10.3141 7.63976 10.2513 7.69351 10.2014L7.69467 10.2003L9.50409 8.51335C10.5407 7.54715 10.8537 6.00311 10.2691 4.70387L9.17807 2.27739V2.2762C8.66442 1.13468 7.5757 0.416616 6.39874 0.32932ZM6.2695 2.14799C6.81688 2.18969 7.32094 2.52444 7.55146 3.03715L8.64363 5.46363C8.90794 6.05103 8.7754 6.72321 8.29781 7.16834L6.4884 8.85406C6.11747 9.19888 5.88026 9.66902 5.82355 10.1765V10.1777C5.80878 10.3112 5.77387 10.8075 5.933 11.4289C6.09213 12.0504 6.42068 12.8724 7.08106 14.0157H7.08222C7.69839 15.0812 8.28075 15.8906 8.91143 16.4493H8.91259C9.11741 16.6301 9.97581 17.4688 11.1435 17.1212L11.147 17.12L13.584 16.3757C14.2168 16.1818 14.8935 16.4133 15.2735 16.9396L16.8244 19.0871C17.2636 19.6971 17.1869 20.5264 16.6381 21.0458L15.5646 22.062C14.878 22.7125 13.8585 22.9664 12.9401 22.7102C10.2101 21.9483 7.50866 19.4822 5.01898 15.1719C2.52584 10.8558 1.74607 7.28588 2.45157 4.55667C2.68478 3.65593 3.39932 2.90822 4.30639 2.63471L5.71643 2.20854C5.90011 2.1532 6.08704 2.13409 6.2695 2.14799Z" fill="#283760"/>
</svg>
