<svg width="50" height="49" viewBox="0 0 50 49" fill="none" xmlns="http://www.w3.org/2000/svg">
<g id="Group 4">
<circle id="Ellipse 2" cx="25.1656" cy="24.3677" r="24.3677" fill="#F2F0F2"/>
<g id="Group 1">
<mask id="mask0_45_4331" style="mask-type:alpha" maskUnits="userSpaceOnUse" x="0" y="0" width="50" height="49">
<circle id="Ellipse 1" cx="25.1656" cy="24.3677" r="24.3677" fill="#FCFCFC"/>
</mask>
<g mask="url(#mask0_45_4331)">
<g id="Rectangle 1">
<rect x="8.71582" y="43.2505" width="33.5056" height="6.09193" fill="#D90026"/>
<rect x="8.71582" y="43.2505" width="33.5056" height="6.09193" fill="#D90026"/>
</g>
<g id="Rectangle 2">
<rect x="1.4043" y="31.0664" width="48.1262" height="6.09193" fill="#D90026"/>
<rect x="1.4043" y="31.0664" width="48.1262" height="6.09193" fill="#D90026"/>
</g>
<g id="Rectangle 3">
<rect x="1.4043" y="18.2759" width="48.1262" height="6.09193" fill="#D90026"/>
<rect x="1.4043" y="18.2759" width="48.1262" height="6.09193" fill="#D90026"/>
</g>
<g id="Rectangle 4">
<rect x="1.4043" y="6.0918" width="48.1262" height="6.09193" fill="#D90026"/>
<rect x="1.4043" y="6.0918" width="48.1262" height="6.09193" fill="#D90026"/>
</g>
<rect id="Rectangle 5" x="0.797852" width="24.9769" height="24.3677" fill="#0052B5"/>
<path id="Vector 1" d="M20.9036 20.409L19.076 21.3228L19.6852 19.4952L18.4668 18.2768H20.2944L20.9036 16.4492L21.8174 18.2768H23.3403L22.122 19.4952L22.7311 21.3228L20.9036 20.409Z" fill="#EFEFEF"/>
<path id="Vector 4" d="M12.3723 20.409L10.5447 21.3228L11.1539 19.4952L9.93555 18.2768H11.7631L12.3723 16.4492L13.2861 18.2768H14.8091L13.5907 19.4952L14.1999 21.3228L12.3723 20.409Z" fill="#EFEFEF"/>
<path id="Vector 5" d="M3.84107 20.409L2.01349 21.3228L2.62268 19.4952L1.4043 18.2768H3.23187L3.84107 16.4492L4.75486 18.2768H6.27784L5.05945 19.4952L5.66864 21.3228L3.84107 20.409Z" fill="#EFEFEF"/>
<path id="Vector 2" d="M20.9036 13.7044L19.076 14.6182L19.6852 12.7906L18.4668 11.5722H20.2944L20.9036 9.74463L21.8174 11.5722H23.3403L22.122 12.7906L22.7311 14.6182L20.9036 13.7044Z" fill="#EFEFEF"/>
<path id="Vector 6" d="M20.9036 7.00565L19.076 7.91944L19.6852 6.09186L18.4668 4.87348H20.2944L20.9036 3.0459L21.8174 4.87348H23.3403L22.122 6.09186L22.7311 7.91944L20.9036 7.00565Z" fill="#EFEFEF"/>
<path id="Vector 9" d="M20.9036 0.30692L19.076 1.22071L19.6852 -0.606869L18.4668 -1.82525H20.2944L20.9036 -3.65283L21.8174 -1.82525H23.3403L22.122 -0.606869L22.7311 1.22071L20.9036 0.30692Z" fill="#EFEFEF"/>
<path id="Vector 7" d="M12.3723 7.00565L10.5447 7.91944L11.1539 6.09186L9.93555 4.87348H11.7631L12.3723 3.0459L13.2861 4.87348H14.8091L13.5907 6.09186L14.1999 7.91944L12.3723 7.00565Z" fill="#EFEFEF"/>
<path id="Vector 3" d="M12.3723 13.7044L10.5447 14.6182L11.1539 12.7906L9.93555 11.5722H11.7631L12.3723 9.74463L13.2861 11.5722H14.8091L13.5907 12.7906L14.1999 14.6182L12.3723 13.7044Z" fill="#EFEFEF"/>
<path id="Vector 8" d="M3.84107 13.7044L2.01349 14.6182L2.62268 12.7906L1.4043 11.5722H3.23187L3.84107 9.74463L4.75486 11.5722H6.27784L5.05945 12.7906L5.66864 14.6182L3.84107 13.7044Z" fill="#EFEFEF"/>
</g>
</g>
</g>
</svg>
