<svg width="391" height="472" viewBox="0 0 391 472" fill="none" xmlns="http://www.w3.org/2000/svg">
<g opacity="0.7">
<rect x="27.4507" y="38.3081" width="353.733" height="395.393" rx="39.8312" fill="#D5DFED"/>
<mask id="mask0_2_6610" style="mask-type:alpha" maskUnits="userSpaceOnUse" x="27" y="38" width="355" height="396">
<rect x="27.4492" y="38.3101" width="353.733" height="395.393" rx="39.8312" fill="#D5DFED"/>
</mask>
<g mask="url(#mask0_2_6610)">
<path d="M-65.447 412.811H455.191V413.064H-65.447V412.811Z" fill="#AFC0D9"/>
<path d="M28.6119 429.194H45.8555V429.447H28.6119V429.194Z" fill="#AFC0D9"/>
<path d="M73.039 425.522H112.41V425.775H73.039V425.522Z" fill="#AFC0D9"/>
<path d="M107.32 419.688H179.251V419.941H107.32V419.688Z" fill="#AFC0D9"/>
<path d="M339.723 421.384H378.073V421.636H339.723V421.384Z" fill="#AFC0D9"/>
<path d="M234.587 425.647H296.574V425.9H234.587V425.647Z" fill="#AFC0D9"/>
<path d="M208.411 367.755H409.471C412.751 367.755 415.407 365.169 415.407 361.986V87.7895C415.375 84.6276 412.731 82.0819 409.471 82.0718H208.411C205.131 82.0718 202.466 84.6579 202.466 87.84V361.986C202.466 365.169 205.131 367.755 208.411 367.755ZM409.471 82.2738C412.606 82.2738 415.146 84.7488 415.146 87.7895V361.986C415.146 365.027 412.606 367.492 409.471 367.502H208.411C205.277 367.502 202.736 365.027 202.726 361.986V87.7895C202.726 84.7488 205.277 82.2839 208.411 82.2738H409.471Z" fill="#AFC0D9"/>
<path d="M-16.8268 367.755H184.244C187.524 367.755 190.179 365.169 190.189 361.986V87.7895C190.158 84.6276 187.503 82.0819 184.244 82.0718H-16.8268C-20.086 82.0819 -22.7204 84.6276 -22.7516 87.7895V361.986C-22.7516 365.169 -20.1068 367.745 -16.8268 367.755ZM184.244 82.2738C187.378 82.2738 189.919 84.7488 189.929 87.7895V361.986C189.929 365.027 187.378 367.492 184.244 367.502H-16.8268C-19.961 367.502 -22.5017 365.027 -22.5121 361.986V87.7895C-22.5121 84.7488 -19.961 82.2839 -16.8268 82.2738H184.244Z" fill="#AFC0D9"/>
<path d="M189.188 26.5103H211.638V412.808H189.188V26.5103Z" fill="#F5F5F5"/>
<path d="M186.03 26.5103H189.186V412.808H186.03V26.5103Z" fill="#E0E0E0"/>
<path d="M310.278 373.897H428.64C428.64 366.836 422.736 361.108 415.457 361.108H310.278V373.897Z" fill="#E6E6E6"/>
<path d="M301.598 373.897H353.318C353.318 366.836 347.414 361.108 340.136 361.108H301.598V373.897Z" fill="#E0E0E0"/>
<path d="M227.581 373.897H345.943C345.943 366.836 340.039 361.108 332.761 361.108H227.581V373.897Z" fill="#E6E6E6"/>
<path d="M218.91 373.897H270.63C270.63 366.836 264.726 361.108 257.447 361.108H218.91V373.897Z" fill="#E0E0E0"/>
<path d="M59.5017 373.897H177.905C177.905 366.836 172.001 361.108 164.723 361.108C164.702 361.108 164.691 361.108 164.671 361.108H59.5017V373.897Z" fill="#E6E6E6"/>
<path d="M50.8794 373.897H102.6C102.6 366.836 96.6956 361.108 89.417 361.108H50.8794V373.897Z" fill="#E0E0E0"/>
<path d="M9.08992 333.942H61.5078L54.1251 412.808H16.4726L9.08992 333.942Z" fill="#AFC0D9"/>
<path d="M35.8195 347.101C36.7775 314.472 28.9158 246.92 14.8482 219.443L13.9214 219.887C27.458 246.274 35.7882 314.169 34.747 347.071L35.8195 347.101Z" fill="#AFC0D9"/>
<path d="M30.6094 282.86C30.6094 282.86 34.0561 251.271 46.7805 241.583C53.6008 261.525 39.6269 268.394 30.6094 282.86Z" fill="#AFC0D9"/>
<path d="M30.6072 283.366C30.7947 283.366 30.9613 283.275 31.055 283.123C33.3562 279.588 35.8969 276.204 38.6771 273.001C46.039 264.101 52.4012 256.404 47.2781 241.433C47.226 241.281 47.1011 241.16 46.9345 241.109C46.7783 241.059 46.6013 241.089 46.4659 241.19C33.7103 250.908 30.2428 281.517 30.1074 282.82C30.0762 283.053 30.222 283.275 30.4511 283.346L30.6072 283.366ZM46.5179 242.443C51.0267 256.434 44.9144 263.829 37.8545 272.365C35.6991 274.971 33.4812 277.648 31.4299 280.669C32.4295 273.436 36.4905 250.777 46.5179 242.443Z" fill="#AFC0D9"/>
<path d="M34.9951 327.313C34.9951 327.313 40.2015 283.37 56.0081 271.752C63.9218 296.33 46.3555 309.796 34.9951 327.313Z" fill="#AFC0D9"/>
<path d="M34.9931 327.926C35.2117 327.926 35.42 327.825 35.5346 327.643C37.9607 323.895 40.7409 320.289 43.3754 316.804C53.4341 303.611 62.9306 291.165 56.6204 271.577C56.5579 271.386 56.4017 271.234 56.2039 271.173C56.006 271.113 55.7874 271.153 55.6208 271.274C39.7934 282.902 34.5766 325.431 34.3579 327.239C34.3267 327.532 34.5037 327.795 34.7848 327.896C34.8473 327.916 34.9202 327.926 34.9931 327.926ZM55.6728 272.82C61.2333 291.307 52.0596 303.338 42.3549 316.066C40.2724 318.855 38.044 321.713 36.0031 324.673C37.4192 315.127 43.0317 283.094 55.6728 272.82Z" fill="#AFC0D9"/>
<path d="M24.8799 250.91C24.8799 250.91 27.2748 228.877 36.1569 222.119C40.9155 236.03 31.1692 240.828 24.8799 250.91Z" fill="#AFC0D9"/>
<path d="M24.8838 251.255C25.0088 251.255 25.1233 251.184 25.1858 251.083C26.7894 248.619 28.57 246.255 30.4963 244.012C35.6402 237.799 40.0761 232.435 36.5045 221.99C36.4628 221.879 36.3795 221.798 36.265 221.757C36.1504 221.727 36.0255 221.757 35.9318 221.818C27.0393 228.597 24.6131 249.952 24.4777 250.861C24.4569 251.023 24.561 251.174 24.7172 251.225C24.7693 251.255 24.8214 251.265 24.8838 251.255ZM35.9734 222.707C39.0972 232.476 34.8593 237.628 29.934 243.578C28.4242 245.396 26.8831 247.275 25.4461 249.376C26.1854 244.335 28.9865 228.546 35.9734 222.707Z" fill="#AFC0D9"/>
<path d="M292.75 223.175C302.653 222.499 306.932 223.62 311.212 214.983C315.492 206.346 330.424 201.709 335.276 209.245C340.128 216.781 341.878 222.014 353.103 217.549C364.328 213.084 368.024 216.326 369.648 222.276C371.273 228.226 396.951 225.357 389.433 233.863H294.322C294.322 233.863 282.806 223.852 292.75 223.175Z" fill="#F5F5F5"/>
<path d="M-1.7211 177.025C3.88097 176.642 6.29673 177.278 8.69166 172.389C11.0866 167.499 19.5626 164.873 22.3115 169.136C25.0605 173.399 26.0393 176.369 32.3911 173.833C38.7429 171.298 40.8359 173.146 41.7626 176.51C42.6893 179.874 57.2151 178.258 52.9563 183.066H-0.888096C-0.888096 183.066 -7.32317 177.369 -1.7211 177.025Z" fill="#F5F5F5"/>
<path d="M65.3197 58.5486C68.0999 54.1644 76.0449 52.7097 83.1464 56.1141C90.2479 59.5184 85.4164 38.1831 98.7031 41.7592C117.675 46.8708 112.396 62.1348 120.299 60.7407C128.202 59.3467 151.381 63.0844 139.125 70.7114H68.9954C68.9954 70.7114 62.5499 62.9228 65.3197 58.5486Z" fill="#F5F5F5"/>
</g>
<path d="M114.664 138.177L123.129 133.268L118.204 132.328L105.084 134.854L114.664 138.177Z" fill="#AFC0D9"/>
<path opacity="0.3" d="M114.664 138.177L123.129 133.268L118.204 132.328L105.084 134.854L114.664 138.177Z" fill="#AFC0D9"/>
<path d="M56.1027 123.124L66.4009 110.577L62.5898 109.86C59.4972 109.274 56.3005 109.567 53.3745 110.698L33.4861 118.447L56.1027 123.124Z" fill="#AFC0D9"/>
<path opacity="0.3" d="M56.1027 123.124L66.4009 110.577L62.5898 109.86C59.4972 109.274 56.3005 109.567 53.3745 110.698L33.4861 118.447L56.1027 123.124Z" fill="#AFC0D9"/>
<path d="M2.10075 114.135L5.16211 113.397C8.12975 112.64 11.2328 112.569 14.2317 113.185L115.079 135.409L116.027 139.622L112.091 142.349L10.0457 122.964C6.7032 122.327 3.5898 120.863 1.00743 118.701C-0.148392 117.812 -0.335823 116.175 0.580498 115.054C0.965775 114.589 1.49682 114.266 2.10075 114.135Z" fill="#AFC0D9"/>
<path d="M63.7753 144.835L107.928 153.94L107.813 154.464L63.6605 145.359L63.7753 144.835Z" fill="#AFC0D9"/>
<path d="M69.485 117.308L98.2583 123.242L98.1436 123.765L69.3703 117.832L69.485 117.308Z" fill="#AFC0D9"/>
<path d="M116.167 155.64L127.992 158.079L127.877 158.602L116.052 156.164L116.167 155.64Z" fill="#AFC0D9"/>
<path opacity="0.3" d="M12.5984 121.231L112.259 141.829C112.717 141.92 113.154 142.081 113.561 142.314C113.071 142.374 112.571 142.364 112.092 142.263L10.0472 122.888C8.38119 122.565 6.76721 122.039 5.23653 121.322L4.86169 121.15C7.42323 120.675 10.0472 120.706 12.5984 121.231Z" fill="#AFC0D9"/>
<path d="M116.033 139.541L118.594 150.037L113.669 149.097L104.704 137.743L116.033 139.541Z" fill="#AFC0D9"/>
<path d="M115.083 135.332L121.06 124.836L116.468 123.958L103.213 133.08L115.083 135.332Z" fill="#AFC0D9"/>
<path d="M55.2076 127.544L56.8633 157.85C52.1359 156.951 48.0541 154.072 45.7216 149.99L30.1545 122.806L55.2076 127.544Z" fill="#AFC0D9"/>
<g opacity="0.5">
<path d="M81.1106 131.22L82.3652 131.469L81.8945 133.696L80.6399 133.446L81.1106 131.22Z" fill="white"/>
<path d="M78.5666 130.753L79.8213 131.002L79.351 133.229L78.0963 132.98L78.5666 130.753Z" fill="white"/>
<path d="M76.0304 130.255L77.2852 130.505L76.8149 132.732L75.5601 132.482L76.0304 130.255Z" fill="white"/>
<path d="M73.4865 129.742L74.7412 129.991L74.2709 132.218L73.0162 131.968L73.4865 129.742Z" fill="white"/>
<path d="M70.9426 129.244L72.1973 129.493L71.727 131.72L70.4723 131.47L70.9426 129.244Z" fill="white"/>
<path d="M68.4064 128.731L69.6611 128.98L69.1908 131.207L67.9361 130.957L68.4064 128.731Z" fill="white"/>
<path d="M65.8547 128.233L67.1094 128.482L66.6391 130.709L65.3844 130.459L65.8547 128.233Z" fill="white"/>
<path d="M63.3186 127.688L64.5732 127.938L64.1025 130.164L62.8479 129.914L63.3186 127.688Z" fill="white"/>
<path d="M60.7673 127.221L62.022 127.471L61.5517 129.697L60.297 129.448L60.7673 127.221Z" fill="white"/>
<path d="M58.2385 126.708L59.4932 126.957L59.0229 129.184L57.7682 128.934L58.2385 126.708Z" fill="white"/>
<path d="M55.6921 126.192L56.957 126.444L56.4867 128.671L55.2218 128.419L55.6921 126.192Z" fill="white"/>
<path d="M53.1589 125.696L54.4136 125.946L53.9433 128.172L52.6886 127.923L53.1589 125.696Z" fill="white"/>
<path d="M50.615 125.152L51.8696 125.401L51.3989 127.628L50.1443 127.378L50.615 125.152Z" fill="white"/>
<path d="M48.0686 124.683L49.3335 124.935L48.8632 127.161L47.5983 126.91L48.0686 124.683Z" fill="white"/>
<path d="M45.5247 124.169L46.7896 124.421L46.3193 126.648L45.0544 126.396L45.5247 124.169Z" fill="white"/>
<path d="M42.9909 123.674L44.2456 123.923L43.7753 126.15L42.5206 125.901L42.9909 123.674Z" fill="white"/>
<path d="M40.4446 123.158L41.7095 123.41L41.2392 125.636L39.9743 125.385L40.4446 123.158Z" fill="white"/>
<path d="M37.9006 122.66L39.1655 122.912L38.6952 125.138L37.4303 124.887L37.9006 122.66Z" fill="white"/>
<path d="M35.3669 122.165L36.6216 122.414L36.1513 124.641L34.8966 124.391L35.3669 122.165Z" fill="white"/>
<path d="M32.8073 121.62L34.062 121.869L33.5913 124.096L32.3366 123.846L32.8073 121.62Z" fill="white"/>
<path d="M30.2688 121.136L31.5337 121.387L31.0634 123.614L29.7985 123.362L30.2688 121.136Z" fill="white"/>
<path d="M27.7273 120.655L28.9819 120.905L28.5116 123.131L27.257 122.882L27.7273 120.655Z" fill="white"/>
</g>
<path opacity="0.5" d="M2.10103 114.139L5.16238 113.401C5.56848 113.3 5.985 113.199 6.41193 113.128L10.9206 113.977C11.5558 114.098 11.9619 114.694 11.8474 115.3C11.7329 115.906 11.1081 116.311 10.4729 116.199L1.39297 114.411C1.61164 114.29 1.85112 114.199 2.10103 114.139Z" fill="white"/>
<path d="M262.846 54.8027H264.666V153.207H262.846V54.8027Z" fill="#AFC0D9"/>
<path d="M242.281 106.117H390.85V138.908H242.281V106.117Z" fill="#AFC0D9"/>
<path opacity="0.3" d="M242.281 106.117H390.85V138.908H242.281V106.117Z" fill="white"/>
<path d="M372.636 120.029L376.312 116.463H381.404L376.979 120.757H385.902V124.252H376.968L381.404 128.545H376.312L372.636 124.969L370.096 122.494L372.636 120.029Z" fill="white"/>
<path opacity="0.7" d="M250.795 117.724H304.202V127.3H250.795V117.724Z" fill="#AFC0D9"/>
<path opacity="0.7" d="M312.279 117.724H335.156V127.3H312.279V117.724Z" fill="#AFC0D9"/>
<path d="M343.559 112.745H363.708V132.292H343.559V112.745Z" fill="white"/>
<path d="M345.867 117.724H346.575C346.991 117.754 347.397 117.865 347.762 118.047L350.886 119.562L356.738 118.613C357.237 118.552 357.737 118.633 358.185 118.845L358.747 119.097L354.926 121.694L358.477 123.31L360.83 122.653L361.871 123.138L359.122 125.159L353.312 122.492L350.032 120.916L346.731 119.38C346.491 119.259 346.262 119.118 346.054 118.946C345.867 118.794 345.7 118.613 345.565 118.411C345.409 118.239 345.429 117.976 345.606 117.825C345.679 117.764 345.773 117.724 345.867 117.724Z" fill="#AFC0D9"/>
<path d="M344.941 128.304H362.33V129.94H344.941V128.304Z" fill="#AFC0D9"/>
<path d="M242.281 148.655H390.85V181.446H242.281V148.655Z" fill="#AFC0D9"/>
<path opacity="0.3" d="M242.281 148.655H390.85V181.446H242.281V148.655Z" fill="white"/>
<path d="M383.362 162.568L379.676 159.002H374.584L379.02 163.295H370.096V166.78H379.02L374.584 171.084H379.676L383.362 167.508L385.902 165.033L383.362 162.568Z" fill="white"/>
<path opacity="0.7" d="M250.795 160.262H304.202V169.839H250.795V160.262Z" fill="#AFC0D9"/>
<path opacity="0.7" d="M312.279 160.262H335.156V169.839H312.279V160.262Z" fill="#AFC0D9"/>
<path d="M343.559 155.268H363.708V174.815H343.559V155.268Z" fill="white"/>
<path d="M345.867 160.262H346.575C346.991 160.293 347.387 160.394 347.762 160.575L350.886 162.091L356.738 161.151C357.227 161.091 357.737 161.171 358.185 161.373L358.747 161.636L354.926 164.222L358.477 165.849L360.83 165.192L361.871 165.677L359.122 167.697L353.333 165L350.021 163.454L346.7 161.889C346.45 161.767 346.231 161.626 346.023 161.444C345.835 161.293 345.669 161.111 345.533 160.909C345.398 160.717 345.45 160.464 345.648 160.333C345.71 160.293 345.794 160.262 345.867 160.262Z" fill="#AFC0D9"/>
<path d="M344.941 170.827H362.33V172.463H344.941V170.827Z" fill="#AFC0D9"/>
</g>
<path d="M333.474 68.2994C322.021 66.5395 317.021 49.2398 323.512 43.8228C330.003 38.4057 346.61 46.3191 347.664 52.0357C348.718 57.7524 347.819 70.5087 333.474 68.2994Z" fill="#F0C4AB"/>
<path d="M345.998 46.4575C350.523 45.1345 351.731 49.0912 350.227 52.611C348.723 56.1309 345.099 58.1779 343.89 56.2806C342.682 54.3709 345.998 46.4575 345.998 46.4575Z" fill="#F0C4AB"/>
<path d="M341.017 41.9129C345.091 39.7161 347.353 42.3497 345.85 47.9166C344.346 53.4834 342.379 55.9798 339.359 53.4834C336.338 50.9871 341.017 41.9004 341.017 41.9004V41.9129Z" fill="#F0C4AB"/>
<path d="M332.874 47.4886C333.028 49.6854 336.653 51.7449 338.157 50.5716C339.661 49.3983 341.332 45.0048 341.473 41.0481C341.627 37.0914 336.345 37.678 334.982 40.6112C333.62 43.5444 332.874 47.5011 332.874 47.5011V47.4886Z" fill="#F0C4AB"/>
<path d="M333.925 44.0375C337.845 28.7973 336.187 17.8009 332.112 13.6944C328.038 9.58791 326.225 17.364 328.038 22.7811C329.85 28.2106 329.541 44.1872 329.541 44.1872L333.925 44.0375Z" fill="#F0C4AB"/>
<path d="M323.86 44.1048C324.014 43.4932 324.464 43.0189 325.081 42.8067C329.991 41.0967 336.521 44.9161 339.066 48.2113C341.778 51.7312 342.691 57.4478 334.991 53.3413C328.834 50.0586 326.829 48.748 325.274 48.5733C324.349 48.4734 323.577 47.7994 323.539 46.9007C323.487 45.9272 323.693 44.8412 323.886 44.1173L323.86 44.1048Z" fill="#F0C4AB"/>
<path d="M252.909 153.486C279.735 169.425 312.344 144.811 322.306 114.905C332.267 84.999 328.643 66.5385 328.643 66.5385C328.643 66.5385 335.429 64.3417 339.517 67.8616C343.592 71.3814 346.304 136.461 332.267 169.001C318.231 201.541 273.398 212.974 258.912 211.214C253.025 191.431 252.909 153.499 252.909 153.499V153.486Z" fill="url(#paint0_linear_2_6610)"/>
<path d="M126.903 302.871C130.412 301.223 142.212 300.736 143.587 302.072C144.962 303.42 143.587 308.537 143.587 308.537C143.587 308.537 148.15 309.76 146.942 314.029C145.734 318.285 141.89 318.061 140.605 317.249C138.356 320.894 133.484 324.714 129.731 322.529C125.978 320.345 120.065 315.789 121.62 308.013C123.098 303.569 126.89 302.871 126.89 302.871H126.903Z" fill="#F0C4AB"/>
<path d="M188.601 471.997C230.619 471.997 264.681 467.404 264.681 461.738C264.681 456.071 230.619 451.478 188.601 451.478C146.582 451.478 112.52 456.071 112.52 461.738C112.52 467.404 146.582 471.997 188.601 471.997Z" fill="#E0E0E0"/>
<path d="M212.06 128.278C212.96 139.124 217.793 146.751 217.793 146.751L209.335 157.011C209.335 157.011 183.679 152.904 175.53 149.384C167.381 145.865 165.568 135.904 165.568 135.904C165.568 135.904 169.412 113.362 170.016 107.795C170.62 102.228 212.06 128.278 212.06 128.278Z" fill="#F0C4AB"/>
<path d="M171.834 447.238C171.834 447.9 172.066 456.912 172.066 456.912L168.672 458.447L167.31 457.348L166.629 459.77C166.629 459.77 151.461 466.148 141.95 461.754C144.893 453.841 164.816 453.616 164.816 453.616L166.629 446.577L171.834 447.238Z" fill="#070A1C"/>
<path d="M162.774 455.365L157.118 452.956L154.856 453.392L160.28 456.251L162.774 455.365Z" fill="#6A6C77"/>
<path d="M201.495 446.577C199.914 450.097 200.363 458.447 200.363 458.447L205.569 458.671L205.8 456.687C205.8 456.687 211.919 460.644 216.675 460.644C221.43 460.644 229.348 459.545 229.348 459.545C229.348 459.545 226.855 454.49 220.068 452.955C213.281 451.42 207.613 452.081 207.613 452.081L205.351 447.463L201.507 446.589L201.495 446.577Z" fill="#070A1C"/>
<path d="M219.154 451.838C218.473 452.062 212.586 453.822 212.586 453.822L210.542 453.385L214.848 450.964L219.154 451.838Z" fill="#6A6C77"/>
<path d="M250.401 324.997L207.38 448.554L200.144 448.117L212.817 350.497L204.218 350.061L172.817 448.554H164.822L167.084 320.641L250.401 324.997Z" fill="url(#paint1_linear_2_6610)"/>
<path d="M157.125 144.405L160.441 142.646L194.851 157.299L208.437 152.319L223.527 147.039C223.527 147.039 233.797 157.886 238.617 175.772C243.45 193.658 243.142 216.812 242.242 222.678C241.342 228.545 237.113 243.785 237.113 243.785C237.113 243.785 194.542 212.119 185.789 196.879C177.035 181.638 166.47 170.792 166.47 170.792L157.112 144.405H157.125Z" fill="white"/>
<path d="M219.307 159.363L216.286 164.93C216.286 164.93 232.584 198.643 240.438 233.23C248.291 267.817 223.831 256.683 223.831 256.683C223.831 256.683 225.039 224.73 209.641 166.103C202.7 163.757 199.371 162.296 199.371 162.296L208.432 152.323L219.307 159.363Z" fill="#F8A801"/>
<path d="M229.446 329.251C229.716 329.389 229.999 329.526 230.282 329.651C239.382 333.608 253.303 328.378 253.303 328.378C253.303 328.378 259.344 286.751 261.156 243.365C262.969 199.978 252.904 153.509 252.904 153.509C252.904 153.509 237.505 157.902 229.755 151.312C235.487 161.285 243.945 190.305 242.133 217.265C240.32 244.238 236.143 241.443 236.143 241.443V241.567L229.459 329.251H229.446Z" fill="url(#paint2_linear_2_6610)"/>
<path opacity="0.5" d="M229.446 329.242C229.716 329.379 229.999 329.517 230.282 329.641C230.912 329.217 231.387 328.73 231.683 328.218C236.516 319.718 246.773 257.859 238.932 243.792L236.13 241.57L229.459 329.254L229.446 329.242Z" fill="#070A1C"/>
<path d="M237.124 243.787C244.977 257.854 234.707 319.713 229.874 328.213C225.041 336.713 174.629 332.32 158.022 317.953C164.668 303.587 173.717 255.507 145.953 223.854C140.824 218.012 119.693 162.88 119.693 162.88C119.693 162.88 144.745 153.494 151.094 147.64C157.135 158.774 180.683 187.507 180.683 187.507L214.193 225.613L237.136 243.787H237.124Z" fill="url(#paint3_linear_2_6610)"/>
<path d="M197.863 283.957L196.963 288.35L172.812 288.937L173.416 283.657L197.863 283.957Z" fill="#A0C7A3"/>
<path d="M252.369 283.361L251.61 287.905L258.397 288.192L259.31 282.475L252.369 283.361Z" fill="#A0C7A3"/>
<path d="M208.435 152.322L199.977 166.689C199.977 166.689 170.092 162.582 160.426 142.649C162.534 137.669 165.555 135.909 165.555 135.909C165.555 135.909 176.121 151.448 208.422 152.322H208.435Z" fill="#EDE6E6"/>
<path d="M208.439 152.311C209.339 152.598 220.509 162.871 220.509 162.871C220.509 162.871 224.133 151.737 223.529 147.044C222.025 145.583 217.488 143.237 217.488 143.237C217.488 143.237 215.072 150.277 208.426 152.324L208.439 152.311Z" fill="#EDE6E6"/>
<path d="M223.539 147.033C223.539 147.033 227.768 147.32 229.798 149.305C230.942 150.416 244.67 172.833 244.966 175.179C245.261 177.526 241.945 183.68 241.945 183.68C241.945 183.68 246.778 188.073 248.282 191.306C249.786 194.526 244.053 232.645 237.112 243.779C244.362 199.806 231.984 161.113 223.526 147.033H223.539Z" fill="#283760"/>
<path d="M238.018 240.57C238.018 241.443 237.118 243.79 237.118 243.79C237.118 243.79 187.465 215.806 177.041 198.943C174.328 194.55 177.645 186.636 177.645 186.636C177.645 186.636 168.891 186.923 164.663 182.53C160.434 178.136 149.855 150.002 150.099 148.23C150.549 144.935 158.698 143.175 158.698 143.175C158.698 143.175 159.264 157.217 180.061 182.829C213.866 224.456 238.018 240.582 238.018 240.582V240.57Z" fill="#283760"/>
<path d="M231.84 260.779C233.337 260.779 234.552 259.599 234.552 258.145C234.552 256.69 233.337 255.511 231.84 255.511C230.342 255.511 229.127 256.69 229.127 258.145C229.127 259.599 230.342 260.779 231.84 260.779Z" fill="#A0C7A3"/>
<path d="M229.871 292.581C231.369 292.581 232.583 291.402 232.583 289.948C232.583 288.493 231.369 287.314 229.871 287.314C228.373 287.314 227.159 288.493 227.159 289.948C227.159 291.402 228.373 292.581 229.871 292.581Z" fill="#A0C7A3"/>
<path d="M119.679 162.885C78.702 186.813 37.4033 265.897 121.325 311.33C120.258 312.004 125.823 302.992 126.158 303.117C126.158 303.117 82.3139 272.375 114.024 237.813C131.582 218.678 145.939 223.846 145.939 223.846C145.939 223.846 151.595 174.119 119.679 162.873V162.885Z" fill="url(#paint4_linear_2_6610)"/>
<path d="M224.119 73.5253C224.119 73.5253 235.238 71.4159 237.564 73.0759C239.891 74.736 240.392 90.8998 238.914 93.1216C237.435 95.3433 226.137 96.3668 226.137 96.3668L224.119 73.5378V73.5253Z" fill="#F0C4AB"/>
<path d="M230.029 92.0024C230.029 92.0024 233.782 91.4407 235.44 89.3438C237.098 87.2469 235.376 76.0757 235.376 76.0757C235.376 76.0757 230.067 75.6888 229.026 77.249C227.972 78.8092 228.962 87.2718 230.042 92.0024H230.029Z" fill="#C78B67"/>
<path d="M235.368 76.0756C235.368 76.0756 228.362 75.2394 228.093 76.8745C227.116 82.7284 229.892 91.5904 229.892 91.5904L230.033 92.0148C230.033 92.0148 228.401 78.3972 229.365 77.6608C230.329 76.9244 235.381 76.0881 235.381 76.0881L235.368 76.0756Z" fill="#CC6A5A"/>
<path d="M143.411 53.4785C145.507 59.2451 162.126 84.0213 168.836 110.42C171.741 121.853 176.098 128.094 181.574 131.439C181.844 131.602 182.114 131.764 182.396 131.914C184.916 133.287 187.654 134.098 190.584 134.56C190.893 134.61 191.201 134.647 191.51 134.685C196.253 135.296 201.497 135.047 207.088 134.784L208.091 134.735C216.15 133.374 221.986 131.152 225.199 129.642C225.61 129.455 226.009 129.255 226.382 129.055C230.932 126.621 232.911 123.576 233.284 121.204C233.978 116.773 232.243 40.8969 230.906 38.3132C229.569 35.7295 222.538 33.9945 222.538 33.9945C222.538 33.9945 225.315 3.93854 204.865 6.04795C204.852 6.04795 204.839 6.04795 204.826 6.04795C203.939 6.13532 203.065 6.24766 202.204 6.38496C195.224 7.48335 189.119 9.99218 183.875 13.1251C183.515 13.3498 183.142 13.5619 182.795 13.7866C167.473 23.4225 159.89 38.3257 159.89 38.3257C159.89 38.3257 141.303 47.687 143.399 53.466L143.411 53.4785Z" fill="#283760"/>
<path d="M162.636 81.5344C161.954 80.2737 160.476 79.6371 159.049 79.9866C155.72 80.7979 149.808 82.4455 148.767 84.168C147.301 86.577 153.355 101.642 155.605 103.115C157.096 104.089 162.263 102.978 165.643 102.092C167.327 101.655 168.317 99.9823 167.893 98.3472C167.443 96.6248 166.774 94.041 165.875 90.3964C164.808 86.0777 163.561 83.2319 162.636 81.5344Z" fill="#F0C4AB"/>
<path d="M163.332 98.7025C163.332 98.7025 159.643 99.6136 157.277 98.3155C154.912 97.0049 151.995 86.0834 151.995 86.0834C151.995 86.0834 156.712 83.6994 158.319 84.7479C159.912 85.7839 162.419 93.9469 163.332 98.7025Z" fill="#C78B67"/>
<path d="M151.995 86.0885C151.995 86.0885 158.113 82.656 159.013 84.054C162.278 89.0717 163.293 98.2707 163.293 98.2707L163.332 98.72C163.332 98.72 159.334 85.5643 158.164 85.2523C156.995 84.9402 151.995 86.101 151.995 86.101V86.0885Z" fill="#73503B"/>
<g style="mix-blend-mode:screen" opacity="0.5">
<path d="M204.735 39.3527L205.404 39.9394C215.185 29.2925 217.692 18.5207 212.126 11.144C210.262 8.67265 207.64 6.9252 204.825 6.06396C203.938 6.15134 203.064 6.26367 202.203 6.40097C205.699 6.80039 209.131 8.66016 211.393 11.6558C216.689 18.683 214.196 29.0303 204.722 39.3527H204.735Z" fill="#53638E"/>
</g>
<g style="mix-blend-mode:screen" opacity="0.5">
<path d="M181.945 41.5061L182.627 42.0928C192.524 31.2212 191.149 18.9642 186.406 14.6455C185.621 13.9215 184.773 13.4223 183.886 13.1602C183.526 13.3848 183.154 13.597 182.807 13.8217C183.861 13.959 184.863 14.4458 185.789 15.2945C190.262 19.3761 191.457 31.0589 181.945 41.5186V41.5061Z" fill="#53638E"/>
</g>
<path d="M221.178 35.1772C230.407 57.4571 229.841 71.8361 229.314 84.1431C229.25 85.7033 228.363 87.1262 226.975 87.925C217.296 93.4419 191.846 94.0036 180.342 93.9537C176.563 93.9412 173.093 91.9316 171.267 88.7114C166.936 81.0725 160.316 67.7421 162.103 48.2706C162.141 47.8712 162.386 47.5217 162.746 47.3469C174.789 41.3807 185.252 40.7191 196.216 39.4834C210.548 37.8608 221.165 35.1897 221.165 35.1897L221.178 35.1772Z" fill="#F0C4AB"/>
<path d="M206.041 85.9917C206.299 77.3294 201.89 68.0929 199.602 63.6119C198.136 60.7287 196.221 58.8564 196.594 58.3821C198.329 56.1853 211.324 59.493 211.324 59.493L207.07 65.3469C205.437 68.6546 206.376 76.181 210.45 81.9102C211.543 83.4579 212.918 84.2193 214.898 84.2442C216.067 84.2442 217.327 85.455 217.186 87.1025C217.057 88.5879 214.036 90.3728 211.903 90.8346C208.766 91.5086 203.072 91.4462 201.825 89.6863C200.244 87.4645 203.085 84.9183 206.067 85.9667L206.041 85.9917Z" fill="url(#paint5_linear_2_6610)"/>
<path d="M196.954 72.7012C196.954 72.7012 196.928 78.0184 196.26 78.63C195.592 79.2416 186.684 80.8143 185.849 80.1902C185.013 79.5661 182.172 75.3473 182.172 75.3473L186.427 73.3502L188.625 72.3142L193.869 71.5529L195.566 71.3032L196.941 72.6887L196.954 72.7012Z" fill="white"/>
<path d="M193.849 74.5129C194.196 77.0218 192.37 79.3434 189.787 79.6804C187.19 80.0174 184.812 78.245 184.465 75.7362C184.363 75.0247 184.44 74.3382 184.658 73.7016L186.959 72.6157L192.46 71.8169C193.193 72.5159 193.707 73.4395 193.861 74.5005L193.849 74.5129Z" fill="#283760"/>
<path d="M181.573 74.0687L182.177 75.3418C182.177 75.3418 190.892 71.6098 196.946 72.6957C197.28 72.0217 197.447 70.8609 197.447 70.8609C197.447 70.8609 190.481 69.3631 181.573 74.0687Z" fill="#283760"/>
<path d="M209.833 71.722C209.833 71.722 210.579 74.443 211.273 76.0906C211.53 76.7022 211.774 77.164 211.98 77.2763C212.713 77.7007 220.695 77.0267 221.248 76.2279C221.8 75.429 223.111 70.6485 223.111 70.6485L218.972 69.7623L216.826 69.313L215.168 69.5127L212.16 69.8747L210.656 70.0494L209.846 71.722H209.833Z" fill="white"/>
<path d="M209.833 71.7275C209.833 71.7275 210.579 74.4486 211.273 76.0962C211.941 76.5455 212.738 76.8201 213.612 76.87C216.132 76.9824 218.265 75.0102 218.394 72.4764C218.445 71.403 218.124 70.4045 217.546 69.5932L215.168 69.5308L212.16 69.8927L210.656 70.0675L209.846 71.74L209.833 71.7275Z" fill="#283760"/>
<path d="M223.276 69.2624L223.096 70.6479C223.096 70.6479 214.702 69.1875 209.831 71.7213C209.368 71.1596 208.931 70.0737 208.931 70.0737C208.931 70.0737 214.471 66.9159 223.289 69.2624H223.276Z" fill="#283760"/>
<path d="M193.497 49.5542C193.497 49.5542 197.186 57.1056 197.212 60.251C193.793 59.3898 180.528 65.0815 178.15 68.6138C178.15 68.6138 175.952 65.8179 175.387 63.8083C175.888 62.0359 176.685 60.4757 177.649 59.1152C178.613 60.0638 180.194 61.6115 180.168 61.4493C180.155 61.2995 179.191 59.4272 178.472 58.0418C183.009 52.6372 190.117 50.8648 190.117 50.8648L195.117 58.2165L192.495 49.9287L193.485 49.5542H193.497Z" fill="#283760"/>
<path d="M206.986 65.9232C212.577 67.0716 220.791 66.5723 225.11 65.7984C225.11 65.7984 225.804 62.5781 225.508 60.6435C220.354 59.6699 213.914 57.8351 209.878 56.6119L207.732 63.1648L207.822 55.9753C206.652 55.6133 205.971 55.3887 205.971 55.3887C205.971 55.3887 205.868 63.2147 207.012 65.9108L206.986 65.9232Z" fill="#283760"/>
<path d="M191.062 101.332C190.419 100.233 189.519 99.1597 188.812 97.8991C188.812 97.8991 203.543 98.3859 211.988 97.4747C212.887 97.3748 213.723 97.2625 214.455 97.1377C217.18 109.232 201.229 118.469 191.075 101.332H191.062Z" fill="#B27171"/>
<path d="M209.25 107.385C204.944 109.707 198.736 109.382 193.183 103.778C192.463 103.054 191.756 102.23 191.062 101.332C190.278 100.308 189.532 99.1597 188.812 97.8991C188.812 97.8991 188.902 97.8991 189.095 97.8991C191.088 97.949 203.389 98.2735 211.216 97.5496C211.473 97.5246 211.731 97.4997 211.988 97.4747C212.887 97.3748 213.723 97.2625 214.455 97.1377C215.304 101.369 213.003 105.376 209.25 107.385Z" fill="#630B18"/>
<path d="M209.244 107.388C204.938 109.71 198.73 109.386 193.177 103.781C200.516 107.002 209.064 105.454 209.064 105.454L209.244 107.388Z" fill="white"/>
<path d="M211.214 97.5576C211.06 98.7184 210.777 100.104 210.288 100.578C209.44 101.414 198.412 102.787 190.455 99.8667C189.993 99.2551 189.53 98.6061 189.093 97.9071C191.085 97.9695 203.386 98.2816 211.227 97.5576H211.214Z" fill="white"/>
<path d="M132.927 98.2741C137.087 98.2741 140.459 94.9994 140.459 90.9598C140.459 86.9202 137.087 83.6455 132.927 83.6455C128.767 83.6455 125.395 86.9202 125.395 90.9598C125.395 94.9994 128.767 98.2741 132.927 98.2741Z" fill="#283760"/>
<path d="M123.587 62.9121L120.026 66.6191C116.8 63.8607 112.571 62.1881 107.931 62.1881C97.828 62.1881 89.6145 70.1515 89.6145 79.9746C89.6145 84.9049 91.6711 89.3484 95.0002 92.5686L77.7763 110.442C74.6529 113.688 69.4086 113.85 66.0795 110.792L10.2305 66.2322C6.47723 62.7873 6.84999 56.8959 11.0017 53.9377L62.1077 1.55191C65.3983 -0.79465 69.9613 -0.445162 72.8534 2.36323L123.407 51.7784C126.543 54.8364 126.62 59.7542 123.587 62.8996V62.9121Z" fill="#283760"/>
<path d="M107.93 94.1142C115.973 94.1142 122.493 87.7827 122.493 79.9724C122.493 72.1621 115.973 65.8306 107.93 65.8306C99.8868 65.8306 93.3667 72.1621 93.3667 79.9724C93.3667 87.7827 99.8868 94.1142 107.93 94.1142Z" fill="#283760"/>
<path d="M72.3255 77.2389H65.3589L62.5054 28.5977H75.179L72.3255 77.2389ZM72.1842 81.3579L71.9399 87.8484H65.7445L65.5003 81.3579H72.1842Z" fill="white"/>
<defs>
<linearGradient id="paint0_linear_2_6610" x1="236.739" y1="76.0121" x2="404.42" y2="256.823" gradientUnits="userSpaceOnUse">
<stop offset="0.33" stop-color="#385069"/>
<stop offset="0.77" stop-color="#070A1C"/>
</linearGradient>
<linearGradient id="paint1_linear_2_6610" x1="206.429" y1="456.854" x2="208.999" y2="294.589" gradientUnits="userSpaceOnUse">
<stop offset="0.11" stop-color="#385069"/>
<stop offset="1" stop-color="#070A1C"/>
</linearGradient>
<linearGradient id="paint2_linear_2_6610" x1="258.675" y1="140.678" x2="215.313" y2="406.58" gradientUnits="userSpaceOnUse">
<stop offset="0.22" stop-color="#385069"/>
<stop offset="0.77" stop-color="#070A1C"/>
</linearGradient>
<linearGradient id="paint3_linear_2_6610" x1="177.945" y1="146.891" x2="183.048" y2="333.352" gradientUnits="userSpaceOnUse">
<stop offset="0.11" stop-color="#385069"/>
<stop offset="1" stop-color="#070A1C"/>
</linearGradient>
<linearGradient id="paint4_linear_2_6610" x1="112.88" y1="137.734" x2="104.892" y2="361.499" gradientUnits="userSpaceOnUse">
<stop offset="0.22" stop-color="#385069"/>
<stop offset="1" stop-color="#070A1C"/>
</linearGradient>
<linearGradient id="paint5_linear_2_6610" x1="206.872" y1="57.6289" x2="206.872" y2="91.2316" gradientUnits="userSpaceOnUse">
<stop stop-color="#C78B67" stop-opacity="0"/>
<stop offset="1" stop-color="#C78B67"/>
</linearGradient>
</defs>
</svg>
