<svg width="58" height="61" viewBox="0 0 58 61" fill="none" xmlns="http://www.w3.org/2000/svg">
<path id="Vector" d="M3.30304 26.012C-0.160662 28.7753 -0.988937 34.2387 1.46436 38.1401L13.1404 56.7083C15.5937 60.6097 20.4441 61.5427 23.9078 58.7793L53.9684 34.7971C57.4321 32.0337 58.2604 26.5704 55.8071 22.6689L44.1311 4.10076C41.6778 0.199334 36.8274 -0.733613 33.3637 2.02972L3.30304 26.012ZM5.36351 29.2887L35.4242 5.30645C37.3151 3.79784 39.8826 4.29168 41.222 6.42163L42.2522 8.06L5.40369 37.4576L4.37345 35.8193C3.0341 33.6893 3.47254 30.7973 5.36351 29.2887ZM8.15098 41.8266L44.9995 12.429L52.898 24.9898C54.2374 27.1197 53.7989 30.0117 51.9079 31.5203L21.8473 55.5026C19.9563 57.0112 17.3888 56.5174 16.0495 54.3874L8.15098 41.8266ZM39.3426 30.0636C39.1479 30.2143 38.9818 30.4071 38.8538 30.6307C38.7259 30.8544 38.6386 31.1044 38.5972 31.3664C38.5558 31.6283 38.5611 31.8969 38.6126 32.1566C38.6642 32.4163 38.761 32.6618 38.8976 32.8789C39.0341 33.096 39.2076 33.2804 39.4079 33.4214C39.6083 33.5623 39.8315 33.657 40.0646 33.6999C40.2977 33.7429 40.5361 33.7332 40.7659 33.6715C40.9957 33.6097 41.2122 33.4972 41.4031 33.3403L47.2213 28.6986C47.4159 28.5479 47.5821 28.3551 47.71 28.1314C47.838 27.9078 47.9252 27.6577 47.9666 27.3958C48.008 27.1338 48.0028 26.8652 47.9512 26.6056C47.8997 26.3459 47.8028 26.1004 47.6663 25.8833C47.5297 25.6661 47.3563 25.4817 47.1559 25.3408C46.9556 25.1998 46.7323 25.1052 46.4992 25.0622C46.2661 25.0193 46.0277 25.029 45.798 25.0907C45.5682 25.1524 45.3516 25.265 45.1608 25.4218L39.3426 30.0636Z" fill="#283760"/>
</svg>
