<svg width="127" height="71" viewBox="0 0 127 71" fill="none" xmlns="http://www.w3.org/2000/svg">
<path id="Vector" d="M59.8987 63.9642C60.2014 64.1968 60.5294 64.4295 60.8511 64.6565C54.458 68.4747 46.9535 70.5082 39.2801 70.5015C34.1653 70.5053 29.0999 69.6018 24.3735 67.8428C19.6471 66.0838 15.3525 63.5038 11.7352 60.2503C8.11794 56.9969 5.24898 53.1337 3.29241 48.8819C1.33584 44.63 0.330036 40.0728 0.332524 35.471C0.331859 29.1329 2.2418 22.9134 5.85895 17.4746C9.4761 12.0359 14.665 7.58166 20.8731 4.58623C27.0812 1.59081 34.0761 0.166368 41.1128 0.464604C48.1495 0.76284 54.9645 2.77258 60.8321 6.27982C60.5168 6.52383 60.2014 6.74515 59.9617 6.99484C55.4153 10.5269 51.7675 14.8984 49.2664 19.8122C46.7654 24.7259 45.4697 30.0665 45.4676 35.471C45.4676 46.395 50.7215 56.7799 59.8987 63.9642ZM87.4048 0.434774C79.7382 0.421359 72.2396 2.45561 65.8591 6.27982C66.1681 6.52383 66.4835 6.74515 66.7232 6.99484C75.9444 14.1621 81.2236 24.5527 81.2236 35.471C81.2236 46.3893 75.9571 56.7685 66.7925 63.9642C66.4835 64.1968 66.1555 64.4295 65.8401 64.6565C72.2278 68.476 79.7288 70.5097 87.3985 70.5015C92.5536 70.5609 97.6705 69.6988 102.452 67.965C107.234 66.2312 111.586 63.6604 115.255 60.4017C118.924 57.1429 121.837 53.2612 123.825 48.9815C125.814 44.7019 126.838 40.1096 126.839 35.471C126.839 30.8325 125.816 26.24 123.828 21.9601C121.84 17.6802 118.928 13.798 115.259 10.5387C111.591 7.27942 107.24 4.70796 102.458 2.97351C97.6767 1.23905 92.5599 0.376118 87.4048 0.434774ZM63.3425 7.94821C58.7054 11.2195 54.9573 15.3981 52.3826 20.1668C49.8078 24.9356 48.4741 30.1693 48.4825 35.471C48.4702 40.7757 49.8022 46.013 52.3771 50.7851C54.952 55.5571 58.7022 59.7383 63.3425 63.0108C67.9814 59.7369 71.731 55.5556 74.3068 50.7839C76.8826 46.0123 78.2169 40.7756 78.2088 35.471C78.2173 30.1687 76.883 24.9344 74.3071 20.1655C71.7312 15.3965 67.9814 11.2184 63.3425 7.94821Z" fill="#7093AC"/>
</svg>
