<svg width="71" height="71" viewBox="0 0 71 71" fill="none" xmlns="http://www.w3.org/2000/svg">
<g id="AccessTimeOutlined">
<path id="Vector" d="M35.2785 5.86084C19.1017 5.86084 6.00195 18.9899 6.00195 35.1667C6.00195 51.3435 19.1017 64.4725 35.2785 64.4725C51.4846 64.4725 64.6136 51.3435 64.6136 35.1667C64.6136 18.9899 51.4846 5.86084 35.2785 5.86084ZM35.3078 58.6114C22.3546 58.6114 11.8631 48.1199 11.8631 35.1667C11.8631 22.2135 22.3546 11.722 35.3078 11.722C48.261 11.722 58.7525 22.2135 58.7525 35.1667C58.7525 48.1199 48.261 58.6114 35.3078 58.6114ZM36.7731 20.5138H32.3772V38.0973L47.7628 47.3286L49.9607 43.724L36.7731 35.8993V20.5138Z" fill="#283760"/>
</g>
</svg>
