<svg width="59" height="59" viewBox="0 0 59 59" fill="none" xmlns="http://www.w3.org/2000/svg">
<g id="exchange">
<g id="Group">
<g id="Icon">
<g id="Group_2">
<path id="Vector" fill-rule="evenodd" clip-rule="evenodd" d="M19.376 25.4336C12.0238 25.4336 6.05469 31.4028 6.05469 38.7549C6.05469 46.1071 12.0238 52.0762 19.376 52.0762C26.7281 52.0762 32.6973 46.1071 32.6973 38.7549C32.6973 31.4028 26.7281 25.4336 19.376 25.4336ZM19.376 27.8556C25.3912 27.8556 30.2752 32.7397 30.2752 38.7549C30.2752 44.7701 25.3912 49.6542 19.376 49.6542C13.3608 49.6542 8.47674 44.7701 8.47674 38.7549C8.47674 32.7397 13.3608 27.8556 19.376 27.8556Z" fill="#283760"/>
</g>
<g id="Group_3">
<path id="Vector_2" fill-rule="evenodd" clip-rule="evenodd" d="M38.7588 6.05078C31.4067 6.05078 25.4375 12.0199 25.4375 19.3721C25.4375 26.7242 31.4067 32.6934 38.7588 32.6934C46.111 32.6934 52.0801 26.7242 52.0801 19.3721C52.0801 12.0199 46.111 6.05078 38.7588 6.05078ZM38.7588 8.47284C44.774 8.47284 49.6581 13.3569 49.6581 19.3721C49.6581 25.3873 44.774 30.2713 38.7588 30.2713C32.7436 30.2713 27.8596 25.3873 27.8596 19.3721C27.8596 13.3569 32.7436 8.47284 38.7588 8.47284Z" fill="#283760"/>
</g>
<g id="Group_4">
<path id="&#226;&#130;&#170;" d="M13.2031 44.6198V32.9258H17.92C18.9573 32.9258 19.7762 33.1059 20.3767 33.4663C20.9882 33.8266 21.4249 34.3288 21.687 34.973C21.96 35.6173 22.0964 36.3761 22.0964 37.2496V41.6389H19.9509V37.2987C19.9509 36.6545 19.8636 36.1414 19.6889 35.7592C19.5142 35.377 19.2521 35.1041 18.9027 34.9403C18.5642 34.7656 18.1329 34.6782 17.6088 34.6782H15.3487V44.6198H13.2031ZM16.577 35.9066H18.7226V42.8673H20.9827C21.5068 42.8673 21.9381 42.7854 22.2766 42.6216C22.626 42.4469 22.8881 42.1685 23.0628 41.7863C23.2375 41.4042 23.3248 40.891 23.3248 40.2468V32.9258H25.4703V40.2959C25.4703 41.1585 25.3284 41.9174 25.0445 42.5725C24.7715 43.2167 24.3239 43.719 23.7015 44.0793C23.0791 44.4396 22.2493 44.6198 21.212 44.6198H16.577V35.9066Z" fill="#283760"/>
</g>
<path id="Vector_3" fill-rule="evenodd" clip-rule="evenodd" d="M13.3127 18.8751V14.5323C13.3127 13.8638 12.7701 13.3213 12.1017 13.3213C11.4332 13.3213 10.8906 13.8638 10.8906 14.5323V21.7985C10.8906 22.467 11.4332 23.0095 12.1017 23.0095H19.3678C20.0363 23.0095 20.5788 22.467 20.5788 21.7985C20.5788 21.13 20.0363 20.5875 19.3678 20.5875H15.0251L27.4902 8.12236C30.4754 5.13718 34.5238 3.46112 38.7443 3.46112C42.9647 3.46112 47.0132 5.13718 49.9983 8.12236C52.9835 11.1075 54.6596 15.156 54.6596 19.3764C54.6596 23.5969 52.9835 27.6453 49.9983 30.6305C49.526 31.1028 49.526 31.8706 49.9983 32.3429C50.4706 32.8152 51.2384 32.8152 51.7107 32.3429C55.1501 28.9036 57.0816 24.2399 57.0816 19.3764C57.0816 14.513 55.1501 9.84929 51.7107 6.40997C48.2714 2.97065 43.6078 1.03906 38.7443 1.03906C33.8808 1.03906 29.2171 2.97065 25.7778 6.40997L13.3127 18.8751Z" fill="#283760"/>
<path id="Vector_4" fill-rule="evenodd" clip-rule="evenodd" d="M44.808 39.2557V43.5984C44.808 44.2669 45.3506 44.8094 46.0191 44.8094C46.6875 44.8094 47.2301 44.2669 47.2301 43.5984V36.3322C47.2301 35.6638 46.6875 35.1212 46.0191 35.1212H38.7529C38.0844 35.1212 37.5419 35.6638 37.5419 36.3322C37.5419 37.0007 38.0844 37.5433 38.7529 37.5433H43.0956L30.6305 50.0084C27.6453 52.9936 23.5969 54.6696 19.3764 54.6696C15.156 54.6696 11.1075 52.9936 8.12236 50.0084C5.13718 47.0232 3.46112 42.9747 3.46112 38.7543C3.46112 34.5339 5.13718 30.4854 8.12236 27.5002C8.59466 27.0279 8.59466 26.2601 8.12236 25.7878C7.65006 25.3155 6.88227 25.3155 6.40997 25.7878C2.97065 29.2271 1.03906 33.8908 1.03906 38.7543C1.03906 43.6178 2.97065 48.2815 6.40997 51.7208C9.84929 55.1601 14.513 57.0917 19.3764 57.0917C24.2399 57.0917 28.9036 55.1601 32.3429 51.7208L44.808 39.2557Z" fill="#283760"/>
<path id="Vector_5" fill-rule="evenodd" clip-rule="evenodd" d="M37.5472 13.3205H36.3338C35.371 13.3205 34.447 13.7032 33.7664 14.3838C33.0858 15.0644 32.7031 15.9884 32.7031 16.9512V16.956C32.7031 17.9188 33.0858 18.8428 33.7664 19.5234C34.447 20.204 35.371 20.5867 36.3338 20.5867H41.1827C41.5037 20.5867 41.8113 20.7138 42.0377 20.9403C42.2642 21.1668 42.3913 21.4743 42.3913 21.7953V21.8001C42.3913 22.121 42.2642 22.4286 42.0377 22.6551C41.8113 22.8816 41.5037 23.0087 41.1827 23.0087H36.3338C36.0129 23.0087 35.7053 22.8816 35.4788 22.6551C35.2523 22.4286 35.1252 22.121 35.1252 21.8001C35.1252 21.1316 34.5826 20.5891 33.9142 20.5891C33.2457 20.5891 32.7031 21.1316 32.7031 21.8001C32.7031 22.7629 33.0858 23.6869 33.7664 24.3675C34.447 25.0481 35.371 25.4308 36.3338 25.4308H37.5472V26.6418C37.5472 27.3103 38.0898 27.8528 38.7583 27.8528C39.4268 27.8528 39.9693 27.3103 39.9693 26.6418V25.4308H41.1827C42.1455 25.4308 43.0695 25.0481 43.7501 24.3675C44.4307 23.6869 44.8134 22.7629 44.8134 21.8001C44.8134 21.7989 44.8134 21.7965 44.8134 21.7953C44.8134 20.8325 44.4307 19.9085 43.7501 19.2279C43.0695 18.5473 42.1455 18.1646 41.1827 18.1646H36.3338C36.0129 18.1646 35.7053 18.0374 35.4788 17.811C35.2523 17.5845 35.1252 17.2769 35.1252 16.956V16.9512C35.1252 16.6302 35.2523 16.3226 35.4788 16.0962C35.7053 15.8697 36.0129 15.7425 36.3338 15.7425H41.1827C41.5037 15.7425 41.8113 15.8697 42.0377 16.0962C42.2642 16.3226 42.3913 16.6302 42.3913 16.9512C42.3913 17.6196 42.9339 18.1622 43.6024 18.1622C44.2709 18.1622 44.8134 17.6196 44.8134 16.9512C44.8134 15.9884 44.4307 15.0644 43.7501 14.3838C43.0695 13.7032 42.1455 13.3205 41.1827 13.3205H39.9693V12.1095C39.9693 11.441 39.4268 10.8984 38.7583 10.8984C38.0898 10.8984 37.5472 11.441 37.5472 12.1095V13.3205Z" fill="#283760"/>
</g>
</g>
</g>
</svg>
