<svg width="44" height="41" viewBox="0 0 44 41" fill="none" xmlns="http://www.w3.org/2000/svg">
<path id="Vector" d="M19.2904 0.765625C17.3147 0.765625 15.6793 2.39131 15.6793 4.35537V9.9964H4.84598C2.30015 9.9964 0.203125 12.081 0.203125 14.6118V36.1502C0.203125 38.681 2.30015 40.7656 4.84598 40.7656H38.8936C41.4394 40.7656 43.5365 38.681 43.5365 36.1502V14.6118C43.5365 12.081 41.4394 9.9964 38.8936 9.9964H28.0603V4.35537C28.0603 2.39131 26.4249 0.765625 24.4492 0.765625H19.2904ZM19.2904 3.84255H24.4492C24.7536 3.84255 24.965 4.05276 24.965 4.35537V12.5605C24.965 12.8631 24.7536 13.0733 24.4492 13.0733H19.2904C18.986 13.0733 18.7746 12.8631 18.7746 12.5605V4.35537C18.7746 4.05276 18.986 3.84255 19.2904 3.84255ZM4.84598 13.0733H15.7317C15.9885 14.7974 17.4913 16.1502 19.2904 16.1502H24.4492C26.2483 16.1502 27.7511 14.7974 28.0079 13.0733H38.8936C39.767 13.0733 40.4412 13.7436 40.4412 14.6118V36.1502C40.4412 37.0184 39.767 37.6887 38.8936 37.6887H4.84598C3.97261 37.6887 3.29836 37.0184 3.29836 36.1502V14.6118C3.29836 13.7436 3.97261 13.0733 4.84598 13.0733ZM12.5841 19.2272C11.7632 19.2272 10.9759 19.5513 10.3954 20.1284C9.81494 20.7054 9.48884 21.488 9.48884 22.3041C9.48884 23.1201 9.81494 23.9028 10.3954 24.4798C10.9759 25.0568 11.7632 25.381 12.5841 25.381C13.405 25.381 14.1923 25.0568 14.7727 24.4798C15.3532 23.9028 15.6793 23.1201 15.6793 22.3041C15.6793 21.488 15.3532 20.7054 14.7727 20.1284C14.1923 19.5513 13.405 19.2272 12.5841 19.2272ZM24.4492 21.2784C24.2441 21.2756 24.0405 21.3132 23.8502 21.3892C23.6599 21.4653 23.4866 21.5781 23.3406 21.7213C23.1945 21.8644 23.0786 22.035 22.9994 22.2231C22.9203 22.4112 22.8795 22.613 22.8795 22.8169C22.8795 23.0208 22.9203 23.2226 22.9994 23.4107C23.0786 23.5988 23.1945 23.7694 23.3406 23.9125C23.4866 24.0557 23.6599 24.1685 23.8502 24.2446C24.0405 24.3206 24.2441 24.3583 24.4492 24.3554H34.7666C34.9717 24.3583 35.1753 24.3206 35.3656 24.2446C35.5559 24.1685 35.7291 24.0557 35.8752 23.9125C36.0212 23.7694 36.1372 23.5988 36.2164 23.4107C36.2955 23.2226 36.3363 23.0208 36.3363 22.8169C36.3363 22.613 36.2955 22.4112 36.2164 22.2231C36.1372 22.035 36.0212 21.8644 35.8752 21.7213C35.7291 21.5781 35.5559 21.4653 35.3656 21.3892C35.1753 21.3132 34.9717 21.2756 34.7666 21.2784H24.4492ZM8.97297 27.4323C8.11868 27.4323 7.42535 28.1215 7.42535 28.9708C7.42535 30.5092 7.42575 33.5861 12.4813 33.5861H12.6868C17.7424 33.5861 17.7428 30.5092 17.7428 28.9708C17.7428 28.1215 17.0495 27.4323 16.1952 27.4323H8.97297ZM24.4492 28.4579C24.2441 28.4551 24.0405 28.4927 23.8502 28.5687C23.6599 28.6448 23.4866 28.7576 23.3406 28.9008C23.1945 29.0439 23.0786 29.2145 22.9994 29.4026C22.9203 29.5907 22.8795 29.7925 22.8795 29.9964C22.8795 30.2003 22.9203 30.4021 22.9994 30.5902C23.0786 30.7783 23.1945 30.9489 23.3406 31.092C23.4866 31.2352 23.6599 31.348 23.8502 31.4241C24.0405 31.5001 24.2441 31.5377 24.4492 31.5349H34.7666C34.9717 31.5377 35.1753 31.5001 35.3656 31.4241C35.5559 31.348 35.7291 31.2352 35.8752 31.092C36.0212 30.9489 36.1372 30.7783 36.2164 30.5902C36.2955 30.4021 36.3363 30.2003 36.3363 29.9964C36.3363 29.7925 36.2955 29.5907 36.2164 29.4026C36.1372 29.2145 36.0212 29.0439 35.8752 28.9008C35.7291 28.7576 35.5559 28.6448 35.3656 28.5687C35.1753 28.4927 34.9717 28.4551 34.7666 28.4579H24.4492Z" fill="#283760"/>
</svg>
