<svg width="71" height="76" viewBox="0 0 71 76" fill="none" xmlns="http://www.w3.org/2000/svg">
<path id="Vector" d="M35.2558 0.588867C15.8152 0.588867 0 17.3548 0 37.9641C0 58.5735 15.8152 75.3394 35.2558 75.3394C54.6964 75.3394 70.5115 58.5735 70.5115 37.9641C70.5115 17.3548 54.6964 0.588867 35.2558 0.588867ZM35.2558 6.81808C51.5175 6.81808 64.6356 20.7248 64.6356 37.9641C64.6356 55.2035 51.5175 69.1102 35.2558 69.1102C18.994 69.1102 5.87596 55.2035 5.87596 37.9641C5.87596 20.7248 18.994 6.81808 35.2558 6.81808ZM35.3468 12.5614C31.8897 12.642 28.5997 14.1536 26.1805 16.773C23.7613 19.3923 22.4051 22.9113 22.4021 26.5771V30.3738C22.4021 31.0279 22.8839 31.5387 23.5038 31.5387H26.2597C26.4044 31.5404 26.548 31.5114 26.682 31.4534C26.816 31.3955 26.9378 31.3097 27.0402 31.2012C27.1425 31.0927 27.2234 30.9637 27.278 30.8216C27.3327 30.6795 27.3601 30.5273 27.3585 30.3738V26.574C27.3585 21.8305 30.79 17.7908 35.2558 17.6226C39.9507 17.4389 43.8876 21.4412 43.8876 26.3809V30.3707C43.8876 31.0279 44.3694 31.5418 44.9893 31.5418H47.6511C47.7966 31.5439 47.941 31.515 48.0758 31.4569C48.2105 31.3988 48.3329 31.3125 48.4356 31.2033C48.5384 31.0941 48.6194 30.9641 48.6739 30.8211C48.7284 30.6781 48.7552 30.525 48.7529 30.3707V26.7702C48.7529 18.937 42.7388 12.4119 35.3468 12.5614ZM18.9147 32.8064C17.5603 32.8064 16.4351 33.8996 16.4351 35.3354V55.4838C16.4351 56.9165 17.5603 58.016 18.9147 58.016H52.1492C53.5006 58.016 54.6288 56.9196 54.6288 55.4838V35.3354C54.6288 33.9027 53.5036 32.8064 52.1492 32.8064H18.9147ZM19.373 35.3354H20.4748C20.6203 35.3378 20.7592 35.4004 20.8618 35.5098C20.9644 35.6192 21.0227 35.7667 21.0242 35.921V54.9979C21.0219 55.1516 20.9633 55.2984 20.8608 55.4071C20.7582 55.5158 20.6198 55.5779 20.4748 55.5803H19.373C19.2275 55.5787 19.0884 55.517 18.9852 55.4082C18.882 55.2994 18.823 55.1522 18.8207 54.9979V35.921C18.8222 35.7662 18.8809 35.6182 18.9842 35.5087C19.0874 35.3992 19.227 35.337 19.373 35.3354ZM35.4409 37.8676C38.0204 37.8676 40.1211 40.0945 40.1211 42.8323C40.1272 43.6969 39.9184 44.5479 39.5155 45.2998C39.1127 46.0516 38.5301 46.6776 37.8265 47.1148V51.7868C37.8265 52.4657 37.2742 52.9547 36.6337 52.9547H34.2451C33.6017 52.9547 33.0523 52.4657 33.0523 51.7868V47.1148C32.3486 46.6776 31.7661 46.0516 31.3633 45.2998C30.9604 44.5479 30.7516 43.6969 30.7577 42.8323C30.7577 40.0914 32.8584 37.8676 35.4409 37.8676Z" fill="#7193AC"/>
</svg>
