<svg width="100%" height="283" viewBox="0 0 514 283" fill="none" xmlns="http://www.w3.org/2000/svg">
<g filter="url(#filter0_d_2_6111)">
<rect x="54" y="-126" width="321" height="265.476" rx="26.027" fill="white"/>
<rect x="55.2562" y="-124.744" width="318.488" height="262.963" rx="24.7708" stroke="#DADADA" stroke-width="2.51248"/>
</g>
<path d="M347.238 108.408C347.238 110.64 290.861 96.2814 219.915 96.2814C148.968 96.2814 83.4971 110.64 83.4971 108.408C83.4971 106.175 148.968 90.8918 219.915 90.8918C290.861 90.8918 347.238 106.175 347.238 108.408Z" fill="#F8A801"/>
<path d="M103.614 53.8659C103.614 50.4069 104.362 47.3304 105.859 44.6364C107.355 41.9091 109.434 39.7971 112.095 38.3004C114.789 36.7705 117.832 36.0055 121.225 36.0055C125.382 36.0055 128.941 37.1031 131.901 39.2982C134.861 41.4933 136.84 44.4867 137.838 48.2783H128.459C127.76 46.8149 126.762 45.7007 125.465 44.9357C124.201 44.1707 122.755 43.7883 121.125 43.7883C118.497 43.7883 116.369 44.7029 114.739 46.5322C113.109 48.3615 112.294 50.806 112.294 53.8659C112.294 56.9258 113.109 59.3704 114.739 61.1997C116.369 63.0289 118.497 63.9436 121.125 63.9436C122.755 63.9436 124.201 63.5611 125.465 62.7961C126.762 62.0312 127.76 60.917 128.459 59.4535H137.838C136.84 63.2451 134.861 66.2385 131.901 68.4336C128.941 70.5955 125.382 71.6764 121.225 71.6764C117.832 71.6764 114.789 70.9281 112.095 69.4314C109.434 67.9015 107.355 65.7895 105.859 63.0955C104.362 60.4014 103.614 57.3249 103.614 53.8659ZM141.366 57.458C141.366 54.5976 141.898 52.0865 142.962 49.9247C144.06 47.7628 145.54 46.0998 147.403 44.9357C149.265 43.7716 151.344 43.1896 153.639 43.1896C155.601 43.1896 157.314 43.5887 158.777 44.3869C160.274 45.1852 161.422 46.2328 162.22 47.53V43.5887H170.751V71.427H162.22V67.4857C161.388 68.7829 160.224 69.8305 158.728 70.6288C157.264 71.427 155.551 71.8261 153.589 71.8261C151.327 71.8261 149.265 71.2441 147.403 70.08C145.54 68.8826 144.06 67.203 142.962 65.0412C141.898 62.846 141.366 60.3183 141.366 57.458ZM162.22 57.5079C162.22 55.3792 161.621 53.6996 160.424 52.469C159.26 51.2384 157.829 50.6231 156.133 50.6231C154.437 50.6231 152.99 51.2384 151.793 52.469C150.629 53.6664 150.047 55.3293 150.047 57.458C150.047 59.5866 150.629 61.2828 151.793 62.5467C152.99 63.7773 154.437 64.3926 156.133 64.3926C157.829 64.3926 159.26 63.7773 160.424 62.5467C161.621 61.3161 162.22 59.6365 162.22 57.5079ZM188.248 71.8261C185.82 71.8261 183.658 71.4104 181.762 70.5789C179.866 69.7474 178.37 68.6166 177.272 67.1864C176.174 65.723 175.559 64.0933 175.426 62.2972H183.857C183.957 63.2618 184.406 64.0434 185.204 64.642C186.003 65.2407 186.984 65.54 188.148 65.54C189.212 65.54 190.027 65.3405 190.592 64.9414C191.191 64.509 191.49 63.9602 191.49 63.295C191.49 62.4968 191.075 61.9148 190.243 61.5489C189.412 61.1498 188.065 60.7174 186.202 60.2518C184.207 59.7861 182.544 59.3039 181.213 58.805C179.883 58.2728 178.735 57.458 177.771 56.3604C176.806 55.2296 176.324 53.7163 176.324 51.8205C176.324 50.224 176.756 48.7772 177.621 47.4801C178.519 46.1497 179.816 45.102 181.513 44.337C183.242 43.5721 185.288 43.1896 187.649 43.1896C191.141 43.1896 193.885 44.0543 195.881 45.7838C197.91 47.5133 199.074 49.8082 199.373 52.6686H191.49C191.357 51.704 190.925 50.9391 190.193 50.3737C189.495 49.8082 188.564 49.5255 187.4 49.5255C186.402 49.5255 185.637 49.7251 185.105 50.1242C184.572 50.4901 184.306 51.0056 184.306 51.6708C184.306 52.469 184.722 53.0677 185.554 53.4668C186.418 53.8659 187.749 54.265 189.545 54.6642C191.607 55.1963 193.286 55.7285 194.584 56.2606C195.881 56.7595 197.012 57.591 197.976 58.7551C198.974 59.8859 199.489 61.4159 199.523 63.3449C199.523 64.9746 199.057 66.4381 198.126 67.7352C197.228 68.999 195.914 69.9968 194.184 70.7285C192.488 71.4603 190.509 71.8261 188.248 71.8261ZM221.854 43.2894C225.047 43.2894 227.608 44.3537 229.537 46.4823C231.466 48.5776 232.431 51.4712 232.431 55.163V71.427H223.949V56.3105C223.949 54.448 223.467 53.0012 222.503 51.9701C221.538 50.9391 220.241 50.4236 218.611 50.4236C216.981 50.4236 215.684 50.9391 214.72 51.9701C213.755 53.0012 213.273 54.448 213.273 56.3105V71.427H204.742V34.5088H213.273V47.3304C214.138 46.0998 215.318 45.1186 216.815 44.3869C218.312 43.6552 219.991 43.2894 221.854 43.2894ZM286.552 36.4046L277.422 71.427H267.095L261.508 48.3781L255.72 71.427H245.393L236.513 36.4046H245.643L250.682 61.8981L256.918 36.4046H266.297L272.284 61.8981L277.372 36.4046H286.552ZM295.121 40.6951C293.624 40.6951 292.394 40.2627 291.429 39.398C290.498 38.5 290.032 37.4024 290.032 36.1053C290.032 34.7749 290.498 33.6773 291.429 32.8126C292.394 31.9146 293.624 31.4656 295.121 31.4656C296.584 31.4656 297.782 31.9146 298.713 32.8126C299.677 33.6773 300.16 34.7749 300.16 36.1053C300.16 37.4024 299.677 38.5 298.713 39.398C297.782 40.2627 296.584 40.6951 295.121 40.6951ZM299.362 43.5887V71.427H290.83V43.5887H299.362ZM313.526 64.3926H325.599V71.427H303.997V64.642L315.572 50.6231H304.097V43.5887H325.35V50.3737L313.526 64.3926Z" fill="#233664"/>
<defs>
<filter id="filter0_d_2_6111" x="-84.8108" y="-261.042" width="598.622" height="543.097" filterUnits="userSpaceOnUse" color-interpolation-filters="sRGB">
<feFlood flood-opacity="0" result="BackgroundImageFix"/>
<feColorMatrix in="SourceAlpha" type="matrix" values="0 0 0 0 0 0 0 0 0 0 0 0 0 0 0 0 0 0 127 0" result="hardAlpha"/>
<feOffset dy="3.76871"/>
<feGaussianBlur stdDeviation="69.4054"/>
<feComposite in2="hardAlpha" operator="out"/>
<feColorMatrix type="matrix" values="0 0 0 0 0.216667 0 0 0 0 0.216667 0 0 0 0 0.216667 0 0 0 0.04 0"/>
<feBlend mode="normal" in2="BackgroundImageFix" result="effect1_dropShadow_2_6111"/>
<feBlend mode="normal" in="SourceGraphic" in2="effect1_dropShadow_2_6111" result="shape"/>
</filter>
</defs>
</svg>
