<svg width="24" height="40" viewBox="0 0 24 40" fill="none" xmlns="http://www.w3.org/2000/svg">
<path id="Vector" d="M4.50781 0C2.04031 0 0.0078125 2.0325 0.0078125 4.5V35.5C0.0078125 37.9675 2.04031 40 4.50781 40H19.5078C21.9753 40 24.0078 37.9675 24.0078 35.5V4.5C24.0078 2.0325 21.9753 0 19.5078 0H4.50781ZM4.50781 3H19.5078C20.3543 3 21.0078 3.6535 21.0078 4.5V35.5C21.0078 36.3465 20.3543 37 19.5078 37H4.50781C3.66131 37 3.00781 36.3465 3.00781 35.5V4.5C3.00781 3.6535 3.66131 3 4.50781 3ZM12.0078 6C11.61 6 11.2285 6.15804 10.9472 6.43934C10.6658 6.72064 10.5078 7.10218 10.5078 7.5C10.5078 7.89782 10.6658 8.27936 10.9472 8.56066C11.2285 8.84196 11.61 9 12.0078 9C12.4056 9 12.7872 8.84196 13.0685 8.56066C13.3498 8.27936 13.5078 7.89782 13.5078 7.5C13.5078 7.10218 13.3498 6.72064 13.0685 6.43934C12.7872 6.15804 12.4056 6 12.0078 6ZM9.50781 31C9.30904 30.9972 9.1117 31.0339 8.92725 31.108C8.7428 31.1822 8.57491 31.2922 8.43336 31.4318C8.2918 31.5713 8.1794 31.7376 8.10268 31.921C8.02596 32.1044 7.98645 32.3012 7.98645 32.5C7.98645 32.6988 8.02596 32.8956 8.10268 33.079C8.1794 33.2624 8.2918 33.4287 8.43336 33.5682C8.57491 33.7078 8.7428 33.8178 8.92725 33.892C9.1117 33.9661 9.30904 34.0028 9.50781 34H14.5078C14.7066 34.0028 14.9039 33.9661 15.0884 33.892C15.2728 33.8178 15.4407 33.7078 15.5823 33.5682C15.7238 33.4287 15.8362 33.2624 15.9129 33.079C15.9897 32.8956 16.0292 32.6988 16.0292 32.5C16.0292 32.3012 15.9897 32.1044 15.9129 31.921C15.8362 31.7376 15.7238 31.5713 15.5823 31.4318C15.4407 31.2922 15.2728 31.1822 15.0884 31.108C14.9039 31.0339 14.7066 30.9972 14.5078 31H9.50781Z" fill="#283760"/>
</svg>
