<svg width="202" height="69" viewBox="0 0 202 69" fill="none" xmlns="http://www.w3.org/2000/svg">
<path id="Vector" d="M104.632 22.0013C104.517 31.4381 112.696 36.7039 118.858 39.8351C125.188 43.0473 127.315 45.1074 127.289 47.9804C127.242 52.3768 122.24 54.3173 117.559 54.3927C109.392 54.5246 104.643 52.0933 100.868 50.2544L97.9263 64.6105C101.714 66.4305 108.727 68.0177 116 68.0874C133.071 68.0874 144.24 59.2996 144.3 45.6745C144.367 28.3824 121.364 27.4252 121.522 19.6961C121.576 17.3525 123.72 14.8515 128.419 14.2156C130.745 13.8944 137.166 13.6486 144.446 17.1444L147.303 3.25461C143.388 1.76812 138.357 0.344727 132.092 0.344727C116.024 0.344727 104.723 9.25219 104.632 22.0013ZM174.757 1.54113C171.64 1.54113 169.013 3.43735 167.841 6.34723L143.455 67.0672H160.514L163.909 57.2837H184.754L186.723 67.0672H201.759L188.638 1.54113H174.757ZM177.144 19.2422L182.067 43.8479H168.584L177.144 19.2422ZM83.9485 1.54195L70.5018 67.0664H86.7577L100.198 1.54031H83.9485M59.9006 1.54031L42.9807 46.1408L36.1363 8.21886C35.3333 3.98557 32.1618 1.54113 28.6398 1.54113H0.98115L0.59375 3.4439C6.27195 4.72881 12.7234 6.80121 16.632 9.01865C19.0239 10.3732 19.706 11.5573 20.4918 14.7761L33.4552 67.0672H50.6336L76.9705 1.54113H59.9006" fill="url(#paint0_linear_120_4094)"/>
<defs>
<linearGradient id="paint0_linear_120_4094" x1="93.0775" y1="69.4463" x2="95.1222" y2="-0.121569" gradientUnits="userSpaceOnUse">
<stop offset="0.9999" stop-color="#7193AC"/>
<stop offset="1" stop-color="#254AA5" stop-opacity="0"/>
</linearGradient>
</defs>
</svg>
