<svg width="58" height="58" viewBox="0 0 58 58" fill="none" xmlns="http://www.w3.org/2000/svg">
<g id="Whatsapp">
<path id="Vector" d="M55.5097 16.4909C54.0532 13.2726 51.9625 10.3832 49.308 7.89308C46.6535 5.42649 43.5761 3.47671 40.1464 2.11422C36.5992 0.704739 32.8406 0 28.9645 0C25.0884 0 21.3298 0.704739 17.7826 2.11422C14.3529 3.47671 11.2755 5.403 8.62101 7.89308C5.96649 10.3832 3.87579 13.2726 2.41933 16.4909C0.915884 19.8267 0.140625 23.3973 0.140625 27.062C0.140625 33.4751 2.53671 39.6298 6.92959 44.516L4.58046 57.3188L17.0779 51.7513C20.813 53.3487 24.783 54.1474 28.941 54.1474C32.817 54.1474 36.5757 53.4427 40.1229 52.0332C43.5526 50.6707 46.6299 48.7444 49.2845 46.2544C51.939 43.7643 54.0297 40.8749 55.4861 37.6565C56.9896 34.3208 57.7648 30.7501 57.7648 27.0855C57.7883 23.3973 57.0131 19.8501 55.5097 16.4909Z" fill="#25D366"/>
<path id="Vector_2" d="M40.66 32.4677C39.4385 31.8569 38.5459 31.4811 37.9116 31.2462C37.5123 31.1052 36.5726 30.6824 36.2437 30.9408C35.2101 31.7865 34.106 34.1826 32.9314 34.6289C30.0185 34.0651 27.317 32.0684 25.2028 30.0246C24.2631 29.132 22.5248 26.5949 22.1489 25.9136C22.0785 25.2089 23.3469 24.2693 23.6288 23.729C25.0853 22.0846 23.9812 21.0509 23.7933 20.3697C23.4644 19.665 22.9007 18.3964 22.4074 17.3628C21.9845 16.6816 21.8905 15.6714 21.1387 15.2956C17.9439 13.6512 16.1117 16.94 15.36 18.6548C10.8261 29.5783 38.076 50.3681 43.62 36.0384C43.9018 34.7934 43.7844 34.3235 43.3615 33.7597C42.5158 33.1725 41.5292 32.9141 40.66 32.4677Z" fill="white"/>
</g>
</svg>
