<svg width="96" height="251" viewBox="0 0 96 251" fill="none" xmlns="http://www.w3.org/2000/svg">
<path d="M72.0404 169.55V244.282C72.0404 247.708 69.2616 250.487 65.8356 250.487H24.1344C20.7085 250.487 17.9297 247.708 17.9297 244.282V169.55C17.9297 166.125 20.7085 163.346 24.1344 163.346H65.8356C69.2643 163.343 72.0404 166.122 72.0404 169.55Z" fill="#161616"/>
<path d="M18.7305 169.923C18.7305 166.524 21.4468 163.77 24.7993 163.77H65.5842C68.9367 163.77 71.653 166.524 71.653 169.923V244.026C71.653 247.425 68.9367 250.179 65.5842 250.179L18.7305 169.923Z" fill="#212121"/>
<path d="M26.1206 241.472L24.5898 242.004V242.298L26.1206 242.834L24.5898 243.212V243.652L26.7324 242.991V242.673L25.2533 242.151L26.7324 241.629V241.311L24.5898 240.65V241.091L26.1206 241.472Z" fill="#9E9E9E"/>
<path d="M24.6713 238.94C24.5979 239.074 24.5625 239.231 24.5625 239.416C24.5625 239.601 24.5979 239.761 24.6713 239.892C24.7447 240.025 24.848 240.126 24.9866 240.194C25.1253 240.264 25.2912 240.297 25.4842 240.297H25.8322C26.028 240.297 26.1966 240.262 26.338 240.194C26.4767 240.123 26.5854 240.022 26.6561 239.892C26.7295 239.759 26.7649 239.601 26.7649 239.416C26.7649 239.231 26.7295 239.071 26.6561 238.94C26.5827 238.807 26.4767 238.706 26.338 238.638C26.1993 238.568 26.0335 238.535 25.8377 238.535H25.4815C25.2885 238.535 25.1226 238.571 24.9839 238.638C24.848 238.706 24.742 238.807 24.6713 238.94ZM25.8404 238.954C26.0063 238.954 26.1368 238.995 26.2292 239.074C26.3217 239.155 26.3679 239.269 26.3679 239.416C26.3679 239.563 26.3217 239.677 26.2292 239.759C26.1368 239.84 26.009 239.878 25.8404 239.878H25.4842C25.3184 239.878 25.1879 239.838 25.0981 239.759C25.0084 239.677 24.9622 239.566 24.9622 239.416C24.9622 239.267 25.0084 239.155 25.0981 239.074C25.1879 238.992 25.3184 238.954 25.4842 238.954H25.8404Z" fill="#9E9E9E"/>
<path d="M24.5625 236.957C24.5625 237.085 24.5979 237.199 24.6685 237.306C24.7256 237.39 24.799 237.46 24.8942 237.518H24.5951V237.939H26.7377V237.518H25.3809C25.2504 237.518 25.1471 237.48 25.0737 237.406C25.0003 237.333 24.9622 237.229 24.9622 237.096C24.9622 237.023 24.9731 236.957 24.9975 236.9C25.022 236.843 25.0546 236.797 25.1009 236.759L24.7284 236.484C24.674 236.544 24.6305 236.612 24.6033 236.691C24.5761 236.77 24.5625 236.86 24.5625 236.957Z" fill="#9E9E9E"/>
<path d="M26.3011 235.676C26.2739 235.697 26.2331 235.711 26.1815 235.711H23.7344V236.132H26.1787C26.3582 236.132 26.4996 236.089 26.5975 236.002C26.6954 235.915 26.747 235.79 26.747 235.632V235.385H26.3473V235.583C26.3446 235.621 26.331 235.654 26.3011 235.676Z" fill="#9E9E9E"/>
<path d="M24.8612 233.699C24.7742 233.756 24.7062 233.827 24.6519 233.911C24.5866 234.017 24.554 234.131 24.554 234.259C24.554 234.411 24.5893 234.539 24.6573 234.648C24.7253 234.756 24.8259 234.838 24.9564 234.895C25.0869 234.952 25.2446 234.979 25.4295 234.979H25.9026C26.0848 234.979 26.2425 234.95 26.373 234.892C26.5035 234.835 26.6041 234.751 26.6721 234.64C26.7401 234.528 26.7754 234.395 26.7754 234.237C26.7754 234.096 26.7401 233.976 26.6694 233.878C26.6123 233.799 26.5416 233.74 26.4627 233.699H26.7401V233.277H23.7383V233.699H24.8612ZM25.9434 233.699C26.0358 233.699 26.1147 233.715 26.1799 233.748C26.2452 233.78 26.2969 233.829 26.3322 233.892C26.3676 233.954 26.3839 234.03 26.3839 234.12C26.3839 234.259 26.3404 234.368 26.2561 234.444C26.1718 234.52 26.0521 234.558 25.8971 234.558H25.4295C25.2718 234.558 25.1494 234.52 25.0652 234.444C24.9781 234.368 24.9346 234.259 24.9346 234.12C24.9346 234.03 24.9509 233.954 24.9863 233.892C25.0189 233.829 25.0679 233.78 25.1331 233.748C25.1984 233.715 25.2745 233.699 25.367 233.699H25.9434Z" fill="#9E9E9E"/>
<path d="M24.6643 231.256C24.5963 231.364 24.561 231.492 24.561 231.644C24.561 231.772 24.5963 231.889 24.6643 231.992C24.7187 232.074 24.7921 232.145 24.8818 232.202H23.7344V232.623H26.7362V232.202H26.4588C26.5458 232.156 26.6192 232.093 26.6709 232.011C26.7362 231.914 26.7661 231.797 26.7661 231.663C26.7661 231.508 26.7307 231.375 26.6627 231.264C26.5948 231.152 26.4969 231.068 26.3664 231.011C26.2359 230.954 26.0809 230.924 25.8987 230.924H25.431C25.2461 230.924 25.0884 230.951 24.9579 231.008C24.8301 231.065 24.7323 231.147 24.6643 231.256ZM25.9014 231.345C26.0564 231.345 26.176 231.383 26.2603 231.459C26.3446 231.536 26.3881 231.644 26.3881 231.783C26.3881 231.873 26.3718 231.949 26.3365 232.011C26.3011 232.074 26.2522 232.123 26.1869 232.156C26.1217 232.188 26.0428 232.204 25.9504 232.204H25.3658C25.276 232.204 25.1999 232.188 25.1347 232.156C25.0694 232.123 25.0232 232.074 24.9878 232.011C24.9552 231.949 24.9389 231.873 24.9389 231.783C24.9389 231.644 24.9824 231.536 25.0694 231.459C25.1564 231.383 25.2788 231.345 25.4337 231.345H25.9014Z" fill="#9E9E9E"/>
<path d="M24.6577 229.116C24.5951 229.244 24.5625 229.393 24.5625 229.573C24.5625 229.736 24.5897 229.883 24.644 230.016C24.6984 230.149 24.7746 230.255 24.8725 230.337L25.0818 230.029C25.0356 229.967 24.9975 229.893 24.9731 229.812C24.9459 229.73 24.935 229.646 24.935 229.562C24.935 229.423 24.973 229.317 25.0519 229.244C25.1307 229.167 25.2395 229.132 25.3782 229.132H25.4679V229.722C25.4679 229.964 25.5196 230.146 25.6256 230.266C25.7317 230.386 25.8894 230.445 26.1015 230.445C26.3244 230.445 26.4903 230.38 26.599 230.25C26.7078 230.119 26.7622 229.921 26.7622 229.657C26.7622 229.567 26.754 229.488 26.735 229.415C26.7159 229.344 26.6887 229.282 26.6507 229.227C26.6262 229.192 26.5963 229.162 26.5637 229.132H26.7323V228.732H25.3564C25.1878 228.732 25.0465 228.765 24.9268 228.83C24.8099 228.893 24.7202 228.991 24.6577 229.116ZM26.2129 229.129C26.2863 229.129 26.3407 229.17 26.3734 229.249C26.4087 229.328 26.425 229.448 26.425 229.608C26.425 229.755 26.3978 229.866 26.3461 229.937C26.2945 230.01 26.2129 230.046 26.1041 230.046C26.0035 230.046 25.9301 230.018 25.8812 229.964C25.8323 229.91 25.8078 229.828 25.8078 229.717V229.129H26.2129Z" fill="#9E9E9E"/>
<path d="M24.5625 227.086C24.5625 227.217 24.5979 227.334 24.6685 227.44C24.7256 227.524 24.799 227.597 24.8942 227.654H24.5951V228.076H26.7377V227.654H25.3809C25.2477 227.654 25.1471 227.616 25.0737 227.543C25.0003 227.467 24.9649 227.361 24.9649 227.225C24.9649 227.083 25.0057 226.972 25.09 226.896C25.1715 226.817 25.2885 226.779 25.4407 226.779H26.7377V226.357H25.438C25.1607 226.357 24.9459 226.42 24.7936 226.548C24.6386 226.673 24.5625 226.852 24.5625 227.086Z" fill="#9E9E9E"/>
<path d="M25.3984 224.655L24.5909 223.937V224.435L25.6322 225.297H23.7344V225.718H26.7334V225.297H26.1217L25.6948 224.919L26.7334 224.291V223.834L25.3984 224.655Z" fill="#9E9E9E"/>
<path d="M42.6048 230.469V238.536C42.6048 239.322 41.9685 239.958 41.1827 239.958H35.4728C34.6871 239.958 34.0508 239.322 34.0508 238.536V230.469C34.0508 229.683 34.6871 229.047 35.4728 229.047H41.1827C41.9685 229.05 42.6048 229.686 42.6048 230.469Z" fill="#FBC02D"/>
<path d="M41.6625 236.566V239.886H41.5157V236.716H35.2511V239.854H35.1016V236.566H41.6625Z" fill="#161616"/>
<path d="M41.6664 229.161V232.448H35.1055V229.131H35.255V232.301H41.5196V229.161H41.6664Z" fill="#161616"/>
<path d="M38.4203 229.047H38.2734V239.958H38.4203V229.047Z" fill="#161616"/>
<path d="M54.5808 236.434C54.4177 236.646 54.1866 236.75 53.8929 236.75H52.3975C52.1011 236.75 51.8727 236.644 51.7096 236.431C51.5464 236.219 51.4648 235.909 51.4648 235.504C51.4648 235.096 51.5464 234.786 51.7096 234.577C51.8727 234.365 52.1038 234.262 52.4002 234.262H53.8956C54.192 234.262 54.4204 234.368 54.5835 234.58C54.7467 234.792 54.8282 235.102 54.8282 235.507C54.8282 235.912 54.7467 236.222 54.5808 236.434ZM54.26 235.026C54.1757 234.922 54.0533 234.871 53.8929 234.871H52.3975C52.2371 234.871 52.1147 234.922 52.0304 235.023C51.9461 235.126 51.9026 235.284 51.9026 235.504C51.9026 235.722 51.9461 235.882 52.0304 235.986C52.1147 236.089 52.2371 236.138 52.3975 236.138H53.8929C54.0533 236.138 54.1757 236.086 54.26 235.983C54.3443 235.88 54.3878 235.719 54.3878 235.504C54.3878 235.29 54.347 235.129 54.26 235.026Z" fill="#9E9E9E"/>
<path d="M54.5808 233.165C54.4177 233.377 54.1866 233.48 53.8929 233.48H52.3975C52.1011 233.48 51.8727 233.374 51.7096 233.162C51.5464 232.95 51.4648 232.64 51.4648 232.235C51.4648 231.827 51.5464 231.517 51.7096 231.308C51.8727 231.096 52.1038 230.992 52.4002 230.992H53.8956C54.192 230.992 54.4204 231.098 54.5835 231.31C54.7467 231.522 54.8282 231.832 54.8282 232.237C54.8282 232.645 54.7467 232.953 54.5808 233.165ZM54.26 231.759C54.1757 231.656 54.0533 231.604 53.8929 231.604H52.3975C52.2371 231.604 52.1147 231.656 52.0304 231.756C51.9461 231.86 51.9026 232.017 51.9026 232.237C51.9026 232.455 51.9461 232.615 52.0304 232.719C52.1147 232.819 52.2371 232.871 52.3975 232.871H53.8929C54.0533 232.871 54.1757 232.819 54.26 232.716C54.3443 232.613 54.3878 232.452 54.3878 232.237C54.3878 232.02 54.347 231.86 54.26 231.759Z" fill="#9E9E9E"/>
<path d="M54.5808 229.88C54.4177 230.092 54.1866 230.195 53.8929 230.195H52.3975C52.1011 230.195 51.8727 230.089 51.7096 229.877C51.5464 229.665 51.4648 229.355 51.4648 228.95C51.4648 228.542 51.5464 228.232 51.7096 228.022C51.8727 227.81 52.1038 227.707 52.4002 227.707H53.8956C54.192 227.707 54.4204 227.813 54.5835 228.025C54.7467 228.237 54.8282 228.547 54.8282 228.952C54.8282 229.36 54.7467 229.67 54.5808 229.88ZM54.26 228.474C54.1757 228.37 54.0533 228.319 53.8929 228.319H52.3975C52.2371 228.319 52.1147 228.37 52.0304 228.471C51.9461 228.574 51.9026 228.732 51.9026 228.952C51.9026 229.17 51.9461 229.33 52.0304 229.434C52.1147 229.537 52.2371 229.586 52.3975 229.586H53.8929C54.0533 229.586 54.1757 229.534 54.26 229.431C54.3443 229.328 54.3878 229.167 54.3878 228.952C54.3878 228.738 54.347 228.577 54.26 228.474Z" fill="#9E9E9E"/>
<path d="M54.5808 226.61C54.4177 226.822 54.1866 226.925 53.8929 226.925H52.3975C52.1011 226.925 51.8727 226.819 51.7096 226.607C51.5464 226.395 51.4648 226.085 51.4648 225.68C51.4648 225.272 51.5464 224.962 51.7096 224.753C51.8727 224.541 52.1038 224.438 52.4002 224.438H53.8956C54.192 224.438 54.4204 224.544 54.5835 224.756C54.7467 224.968 54.8282 225.278 54.8282 225.683C54.8282 226.088 54.7467 226.398 54.5808 226.61ZM54.26 225.202C54.1757 225.098 54.0533 225.047 53.8929 225.047H52.3975C52.2371 225.047 52.1147 225.098 52.0304 225.199C51.9461 225.302 51.9026 225.46 51.9026 225.68C51.9026 225.898 51.9461 226.058 52.0304 226.161C52.1147 226.265 52.2371 226.314 52.3975 226.314H53.8929C54.0533 226.314 54.1757 226.262 54.26 226.159C54.3443 226.055 54.3878 225.895 54.3878 225.68C54.3878 225.465 54.347 225.305 54.26 225.202Z" fill="#9E9E9E"/>
<path d="M54.5808 219.309C54.4177 219.521 54.1866 219.625 53.8929 219.625H52.3975C52.1011 219.625 51.8727 219.519 51.7096 219.306C51.5464 219.094 51.4648 218.784 51.4648 218.379C51.4648 217.971 51.5464 217.661 51.7096 217.452C51.8727 217.24 52.1038 217.137 52.4002 217.137H53.8956C54.192 217.137 54.4204 217.243 54.5835 217.455C54.7467 217.667 54.8282 217.977 54.8282 218.382C54.8282 218.79 54.7467 219.1 54.5808 219.309ZM54.26 217.903C54.1757 217.8 54.0533 217.748 53.8929 217.748H52.3975C52.2371 217.748 52.1147 217.8 52.0304 217.901C51.9461 218.004 51.9026 218.162 51.9026 218.382C51.9026 218.6 51.9461 218.76 52.0304 218.863C52.1147 218.967 52.2371 219.016 52.3975 219.016H53.8929C54.0533 219.016 54.1757 218.964 54.26 218.861C54.3443 218.757 54.3878 218.597 54.3878 218.382C54.3878 218.165 54.347 218.007 54.26 217.903Z" fill="#9E9E9E"/>
<path d="M54.5808 216.038C54.4177 216.25 54.1866 216.353 53.8929 216.353H52.3975C52.1011 216.353 51.8727 216.247 51.7096 216.035C51.5464 215.823 51.4648 215.513 51.4648 215.108C51.4648 214.7 51.5464 214.39 51.7096 214.181C51.8727 213.969 52.1038 213.865 52.4002 213.865H53.8956C54.192 213.865 54.4204 213.971 54.5835 214.183C54.7467 214.395 54.8282 214.705 54.8282 215.111C54.8282 215.516 54.7467 215.826 54.5808 216.038ZM54.26 214.629C54.1757 214.526 54.0533 214.474 53.8929 214.474H52.3975C52.2371 214.474 52.1147 214.526 52.0304 214.627C51.9461 214.73 51.9026 214.888 51.9026 215.108C51.9026 215.325 51.9461 215.486 52.0304 215.589C52.1147 215.69 52.2371 215.741 52.3975 215.741H53.8929C54.0533 215.741 54.1757 215.69 54.26 215.586C54.3443 215.483 54.3878 215.323 54.3878 215.108C54.3878 214.893 54.347 214.733 54.26 214.629Z" fill="#9E9E9E"/>
<path d="M54.5808 212.768C54.4177 212.98 54.1866 213.084 53.8929 213.084H52.3975C52.1011 213.084 51.8727 212.978 51.7096 212.765C51.5464 212.553 51.4648 212.243 51.4648 211.838C51.4648 211.43 51.5464 211.12 51.7096 210.911C51.8727 210.699 52.1038 210.596 52.4002 210.596H53.8956C54.192 210.596 54.4204 210.702 54.5835 210.914C54.7467 211.126 54.8282 211.436 54.8282 211.841C54.8282 212.249 54.7467 212.556 54.5808 212.768ZM54.26 211.362C54.1757 211.259 54.0533 211.207 53.8929 211.207H52.3975C52.2371 211.207 52.1147 211.259 52.0304 211.36C51.9461 211.463 51.9026 211.621 51.9026 211.841C51.9026 212.059 51.9461 212.219 52.0304 212.322C52.1147 212.426 52.2371 212.475 52.3975 212.475H53.8929C54.0533 212.475 54.1757 212.423 54.26 212.32C54.3443 212.216 54.3878 212.056 54.3878 211.841C54.3878 211.623 54.347 211.463 54.26 211.362Z" fill="#9E9E9E"/>
<path d="M54.5808 209.491C54.4177 209.703 54.1866 209.806 53.8929 209.806H52.3975C52.1011 209.806 51.8727 209.7 51.7096 209.488C51.5464 209.276 51.4648 208.966 51.4648 208.561C51.4648 208.153 51.5464 207.843 51.7096 207.634C51.8727 207.422 52.1038 207.318 52.4002 207.318H53.8956C54.192 207.318 54.4204 207.424 54.5835 207.636C54.7467 207.849 54.8282 208.159 54.8282 208.564C54.8282 208.972 54.7467 209.281 54.5808 209.491ZM54.26 208.085C54.1757 207.982 54.0533 207.93 53.8929 207.93H52.3975C52.2371 207.93 52.1147 207.982 52.0304 208.082C51.9461 208.186 51.9026 208.343 51.9026 208.564C51.9026 208.781 51.9461 208.942 52.0304 209.045C52.1147 209.148 52.2371 209.197 52.3975 209.197H53.8929C54.0533 209.197 54.1757 209.146 54.26 209.042C54.3443 208.939 54.3878 208.778 54.3878 208.564C54.3878 208.346 54.347 208.188 54.26 208.085Z" fill="#9E9E9E"/>
<path d="M54.5808 202.803C54.4177 203.015 54.1866 203.119 53.8929 203.119H52.3975C52.1011 203.119 51.8727 203.013 51.7096 202.801C51.5464 202.589 51.4648 202.279 51.4648 201.873C51.4648 201.466 51.5464 201.156 51.7096 200.946C51.8727 200.734 52.1038 200.631 52.4002 200.631H53.8956C54.192 200.631 54.4204 200.737 54.5835 200.949C54.7467 201.161 54.8282 201.471 54.8282 201.876C54.8282 202.284 54.7467 202.591 54.5808 202.803ZM54.26 201.398C54.1757 201.294 54.0533 201.243 53.8929 201.243H52.3975C52.2371 201.243 52.1147 201.294 52.0304 201.395C51.9461 201.495 51.9026 201.656 51.9026 201.876C51.9026 202.094 51.9461 202.254 52.0304 202.357C52.1147 202.461 52.2371 202.51 52.3975 202.51H53.8929C54.0533 202.51 54.1757 202.458 54.26 202.355C54.3443 202.251 54.3878 202.091 54.3878 201.876C54.3878 201.659 54.347 201.498 54.26 201.398Z" fill="#9E9E9E"/>
<path d="M54.5808 199.546C54.4177 199.758 54.1866 199.861 53.8929 199.861H52.3975C52.1011 199.861 51.8727 199.755 51.7096 199.543C51.5464 199.331 51.4648 199.021 51.4648 198.616C51.4648 198.208 51.5464 197.898 51.7096 197.688C51.8727 197.476 52.1038 197.373 52.4002 197.373H53.8956C54.192 197.373 54.4204 197.479 54.5835 197.691C54.7467 197.903 54.8282 198.213 54.8282 198.618C54.8282 199.026 54.7467 199.336 54.5808 199.546ZM54.26 198.14C54.1757 198.036 54.0533 197.985 53.8929 197.985H52.3975C52.2371 197.985 52.1147 198.036 52.0304 198.137C51.9461 198.238 51.9026 198.398 51.9026 198.618C51.9026 198.836 51.9461 198.996 52.0304 199.1C52.1147 199.203 52.2371 199.252 52.3975 199.252H53.8929C54.0533 199.252 54.1757 199.2 54.26 199.097C54.3443 198.994 54.3878 198.833 54.3878 198.618C54.3878 198.401 54.347 198.243 54.26 198.14Z" fill="#9E9E9E"/>
<path d="M54.5808 196.268C54.4177 196.48 54.1866 196.584 53.8929 196.584H52.3975C52.1011 196.584 51.8727 196.478 51.7096 196.265C51.5464 196.053 51.4648 195.743 51.4648 195.338C51.4648 194.93 51.5464 194.62 51.7096 194.411C51.8727 194.199 52.1038 194.096 52.4002 194.096H53.8956C54.192 194.096 54.4204 194.202 54.5835 194.414C54.7467 194.626 54.8282 194.936 54.8282 195.341C54.8282 195.746 54.7467 196.056 54.5808 196.268ZM54.26 194.86C54.1757 194.756 54.0533 194.705 53.8929 194.705H52.3975C52.2371 194.705 52.1147 194.756 52.0304 194.857C51.9461 194.96 51.9026 195.118 51.9026 195.338C51.9026 195.556 51.9461 195.716 52.0304 195.82C52.1147 195.923 52.2371 195.972 52.3975 195.972H53.8929C54.0533 195.972 54.1757 195.92 54.26 195.817C54.3443 195.714 54.3878 195.553 54.3878 195.338C54.3878 195.123 54.347 194.963 54.26 194.86Z" fill="#9E9E9E"/>
<path d="M54.5808 192.993C54.4177 193.205 54.1866 193.308 53.8929 193.308H52.3975C52.1011 193.308 51.8727 193.202 51.7096 192.99C51.5464 192.778 51.4648 192.468 51.4648 192.063C51.4648 191.655 51.5464 191.345 51.7096 191.136C51.8727 190.924 52.1038 190.82 52.4002 190.82H53.8956C54.192 190.82 54.4204 190.926 54.5835 191.138C54.7467 191.351 54.8282 191.66 54.8282 192.066C54.8282 192.473 54.7467 192.783 54.5808 192.993ZM54.26 191.587C54.1757 191.484 54.0533 191.432 53.8929 191.432H52.3975C52.2371 191.432 52.1147 191.484 52.0304 191.584C51.9461 191.688 51.9026 191.845 51.9026 192.066C51.9026 192.283 51.9461 192.444 52.0304 192.547C52.1147 192.647 52.2371 192.699 52.3975 192.699H53.8929C54.0533 192.699 54.1757 192.647 54.26 192.544C54.3443 192.441 54.3878 192.28 54.3878 192.066C54.3878 191.848 54.347 191.69 54.26 191.587Z" fill="#9E9E9E"/>
<path d="M54.5808 187.954C54.4177 188.167 54.1866 188.27 53.8929 188.27H52.3975C52.1011 188.27 51.8727 188.164 51.7096 187.952C51.5464 187.74 51.4648 187.43 51.4648 187.025C51.4648 186.617 51.5464 186.307 51.7096 186.095C51.8727 185.883 52.1038 185.779 52.4002 185.779H53.8956C54.192 185.779 54.4204 185.885 54.5835 186.097C54.7467 186.309 54.8282 186.619 54.8282 187.025C54.8282 187.432 54.7467 187.742 54.5808 187.954ZM54.26 186.546C54.1757 186.443 54.0533 186.391 53.8929 186.391H52.3975C52.2371 186.391 52.1147 186.443 52.0304 186.543C51.9461 186.644 51.9026 186.804 51.9026 187.025C51.9026 187.242 51.9461 187.403 52.0304 187.506C52.1147 187.609 52.2371 187.658 52.3975 187.658H53.8929C54.0533 187.658 54.1757 187.606 54.26 187.503C54.3443 187.4 54.3878 187.239 54.3878 187.025C54.3878 186.81 54.347 186.649 54.26 186.546Z" fill="#9E9E9E"/>
<path d="M54.5808 184.696C54.4177 184.908 54.1866 185.011 53.8929 185.011H52.3975C52.1011 185.011 51.8727 184.905 51.7096 184.693C51.5464 184.481 51.4648 184.171 51.4648 183.766C51.4648 183.358 51.5464 183.048 51.7096 182.839C51.8727 182.627 52.1038 182.523 52.4002 182.523H53.8956C54.192 182.523 54.4204 182.629 54.5835 182.842C54.7467 183.054 54.8282 183.364 54.8282 183.769C54.8282 184.177 54.7467 184.484 54.5808 184.696ZM54.26 183.29C54.1757 183.187 54.0533 183.135 53.8929 183.135H52.3975C52.2371 183.135 52.1147 183.187 52.0304 183.287C51.9461 183.391 51.9026 183.549 51.9026 183.769C51.9026 183.986 51.9461 184.147 52.0304 184.25C52.1147 184.351 52.2371 184.402 52.3975 184.402H53.8929C54.0533 184.402 54.1757 184.351 54.26 184.247C54.3443 184.144 54.3878 183.984 54.3878 183.769C54.3878 183.551 54.347 183.391 54.26 183.29Z" fill="#9E9E9E"/>
<path d="M54.5808 181.413C54.4177 181.625 54.1866 181.728 53.8929 181.728H52.3975C52.1011 181.728 51.8727 181.622 51.7096 181.41C51.5464 181.198 51.4648 180.888 51.4648 180.483C51.4648 180.075 51.5464 179.765 51.7096 179.556C51.8727 179.344 52.1038 179.24 52.4002 179.24H53.8956C54.192 179.24 54.4204 179.346 54.5835 179.558C54.7467 179.77 54.8282 180.08 54.8282 180.486C54.8282 180.893 54.7467 181.203 54.5808 181.413ZM54.26 180.007C54.1757 179.904 54.0533 179.852 53.8929 179.852H52.3975C52.2371 179.852 52.1147 179.904 52.0304 180.004C51.9461 180.108 51.9026 180.265 51.9026 180.486C51.9026 180.703 51.9461 180.863 52.0304 180.967C52.1147 181.07 52.2371 181.119 52.3975 181.119H53.8929C54.0533 181.119 54.1757 181.067 54.26 180.964C54.3443 180.861 54.3878 180.7 54.3878 180.486C54.3878 180.271 54.347 180.11 54.26 180.007Z" fill="#9E9E9E"/>
<path d="M54.5808 178.149C54.4177 178.361 54.1866 178.464 53.8929 178.464H52.3975C52.1011 178.464 51.8727 178.358 51.7096 178.146C51.5464 177.934 51.4648 177.624 51.4648 177.219C51.4648 176.811 51.5464 176.501 51.7096 176.292C51.8727 176.08 52.1038 175.977 52.4002 175.977H53.8956C54.192 175.977 54.4204 176.083 54.5835 176.295C54.7467 176.507 54.8282 176.817 54.8282 177.222C54.8282 177.627 54.7467 177.937 54.5808 178.149ZM54.26 176.741C54.1757 176.637 54.0533 176.586 53.8929 176.586H52.3975C52.2371 176.586 52.1147 176.637 52.0304 176.738C51.9461 176.841 51.9026 176.999 51.9026 177.219C51.9026 177.437 51.9461 177.597 52.0304 177.7C52.1147 177.801 52.2371 177.853 52.3975 177.853H53.8929C54.0533 177.853 54.1757 177.801 54.26 177.698C54.3443 177.594 54.3878 177.434 54.3878 177.219C54.3878 177.004 54.347 176.844 54.26 176.741Z" fill="#9E9E9E"/>
<path d="M62.3027 203.61C62.1885 203.754 62.0308 203.827 61.8296 203.827H60.8018C60.5979 203.827 60.4402 203.754 60.3287 203.61C60.2173 203.463 60.1602 203.251 60.1602 202.974C60.1602 202.694 60.2173 202.482 60.3287 202.335C60.4402 202.191 60.5979 202.117 60.8018 202.117H61.8296C62.0335 202.117 62.1912 202.191 62.3027 202.335C62.4142 202.482 62.4713 202.694 62.4713 202.971C62.474 203.251 62.4169 203.463 62.3027 203.61ZM62.0825 202.642C62.0227 202.571 61.9384 202.536 61.8296 202.536H60.8018C60.6931 202.536 60.6088 202.571 60.549 202.642C60.4892 202.713 60.462 202.821 60.462 202.971C60.462 203.12 60.4919 203.232 60.549 203.3C60.6088 203.371 60.6931 203.406 60.8018 203.406H61.8296C61.9384 203.406 62.0227 203.371 62.0825 203.3C62.1423 203.229 62.1695 203.12 62.1695 202.971C62.1722 202.821 62.1423 202.713 62.0825 202.642Z" fill="#9E9E9E"/>
<path d="M62.3027 201.36C62.1885 201.504 62.0308 201.577 61.8296 201.577H60.8018C60.5979 201.577 60.4402 201.504 60.3287 201.36C60.2173 201.213 60.1602 201.001 60.1602 200.724C60.1602 200.444 60.2173 200.232 60.3287 200.085C60.4402 199.941 60.5979 199.867 60.8018 199.867H61.8296C62.0335 199.867 62.1912 199.941 62.3027 200.085C62.4142 200.232 62.4713 200.444 62.4713 200.721C62.474 201.001 62.4169 201.216 62.3027 201.36ZM62.0825 200.392C62.0227 200.321 61.9384 200.286 61.8296 200.286H60.8018C60.6931 200.286 60.6088 200.321 60.549 200.392C60.4892 200.463 60.462 200.571 60.462 200.721C60.462 200.871 60.4919 200.982 60.549 201.05C60.6088 201.121 60.6931 201.156 60.8018 201.156H61.8296C61.9384 201.156 62.0227 201.121 62.0825 201.05C62.1423 200.979 62.1695 200.871 62.1695 200.721C62.1722 200.574 62.1423 200.463 62.0825 200.392Z" fill="#9E9E9E"/>
<path d="M59.9219 199.335L62.8801 197.943V198.346L59.9219 199.738V199.335Z" fill="#9E9E9E"/>
<path d="M62.3027 197.442C62.1885 197.586 62.0308 197.659 61.8296 197.659H60.8018C60.5979 197.659 60.4402 197.586 60.3287 197.442C60.2173 197.295 60.1602 197.083 60.1602 196.806C60.1602 196.526 60.2173 196.314 60.3287 196.167C60.4402 196.023 60.5979 195.949 60.8018 195.949H61.8296C62.0335 195.949 62.1912 196.023 62.3027 196.167C62.4142 196.314 62.4713 196.526 62.4713 196.803C62.474 197.086 62.4169 197.298 62.3027 197.442ZM62.0825 196.477C62.0227 196.406 61.9384 196.371 61.8296 196.371H60.8018C60.6931 196.371 60.6088 196.406 60.549 196.477C60.4892 196.547 60.462 196.656 60.462 196.806C60.462 196.955 60.4919 197.067 60.549 197.135C60.6088 197.205 60.6931 197.241 60.8018 197.241H61.8296C61.9384 197.241 62.0227 197.205 62.0825 197.135C62.1423 197.064 62.1695 196.955 62.1695 196.806C62.1722 196.656 62.1423 196.547 62.0825 196.477Z" fill="#9E9E9E"/>
<path d="M62.3027 195.194C62.1885 195.338 62.0308 195.411 61.8296 195.411H60.8018C60.5979 195.411 60.4402 195.338 60.3287 195.194C60.2173 195.047 60.1602 194.835 60.1602 194.558C60.1602 194.278 60.2173 194.066 60.3287 193.919C60.4402 193.775 60.5979 193.701 60.8018 193.701H61.8296C62.0335 193.701 62.1912 193.775 62.3027 193.919C62.4142 194.066 62.4713 194.278 62.4713 194.555C62.474 194.835 62.4169 195.047 62.3027 195.194ZM62.0825 194.226C62.0227 194.155 61.9384 194.12 61.8296 194.12H60.8018C60.6931 194.12 60.6088 194.155 60.549 194.226C60.4892 194.297 60.462 194.405 60.462 194.555C60.462 194.704 60.4919 194.816 60.549 194.884C60.6088 194.955 60.6931 194.99 60.8018 194.99H61.8296C61.9384 194.99 62.0227 194.955 62.0825 194.884C62.1423 194.813 62.1695 194.704 62.1695 194.555C62.1722 194.405 62.1423 194.297 62.0825 194.226Z" fill="#9E9E9E"/>
<path d="M76.8892 217.675H13.4496C6.20624 217.675 0.335938 211.802 0.335938 204.561V53.5512C0.335938 46.3078 6.20896 40.4375 13.4496 40.4375H76.8892C84.1326 40.4375 90.0029 46.3105 90.0029 53.5512V204.559C90.0029 211.802 84.1326 217.675 76.8892 217.675Z" fill="#757575"/>
<path d="M71.8024 216.897H18.5264C18.0968 216.897 17.7461 216.549 17.7461 216.116C17.7461 215.687 18.0941 215.336 18.5264 215.336H71.8024C72.232 215.336 72.5828 215.684 72.5828 216.116C72.5801 216.549 72.232 216.897 71.8024 216.897Z" fill="#424242"/>
<path d="M21.8988 123.199H68.448C73.4074 123.199 77.4288 127.221 77.4288 132.18V194.644C77.4288 199.603 73.4074 203.624 68.448 203.624H21.8988C16.9394 203.624 12.918 199.603 12.918 194.644V132.18C12.9153 127.221 16.9366 123.199 21.8988 123.199Z" fill="#424242"/>
<path d="M92.08 78.1875H90V155.372H92.08V78.1875Z" fill="#212121"/>
<path d="M92.082 155.372V78.1875C93.8684 78.1875 95.3176 79.6367 95.3176 81.4231V152.136C95.3176 153.922 93.8684 155.372 92.082 155.372Z" fill="#757575"/>
<path d="M21.8988 22.8105H68.448C73.4074 22.8105 77.4288 26.8319 77.4288 31.7914V94.2548C77.4288 99.2143 73.4074 103.236 68.448 103.236H21.8988C16.9394 103.236 12.918 99.2143 12.918 94.2548V31.7914C12.9153 26.8319 16.9366 22.8105 21.8988 22.8105Z" fill="#424242"/>
<path d="M31.9969 138.343H24.5115C23.2716 138.343 22.2656 137.337 22.2656 136.097V133.103C22.2656 131.863 23.2716 130.857 24.5115 130.857H31.9969C33.2368 130.857 34.2428 131.863 34.2428 133.103V136.097C34.2428 137.337 33.2368 138.343 31.9969 138.343Z" fill="white"/>
<path d="M48.9071 138.343H41.4217C40.1818 138.343 39.1758 137.337 39.1758 136.097V133.103C39.1758 131.863 40.1818 130.857 41.4217 130.857H48.9071C50.1469 130.857 51.1529 131.863 51.1529 133.103V136.097C51.1529 137.337 50.1469 138.343 48.9071 138.343Z" fill="white"/>
<path d="M65.8172 138.343H58.3318C57.092 138.343 56.0859 137.337 56.0859 136.097V133.103C56.0859 131.863 57.092 130.857 58.3318 130.857H65.8172C67.0571 130.857 68.0631 131.863 68.0631 133.103V136.097C68.0631 137.337 67.0571 138.343 65.8172 138.343Z" fill="white"/>
<path d="M31.9969 96.9424H24.5115C23.2716 96.9424 22.2656 95.9364 22.2656 94.6965V91.7029C22.2656 90.4631 23.2716 89.457 24.5115 89.457H31.9969C33.2368 89.457 34.2428 90.4631 34.2428 91.7029V94.6965C34.2428 95.9364 33.2368 96.9424 31.9969 96.9424Z" fill="white"/>
<path d="M48.9071 96.9424H41.4217C40.1818 96.9424 39.1758 95.9364 39.1758 94.6965V91.7029C39.1758 90.4631 40.1818 89.457 41.4217 89.457H48.9071C50.1469 89.457 51.1529 90.4631 51.1529 91.7029V94.6965C51.1529 95.9364 50.1469 96.9424 48.9071 96.9424Z" fill="white"/>
<path d="M65.8172 96.9424H58.3318C57.092 96.9424 56.0859 95.9364 56.0859 94.6965V91.7029C56.0859 90.4631 57.092 89.457 58.3318 89.457H65.8172C67.0571 89.457 68.0631 90.4631 68.0631 91.7029V94.6965C68.0631 95.9364 67.0571 96.9424 65.8172 96.9424Z" fill="white"/>
<path d="M31.9969 151.245H24.5115C23.2716 151.245 22.2656 150.239 22.2656 148.999V146.006C22.2656 144.766 23.2716 143.76 24.5115 143.76H31.9969C33.2368 143.76 34.2428 144.766 34.2428 146.006V148.999C34.2428 150.239 33.2368 151.245 31.9969 151.245Z" fill="white"/>
<path d="M48.9071 151.245H41.4217C40.1818 151.245 39.1758 150.239 39.1758 148.999V146.006C39.1758 144.766 40.1818 143.76 41.4217 143.76H48.9071C50.1469 143.76 51.1529 144.766 51.1529 146.006V148.999C51.1529 150.239 50.1469 151.245 48.9071 151.245Z" fill="white"/>
<path d="M65.8172 151.245H58.3318C57.092 151.245 56.0859 150.239 56.0859 148.999V146.006C56.0859 144.766 57.092 143.76 58.3318 143.76H65.8172C67.0571 143.76 68.0631 144.766 68.0631 146.006V148.999C68.0631 150.239 67.0571 151.245 65.8172 151.245Z" fill="white"/>
<path d="M31.9969 164.163H24.5115C23.2716 164.163 22.2656 163.157 22.2656 161.917V158.924C22.2656 157.684 23.2716 156.678 24.5115 156.678H31.9969C33.2368 156.678 34.2428 157.684 34.2428 158.924V161.917C34.2428 163.16 33.2368 164.163 31.9969 164.163Z" fill="white"/>
<path d="M48.9071 164.163H41.4217C40.1818 164.163 39.1758 163.157 39.1758 161.917V158.924C39.1758 157.684 40.1818 156.678 41.4217 156.678H48.9071C50.1469 156.678 51.1529 157.684 51.1529 158.924V161.917C51.1529 163.16 50.1469 164.163 48.9071 164.163Z" fill="white"/>
<path d="M65.8172 164.163H58.3318C57.092 164.163 56.0859 163.157 56.0859 161.917V158.924C56.0859 157.684 57.092 156.678 58.3318 156.678H65.8172C67.0571 156.678 68.0631 157.684 68.0631 158.924V161.917C68.0631 163.16 67.0571 164.163 65.8172 164.163Z" fill="white"/>
<path d="M31.9969 177.071H24.5115C23.2716 177.071 22.2656 176.065 22.2656 174.825V171.832C22.2656 170.592 23.2716 169.586 24.5115 169.586H31.9969C33.2368 169.586 34.2428 170.592 34.2428 171.832V174.825C34.2428 176.065 33.2368 177.071 31.9969 177.071Z" fill="white"/>
<path d="M48.9071 177.071H41.4217C40.1818 177.071 39.1758 176.065 39.1758 174.825V171.832C39.1758 170.592 40.1818 169.586 41.4217 169.586H48.9071C50.1469 169.586 51.1529 170.592 51.1529 171.832V174.825C51.1529 176.065 50.1469 177.071 48.9071 177.071Z" fill="white"/>
<path d="M65.8172 177.071H58.3318C57.092 177.071 56.0859 176.065 56.0859 174.825V171.832C56.0859 170.592 57.092 169.586 58.3318 169.586H65.8172C67.0571 169.586 68.0631 170.592 68.0631 171.832V174.825C68.0631 176.065 67.0571 177.071 65.8172 177.071Z" fill="white"/>
<path d="M31.7304 191.84H29.112C25.3326 191.84 22.2656 188.776 22.2656 184.994C22.2656 183.607 23.3886 182.484 24.7753 182.484H31.7304C33.1171 182.484 34.2401 183.607 34.2401 184.994V189.328C34.2428 190.717 33.1171 191.84 31.7304 191.84Z" fill="#FE0000"/>
<path d="M48.6484 191.838H41.6932C40.3065 191.838 39.1836 190.715 39.1836 189.328V184.994C39.1836 183.607 40.3065 182.484 41.6932 182.484H48.6484C50.0351 182.484 51.158 183.607 51.158 184.994V189.328C51.158 190.715 50.0324 191.838 48.6484 191.838Z" fill="#FFD401"/>
<path d="M61.2218 191.838H58.6034C57.2167 191.838 56.0938 190.715 56.0938 189.328V184.994C56.0938 183.607 57.2167 182.484 58.6034 182.484H65.5586C66.9453 182.484 68.0682 183.607 68.0682 184.994C68.0655 188.773 65.0012 191.838 61.2218 191.838Z" fill="#3AB54A"/>
<path d="M68.0671 46.6465H22.2656V84.4432H68.0671V46.6465Z" fill="white"/>
<path d="M54.2218 68.8077C56.016 63.8101 53.4191 58.3042 48.4214 56.51C43.4238 54.7158 37.9179 57.3127 36.1237 62.3103C34.3295 67.308 36.9264 72.8139 41.924 74.6081C46.9217 76.4023 52.4276 73.8054 54.2218 68.8077Z" fill="#3AB54A"/>
<path d="M43.3638 69.8475C43.1572 69.8475 42.9587 69.766 42.8119 69.6191L39.8182 66.6255C39.5137 66.321 39.5137 65.8261 39.8182 65.5243C40.1228 65.2198 40.6176 65.2198 40.9194 65.5243L43.3611 67.966L49.0791 62.2479C49.3837 61.9434 49.8785 61.9434 50.1803 62.2479C50.4849 62.5525 50.4849 63.0446 50.1803 63.3491L43.913 69.6164C43.7689 69.7632 43.5732 69.8475 43.3638 69.8475Z" fill="white"/>
<path d="M71.8024 39.713H18.5264C18.0968 39.713 17.7461 39.365 17.7461 38.9327C17.7461 38.5031 18.0941 38.1523 18.5264 38.1523H71.8024C72.232 38.1523 72.5828 38.5004 72.5828 38.9327C72.5801 39.365 72.232 39.713 71.8024 39.713Z" fill="#212121"/>
<path d="M68.0671 0.158203L62.0282 2.49654L57.0688 0.158203L52.4845 2.49654L48.1804 0.158203L43.8789 2.49654L39.9472 0.158203L35.4582 2.49654L30.5939 0.158203L26.1946 2.49654L22.2656 0.158203V39.203H68.0671V0.158203Z" fill="#EEEEEE"/>
<path d="M64.2528 11.1282H26.0808C25.9259 11.1282 25.8008 10.9624 25.8008 10.7585C25.8008 10.5545 25.9259 10.3887 26.0808 10.3887H64.2528C64.4078 10.3887 64.5329 10.5545 64.5329 10.7585C64.5329 10.9651 64.4078 11.1282 64.2528 11.1282Z" fill="#212121"/>
<path d="M64.2528 14.5677H26.0808C25.9259 14.5677 25.8008 14.4018 25.8008 14.1979C25.8008 13.994 25.9259 13.8281 26.0808 13.8281H64.2528C64.4078 13.8281 64.5329 13.994 64.5329 14.1979C64.5329 14.4046 64.4078 14.5677 64.2528 14.5677Z" fill="#212121"/>
<path d="M64.2528 18.015H26.0808C25.9259 18.015 25.8008 17.8491 25.8008 17.6452C25.8008 17.4412 25.9259 17.2754 26.0808 17.2754H64.2528C64.4078 17.2754 64.5329 17.4412 64.5329 17.6452C64.5329 17.8518 64.4078 18.015 64.2528 18.015Z" fill="#212121"/>
<path d="M64.2528 21.4466H26.0808C25.9259 21.4466 25.8008 21.2807 25.8008 21.0768C25.8008 20.8729 25.9259 20.707 26.0808 20.707H64.2528C64.4078 20.707 64.5329 20.8729 64.5329 21.0768C64.5329 21.2835 64.4078 21.4466 64.2528 21.4466Z" fill="#212121"/>
<path d="M64.2528 24.8919H26.0808C25.9259 24.8919 25.8008 24.7261 25.8008 24.5221C25.8008 24.3182 25.9259 24.1523 26.0808 24.1523H64.2528C64.4078 24.1523 64.5329 24.3182 64.5329 24.5221C64.5329 24.7288 64.4078 24.8919 64.2528 24.8919Z" fill="#212121"/>
</svg>
