<svg width="170" height="218" viewBox="0 0 170 218" fill="none" xmlns="http://www.w3.org/2000/svg">
<path d="M76.8853 217.886H13.4457C6.20234 217.886 0.332031 212.013 0.332031 204.772V53.7622C0.332031 46.5188 6.20505 40.6484 13.4457 40.6484H76.8853C84.1287 40.6484 89.999 46.5215 89.999 53.7622V204.77C89.999 212.013 84.1287 217.886 76.8853 217.886Z" fill="#757575"/>
<path d="M71.7985 217.108H18.5225C18.0929 217.108 17.7422 216.76 17.7422 216.327C17.7422 215.898 18.0902 215.547 18.5225 215.547H71.7985C72.2281 215.547 72.5789 215.895 72.5789 216.327C72.5762 216.76 72.2281 217.108 71.7985 217.108Z" fill="#424242"/>
<path d="M21.8949 123.41H68.4441C73.4035 123.41 77.4249 127.432 77.4249 132.391V194.854C77.4249 199.814 73.4035 203.835 68.4441 203.835H21.8949C16.9355 203.835 12.9141 199.814 12.9141 194.854V132.391C12.9113 127.432 16.9327 123.41 21.8949 123.41Z" fill="#424242"/>
<path d="M92.0879 78.3848H90.0078V155.569H92.0879V78.3848Z" fill="#212121"/>
<path d="M92.0898 155.569V78.3848C93.8762 78.3848 95.3255 79.834 95.3255 81.6204V152.333C95.3255 154.12 93.8762 155.569 92.0898 155.569Z" fill="#757575"/>
<path d="M21.8949 23.0215H68.4441C73.4035 23.0215 77.4249 27.0429 77.4249 32.0023V94.4658C77.4249 99.4252 73.4035 103.447 68.4441 103.447H21.8949C16.9355 103.447 12.9141 99.4252 12.9141 94.4658V32.0023C12.9113 27.0429 16.9327 23.0215 21.8949 23.0215Z" fill="#424242"/>
<path d="M31.9891 138.583H24.5037C23.2638 138.583 22.2578 137.577 22.2578 136.337V133.344C22.2578 132.104 23.2638 131.098 24.5037 131.098H31.9891C33.229 131.098 34.235 132.104 34.235 133.344V136.337C34.235 137.577 33.229 138.583 31.9891 138.583Z" fill="white"/>
<path d="M48.8993 138.583H41.4139C40.174 138.583 39.168 137.577 39.168 136.337V133.344C39.168 132.104 40.174 131.098 41.4139 131.098H48.8993C50.1391 131.098 51.1451 132.104 51.1451 133.344V136.337C51.1451 137.577 50.1391 138.583 48.8993 138.583Z" fill="white"/>
<path d="M65.8094 138.583H58.324C57.0842 138.583 56.0781 137.577 56.0781 136.337V133.344C56.0781 132.104 57.0842 131.098 58.324 131.098H65.8094C67.0493 131.098 68.0553 132.104 68.0553 133.344V136.337C68.0553 137.577 67.0493 138.583 65.8094 138.583Z" fill="white"/>
<path d="M31.9891 97.1827H24.5037C23.2638 97.1827 22.2578 96.1766 22.2578 94.9368V91.9431C22.2578 90.7033 23.2638 89.6973 24.5037 89.6973H31.9891C33.229 89.6973 34.235 90.7033 34.235 91.9431V94.9368C34.235 96.1766 33.229 97.1827 31.9891 97.1827Z" fill="white"/>
<path d="M48.8993 97.1827H41.4139C40.174 97.1827 39.168 96.1766 39.168 94.9368V91.9431C39.168 90.7033 40.174 89.6973 41.4139 89.6973H48.8993C50.1391 89.6973 51.1451 90.7033 51.1451 91.9431V94.9368C51.1451 96.1766 50.1391 97.1827 48.8993 97.1827Z" fill="white"/>
<path d="M65.8094 97.1827H58.324C57.0842 97.1827 56.0781 96.1766 56.0781 94.9368V91.9431C56.0781 90.7033 57.0842 89.6973 58.324 89.6973H65.8094C67.0493 89.6973 68.0553 90.7033 68.0553 91.9431V94.9368C68.0553 96.1766 67.0493 97.1827 65.8094 97.1827Z" fill="white"/>
<path d="M31.9891 151.485H24.5037C23.2638 151.485 22.2578 150.479 22.2578 149.24V146.246C22.2578 145.006 23.2638 144 24.5037 144H31.9891C33.229 144 34.235 145.006 34.235 146.246V149.24C34.235 150.479 33.229 151.485 31.9891 151.485Z" fill="white"/>
<path d="M48.8993 151.485H41.4139C40.174 151.485 39.168 150.479 39.168 149.24V146.246C39.168 145.006 40.174 144 41.4139 144H48.8993C50.1391 144 51.1451 145.006 51.1451 146.246V149.24C51.1451 150.479 50.1391 151.485 48.8993 151.485Z" fill="white"/>
<path d="M65.8094 151.485H58.324C57.0842 151.485 56.0781 150.479 56.0781 149.24V146.246C56.0781 145.006 57.0842 144 58.324 144H65.8094C67.0493 144 68.0553 145.006 68.0553 146.246V149.24C68.0553 150.479 67.0493 151.485 65.8094 151.485Z" fill="white"/>
<path d="M31.9891 164.401H24.5037C23.2638 164.401 22.2578 163.395 22.2578 162.156V159.162C22.2578 157.922 23.2638 156.916 24.5037 156.916H31.9891C33.229 156.916 34.235 157.922 34.235 159.162V162.156C34.235 163.398 33.229 164.401 31.9891 164.401Z" fill="white"/>
<path d="M48.8993 164.401H41.4139C40.174 164.401 39.168 163.395 39.168 162.156V159.162C39.168 157.922 40.174 156.916 41.4139 156.916H48.8993C50.1391 156.916 51.1451 157.922 51.1451 159.162V162.156C51.1451 163.398 50.1391 164.401 48.8993 164.401Z" fill="white"/>
<path d="M65.8094 164.401H58.324C57.0842 164.401 56.0781 163.395 56.0781 162.156V159.162C56.0781 157.922 57.0842 156.916 58.324 156.916H65.8094C67.0493 156.916 68.0553 157.922 68.0553 159.162V162.156C68.0553 163.398 67.0493 164.401 65.8094 164.401Z" fill="white"/>
<path d="M31.9891 177.292H24.5037C23.2638 177.292 22.2578 176.286 22.2578 175.046V172.053C22.2578 170.813 23.2638 169.807 24.5037 169.807H31.9891C33.229 169.807 34.235 170.813 34.235 172.053V175.046C34.235 176.286 33.229 177.292 31.9891 177.292Z" fill="white"/>
<path d="M48.8993 177.292H41.4139C40.174 177.292 39.168 176.286 39.168 175.046V172.053C39.168 170.813 40.174 169.807 41.4139 169.807H48.8993C50.1391 169.807 51.1451 170.813 51.1451 172.053V175.046C51.1451 176.286 50.1391 177.292 48.8993 177.292Z" fill="white"/>
<path d="M65.8094 177.292H58.324C57.0842 177.292 56.0781 176.286 56.0781 175.046V172.053C56.0781 170.813 57.0842 169.807 58.324 169.807H65.8094C67.0493 169.807 68.0553 170.813 68.0553 172.053V175.046C68.0553 176.286 67.0493 177.292 65.8094 177.292Z" fill="white"/>
<path d="M31.7226 192.083H29.1042C25.3248 192.083 22.2578 189.018 22.2578 185.236C22.2578 183.85 23.3808 182.727 24.7674 182.727H31.7226C33.1093 182.727 34.2323 183.85 34.2323 185.236V189.57C34.235 190.96 33.1093 192.083 31.7226 192.083Z" fill="#FE0000"/>
<path d="M48.6406 192.08H41.6854C40.2987 192.08 39.1758 190.957 39.1758 189.57V185.236C39.1758 183.85 40.2987 182.727 41.6854 182.727H48.6406C50.0273 182.727 51.1502 183.85 51.1502 185.236V189.57C51.1502 190.957 50.0246 192.08 48.6406 192.08Z" fill="#FFD401"/>
<path d="M61.2218 192.08H58.6034C57.2167 192.08 56.0938 190.957 56.0938 189.57V185.236C56.0938 183.85 57.2167 182.727 58.6034 182.727H65.5586C66.9453 182.727 68.0682 183.85 68.0682 185.236C68.0655 189.016 65.0012 192.08 61.2218 192.08Z" fill="#3AB54A"/>
<path d="M68.0632 46.8574H22.2617V84.6542H68.0632V46.8574Z" fill="white"/>
<path d="M54.2179 69.0167C56.0121 64.019 53.4152 58.5132 48.4175 56.719C43.4199 54.9248 37.914 57.5217 36.1198 62.5193C34.3256 67.517 36.9225 73.0228 41.9201 74.8171C46.9178 76.6113 52.4237 74.0143 54.2179 69.0167Z" fill="#3AB54A"/>
<path d="M43.356 70.0565C43.1493 70.0565 42.9509 69.9749 42.804 69.8281L39.8104 66.8345C39.5059 66.53 39.5059 66.0351 39.8104 65.7333C40.115 65.4288 40.6098 65.4288 40.9116 65.7333L43.3533 68.175L49.0713 62.4569C49.3758 62.1524 49.8707 62.1524 50.1725 62.4569C50.477 62.7614 50.477 63.2536 50.1725 63.5581L43.9052 69.8254C43.7611 69.9722 43.5654 70.0565 43.356 70.0565Z" fill="white"/>
<path d="M71.7985 39.924H18.5225C18.0929 39.924 17.7422 39.576 17.7422 39.1436C17.7422 38.714 18.0902 38.3633 18.5225 38.3633H71.7985C72.2281 38.3633 72.5789 38.7113 72.5789 39.1436C72.5762 39.576 72.2281 39.924 71.7985 39.924Z" fill="#212121"/>
<path d="M68.0632 0.369141L62.0243 2.70748L57.0648 0.369141L52.4806 2.70748L48.1765 0.369141L43.875 2.70748L39.9433 0.369141L35.4543 2.70748L30.59 0.369141L26.1907 2.70748L22.2617 0.369141V39.4139H68.0632V0.369141Z" fill="#EEEEEE"/>
<path d="M64.2489 11.3646H26.0769C25.922 11.3646 25.7969 11.1987 25.7969 10.9948C25.7969 10.7909 25.922 10.625 26.0769 10.625H64.2489C64.4039 10.625 64.529 10.7909 64.529 10.9948C64.529 11.2014 64.4039 11.3646 64.2489 11.3646Z" fill="#212121"/>
<path d="M64.2489 14.8177H26.0769C25.922 14.8177 25.7969 14.6518 25.7969 14.4479C25.7969 14.244 25.922 14.0781 26.0769 14.0781H64.2489C64.4039 14.0781 64.529 14.244 64.529 14.4479C64.529 14.6546 64.4039 14.8177 64.2489 14.8177Z" fill="#212121"/>
<path d="M64.2489 18.2513H26.0769C25.922 18.2513 25.7969 18.0854 25.7969 17.8815C25.7969 17.6776 25.922 17.5117 26.0769 17.5117H64.2489C64.4039 17.5117 64.529 17.6776 64.529 17.8815C64.529 18.0881 64.4039 18.2513 64.2489 18.2513Z" fill="#212121"/>
<path d="M64.2489 21.6829H26.0769C25.922 21.6829 25.7969 21.5171 25.7969 21.3131C25.7969 21.1092 25.922 20.9434 26.0769 20.9434H64.2489C64.4039 20.9434 64.529 21.1092 64.529 21.3131C64.529 21.5198 64.4039 21.6829 64.2489 21.6829Z" fill="#212121"/>
<path d="M64.2489 25.1282H26.0769C25.922 25.1282 25.7969 24.9624 25.7969 24.7585C25.7969 24.5545 25.922 24.3887 26.0769 24.3887H64.2489C64.4039 24.3887 64.529 24.5545 64.529 24.7585C64.529 24.9651 64.4039 25.1282 64.2489 25.1282Z" fill="#212121"/>
<path d="M91.5154 42.2582L163.114 63.6712C166.396 64.6528 168.262 68.1114 167.28 71.3937L155.332 111.346C154.35 114.629 150.891 116.495 147.609 115.513L76.011 94.1001C72.7287 93.1185 70.8626 89.66 71.8443 86.3777L83.793 46.425C84.7728 43.1393 88.2305 41.2758 91.5154 42.2582Z" fill="#161616"/>
<path d="M76.5865 93.4447C73.3303 92.4708 71.4697 89.0792 72.4303 85.8673L84.1165 46.7925C85.0771 43.5805 88.4942 41.7673 91.7505 42.7412L162.747 63.9742C166.003 64.948 167.864 68.3396 166.903 71.5516L76.5865 93.4447Z" fill="#212121"/>
<path d="M147.26 106.855L147.332 108.474L147.614 108.558L148.566 107.245L148.489 108.82L148.911 108.946L148.892 106.704L148.587 106.613L147.663 107.88L147.587 106.314L147.282 106.223L146.035 108.086L146.457 108.212L147.26 106.855Z" fill="#9E9E9E"/>
<path d="M144.415 107.528C144.522 107.636 144.663 107.715 144.84 107.768C145.017 107.821 145.181 107.833 145.327 107.8C145.476 107.768 145.602 107.698 145.707 107.585C145.814 107.472 145.893 107.322 145.948 107.137L146.048 106.804C146.104 106.616 146.118 106.445 146.094 106.29C146.066 106.137 146.001 106.004 145.896 105.899C145.789 105.79 145.648 105.711 145.471 105.658C145.294 105.605 145.13 105.593 144.984 105.626C144.835 105.658 144.709 105.731 144.604 105.844C144.496 105.957 144.418 106.106 144.361 106.294L144.259 106.635C144.204 106.82 144.19 106.989 144.216 107.141C144.242 107.291 144.308 107.422 144.415 107.528ZM144.763 106.411C144.811 106.252 144.887 106.139 144.989 106.073C145.094 106.008 145.217 105.996 145.357 106.038C145.498 106.08 145.594 106.157 145.646 106.269C145.698 106.381 145.697 106.515 145.649 106.676L145.547 107.017C145.5 107.176 145.423 107.29 145.322 107.353C145.218 107.416 145.098 107.428 144.955 107.385C144.811 107.342 144.718 107.266 144.665 107.157C144.613 107.047 144.614 106.911 144.661 106.753L144.763 106.411Z" fill="#9E9E9E"/>
<path d="M142.488 107.065C142.611 107.102 142.73 107.101 142.852 107.063C142.949 107.033 143.038 106.983 143.12 106.908L143.034 107.194L143.438 107.315L144.052 105.263L143.648 105.142L143.26 106.442C143.222 106.567 143.156 106.655 143.065 106.704C142.973 106.753 142.863 106.76 142.736 106.722C142.665 106.701 142.606 106.672 142.558 106.632C142.511 106.592 142.476 106.548 142.453 106.493L142.083 106.771C142.124 106.84 142.177 106.901 142.245 106.95C142.313 106.998 142.395 107.037 142.488 107.065Z" fill="#9E9E9E"/>
<path d="M141.76 105.032C141.773 105.065 141.775 105.108 141.76 105.157L141.059 107.502L141.462 107.622L142.163 105.281C142.214 105.109 142.213 104.961 142.158 104.842C142.102 104.723 141.997 104.638 141.846 104.593L141.609 104.522L141.495 104.905L141.685 104.962C141.721 104.975 141.748 104.998 141.76 105.032Z" fill="#9E9E9E"/>
<path d="M139.452 105.84C139.482 105.94 139.53 106.025 139.595 106.101C139.678 106.194 139.778 106.258 139.901 106.295C140.047 106.338 140.179 106.341 140.303 106.307C140.426 106.273 140.533 106.2 140.626 106.091C140.718 105.983 140.789 105.839 140.842 105.662L140.977 105.209C141.03 105.035 141.046 104.875 141.029 104.733C141.012 104.592 140.96 104.472 140.872 104.374C140.785 104.277 140.667 104.205 140.516 104.16C140.381 104.12 140.256 104.119 140.142 104.159C140.05 104.191 139.973 104.242 139.911 104.305L139.99 104.04L139.587 103.919L138.727 106.795L139.13 106.916L139.452 105.84ZM139.762 104.803C139.789 104.714 139.827 104.644 139.877 104.59C139.927 104.537 139.988 104.502 140.059 104.486C140.129 104.47 140.206 104.476 140.292 104.502C140.425 104.542 140.517 104.614 140.566 104.717C140.614 104.819 140.617 104.945 140.572 105.094L140.438 105.542C140.393 105.693 140.321 105.799 140.224 105.858C140.126 105.919 140.01 105.93 139.877 105.89C139.791 105.865 139.723 105.827 139.673 105.775C139.622 105.726 139.589 105.665 139.577 105.593C139.564 105.521 139.571 105.444 139.597 105.355L139.762 104.803Z" fill="#9E9E9E"/>
<path d="M137.057 105.323C137.142 105.42 137.254 105.49 137.4 105.534C137.522 105.57 137.644 105.57 137.763 105.534C137.857 105.506 137.945 105.456 138.026 105.386L137.697 106.485L138.101 106.606L138.961 103.73L138.557 103.609L138.478 103.875C138.458 103.779 138.419 103.69 138.356 103.617C138.281 103.527 138.178 103.465 138.05 103.426C137.901 103.382 137.764 103.378 137.637 103.411C137.511 103.444 137.402 103.514 137.31 103.622C137.218 103.731 137.145 103.871 137.093 104.046L136.959 104.494C136.906 104.671 136.887 104.83 136.904 104.971C136.922 105.11 136.972 105.227 137.057 105.323ZM137.497 104.164C137.542 104.015 137.613 103.912 137.71 103.853C137.807 103.794 137.923 103.783 138.056 103.823C138.142 103.849 138.21 103.886 138.26 103.938C138.31 103.99 138.343 104.05 138.355 104.122C138.368 104.194 138.361 104.274 138.335 104.363L138.167 104.923C138.141 105.009 138.104 105.077 138.054 105.13C138.004 105.184 137.944 105.214 137.874 105.23C137.805 105.243 137.727 105.237 137.641 105.211C137.508 105.172 137.416 105.099 137.368 104.994C137.32 104.888 137.319 104.76 137.363 104.612L137.497 104.164Z" fill="#9E9E9E"/>
<path d="M134.992 104.735C135.097 104.832 135.231 104.906 135.403 104.958C135.559 105.004 135.707 105.02 135.851 105.006C135.994 104.992 136.117 104.95 136.223 104.879L135.989 104.591C135.916 104.617 135.835 104.633 135.749 104.633C135.664 104.635 135.58 104.622 135.499 104.598C135.366 104.558 135.275 104.491 135.228 104.394C135.177 104.297 135.175 104.183 135.214 104.05L135.24 103.964L135.805 104.133C136.037 104.202 136.226 104.205 136.371 104.138C136.516 104.07 136.619 103.936 136.68 103.733C136.744 103.52 136.729 103.342 136.635 103.2C136.541 103.059 136.366 102.95 136.114 102.874C136.028 102.849 135.95 102.834 135.874 102.831C135.801 102.829 135.733 102.837 135.67 102.858C135.629 102.871 135.592 102.891 135.554 102.914L135.602 102.753L135.219 102.638L134.825 103.956C134.777 104.118 134.768 104.262 134.796 104.396C134.822 104.526 134.89 104.64 134.992 104.735ZM135.451 103.249C135.472 103.179 135.527 103.139 135.611 103.13C135.697 103.119 135.816 103.137 135.97 103.183C136.111 103.225 136.21 103.283 136.263 103.353C136.318 103.424 136.329 103.512 136.298 103.616C136.269 103.712 136.222 103.775 136.156 103.806C136.089 103.838 136.004 103.838 135.897 103.806L135.335 103.637L135.451 103.249Z" fill="#9E9E9E"/>
<path d="M133.038 104.242C133.163 104.279 133.285 104.279 133.407 104.242C133.504 104.211 133.595 104.162 133.677 104.087L133.592 104.374L133.996 104.494L134.609 102.442L134.206 102.321L133.817 103.621C133.779 103.748 133.713 103.834 133.622 103.883C133.528 103.932 133.416 103.935 133.286 103.896C133.151 103.856 133.056 103.785 133.007 103.682C132.955 103.581 132.952 103.458 132.995 103.313L133.367 102.07L132.963 101.949L132.591 103.194C132.511 103.46 132.51 103.684 132.588 103.866C132.664 104.051 132.814 104.175 133.038 104.242Z" fill="#9E9E9E"/>
<path d="M130.939 102.745L130.02 103.313L130.497 103.455L131.621 102.704L131.077 104.523L131.481 104.643L132.34 101.77L131.937 101.649L131.761 102.235L131.277 102.536L130.973 101.361L130.535 101.23L130.939 102.745Z" fill="#9E9E9E"/>
<path d="M141.434 87.9055L149.163 90.217C149.916 90.4422 150.344 91.234 150.118 91.9869L148.482 97.4574C148.257 98.2102 147.465 98.6375 146.712 98.4123L138.983 96.1008C138.231 95.8757 137.803 95.0838 138.029 94.3309L139.665 88.8604C139.892 88.1084 140.684 87.6811 141.434 87.9055Z" fill="#FBC02D"/>
<path d="M147.001 90.5501L150.182 91.5014L150.14 91.642L147.102 90.7336L145.307 96.7355L148.313 97.6346L148.271 97.7778L145.121 96.8359L147.001 90.5501Z" fill="#161616"/>
<path d="M139.905 88.4356L143.054 89.3775L141.174 95.6634L137.996 94.7129L138.039 94.5696L141.076 95.478L142.871 89.4761L139.863 88.5763L139.905 88.4356Z" fill="#161616"/>
<path d="M138.874 91.4999L138.832 91.6406L149.286 94.7671L149.328 94.6264L138.874 91.4999Z" fill="#161616"/>
<path d="M150.572 78.1332C150.728 78.3503 150.761 78.6013 150.677 78.8827L150.248 80.3154C150.164 80.5994 149.996 80.7878 149.747 80.8833C149.497 80.9789 149.176 80.9682 148.788 80.8521C148.397 80.7353 148.124 80.5683 147.97 80.352C147.814 80.1349 147.781 79.8839 147.866 79.6L148.294 78.1672C148.379 77.8833 148.546 77.6949 148.796 77.5993C149.046 77.5038 149.366 77.5145 149.754 77.6305C150.143 77.7466 150.416 77.9136 150.572 78.1332ZM149.131 78.0371C149.007 78.0882 148.923 78.1906 148.877 78.3443L148.448 79.7771C148.402 79.9308 148.417 80.0628 148.489 80.1724C148.564 80.2827 148.703 80.3696 148.914 80.4327C149.122 80.4951 149.288 80.4993 149.411 80.4482C149.534 80.397 149.616 80.2938 149.662 80.1401L150.091 78.7074C150.137 78.5537 150.122 78.4217 150.048 78.3113C149.973 78.201 149.831 78.1133 149.626 78.0518C149.42 77.9902 149.254 77.9833 149.131 78.0371Z" fill="#9E9E9E"/>
<path d="M147.435 77.1899C147.592 77.4069 147.624 77.658 147.54 77.9393L147.112 79.3721C147.027 79.656 146.86 79.8445 146.61 79.94C146.36 80.0355 146.04 80.0249 145.651 79.9088C145.261 79.7919 144.987 79.6249 144.833 79.4087C144.677 79.1916 144.644 78.9405 144.729 78.6566L145.157 77.2239C145.242 76.9399 145.409 76.7515 145.659 76.656C145.909 76.5604 146.23 76.5711 146.618 76.6872C147.008 76.804 147.279 76.9702 147.435 77.1899ZM145.996 77.0945C145.873 77.1456 145.789 77.2481 145.743 77.4018L145.314 78.8345C145.268 78.9882 145.283 79.1202 145.355 79.2298C145.43 79.3402 145.568 79.427 145.779 79.4902C145.988 79.5525 146.154 79.5567 146.277 79.5056C146.398 79.4537 146.482 79.3512 146.528 79.1976L146.957 77.7648C147.003 77.6111 146.988 77.4791 146.913 77.3687C146.839 77.2584 146.697 77.1707 146.492 77.1092C146.283 77.0469 146.118 77.04 145.996 77.0945Z" fill="#9E9E9E"/>
<path d="M144.302 76.2602C144.459 76.4773 144.492 76.7283 144.407 77.0096L143.979 78.4424C143.894 78.7263 143.727 78.9148 143.477 79.0103C143.227 79.1058 142.907 79.0952 142.519 78.9791C142.128 78.8622 141.854 78.6953 141.7 78.479C141.544 78.2619 141.511 78.0109 141.596 77.7269L142.025 76.2942C142.11 76.0102 142.277 75.8218 142.527 75.7263C142.776 75.6308 143.097 75.6414 143.485 75.7575C143.876 75.8744 144.149 76.0413 144.302 76.2602ZM142.864 76.1648C142.74 76.216 142.656 76.3184 142.61 76.4721L142.181 77.9048C142.136 78.0585 142.15 78.1905 142.222 78.3001C142.297 78.4105 142.436 78.4974 142.647 78.5605C142.855 78.6228 143.021 78.6271 143.144 78.5759C143.267 78.5248 143.349 78.4216 143.395 78.2679L143.824 76.8351C143.87 76.6814 143.855 76.5494 143.781 76.439C143.706 76.3287 143.565 76.241 143.359 76.1795C143.153 76.118 142.988 76.1111 142.864 76.1648Z" fill="#9E9E9E"/>
<path d="M141.173 75.3149C141.33 75.5319 141.363 75.783 141.279 76.0643L140.85 77.4971C140.765 77.781 140.598 77.9695 140.348 78.065C140.098 78.1605 139.778 78.1499 139.39 78.0338C138.999 77.9169 138.725 77.7499 138.572 77.5337C138.415 77.3166 138.382 77.0655 138.467 76.7816L138.896 75.3489C138.981 75.0649 139.148 74.8765 139.398 74.781C139.648 74.6854 139.968 74.6961 140.356 74.8122C140.744 74.9283 141.018 75.0952 141.173 75.3149ZM139.732 75.2187C139.609 75.2699 139.524 75.3723 139.478 75.526L139.05 76.9587C139.004 77.1124 139.018 77.2444 139.091 77.354C139.166 77.4644 139.304 77.5513 139.515 77.6144C139.724 77.6767 139.89 77.681 140.013 77.6298C140.136 77.5787 140.218 77.4755 140.264 77.3218L140.692 75.889C140.738 75.7353 140.724 75.6033 140.649 75.493C140.574 75.3826 140.433 75.295 140.227 75.2334C140.021 75.1719 139.856 75.165 139.732 75.2187Z" fill="#9E9E9E"/>
<path d="M134.17 73.2289C134.326 73.446 134.359 73.697 134.275 73.9784L133.846 75.4111C133.761 75.6951 133.594 75.8835 133.344 75.979C133.094 76.0746 132.774 76.0639 132.386 75.9478C131.995 75.831 131.721 75.664 131.568 75.4477C131.411 75.2306 131.378 74.9796 131.463 74.6957L131.892 73.2629C131.977 72.979 132.144 72.7906 132.394 72.695C132.644 72.5995 132.964 72.6102 133.352 72.7262C133.743 72.8431 134.016 73.01 134.17 73.2289ZM132.731 73.1336C132.608 73.1847 132.523 73.2871 132.477 73.4408L132.049 74.8736C132.003 75.0273 132.017 75.1593 132.089 75.2689C132.164 75.3792 132.303 75.4661 132.514 75.5292C132.722 75.5915 132.888 75.5958 133.012 75.5447C133.135 75.4935 133.217 75.3903 133.263 75.2366L133.691 73.8039C133.737 73.6502 133.723 73.5182 133.648 73.4078C133.573 73.2974 133.432 73.2098 133.226 73.1483C133.018 73.0859 132.855 73.0798 132.731 73.1336Z" fill="#9E9E9E"/>
<path d="M131.045 72.2914C131.201 72.5085 131.234 72.7595 131.15 73.0409L130.721 74.4736C130.636 74.7576 130.469 74.946 130.219 75.0415C129.969 75.1371 129.649 75.1264 129.261 75.0103C128.87 74.8935 128.596 74.7265 128.443 74.5102C128.286 74.2931 128.253 74.0421 128.338 73.7582L128.767 72.3254C128.852 72.0415 129.019 71.8531 129.269 71.7575C129.519 71.662 129.839 71.6727 130.227 71.7887C130.615 71.9048 130.889 72.0718 131.045 72.2914ZM129.603 72.1953C129.48 72.2464 129.396 72.3488 129.35 72.5025L128.921 73.9353C128.875 74.089 128.89 74.221 128.962 74.3306C129.037 74.4409 129.175 74.5278 129.386 74.5909C129.595 74.6533 129.761 74.6575 129.884 74.6064C130.004 74.5544 130.089 74.452 130.135 74.2983L130.563 72.8656C130.609 72.7119 130.595 72.5799 130.52 72.4695C130.445 72.3592 130.304 72.2715 130.098 72.21C129.892 72.1484 129.727 72.1415 129.603 72.1953Z" fill="#9E9E9E"/>
<path d="M127.908 71.3539C128.064 71.571 128.097 71.822 128.013 72.1034L127.584 73.5361C127.499 73.8201 127.332 74.0085 127.082 74.104C126.833 74.1996 126.512 74.1889 126.124 74.0728C125.733 73.956 125.46 73.789 125.306 73.5727C125.149 73.3556 125.117 73.1046 125.202 72.8207L125.63 71.3879C125.715 71.104 125.882 70.9156 126.132 70.82C126.382 70.7245 126.702 70.7352 127.09 70.8512C127.481 70.9681 127.752 71.1343 127.908 71.3539ZM126.469 71.2586C126.346 71.3097 126.261 71.4121 126.215 71.5658L125.787 72.9986C125.741 73.1523 125.755 73.2843 125.828 73.3939C125.902 73.5042 126.041 73.5911 126.252 73.6542C126.461 73.7165 126.627 73.7208 126.75 73.6697C126.873 73.6185 126.955 73.5153 127.001 73.3616L127.429 71.9289C127.475 71.7752 127.461 71.6432 127.386 71.5328C127.311 71.4224 127.17 71.3348 126.964 71.2733C126.756 71.2109 126.59 71.204 126.469 71.2586Z" fill="#9E9E9E"/>
<path d="M124.771 70.4086C124.928 70.6257 124.96 70.8767 124.876 71.1581L124.448 72.5908C124.363 72.8748 124.196 73.0632 123.946 73.1587C123.696 73.2543 123.376 73.2436 122.987 73.1275C122.597 73.0107 122.323 72.8437 122.169 72.6274C122.013 72.4103 121.98 72.1593 122.065 71.8754L122.493 70.4426C122.578 70.1587 122.745 69.9703 122.995 69.8747C123.245 69.7792 123.566 69.7899 123.954 69.9059C124.344 70.0228 124.618 70.1897 124.771 70.4086ZM123.332 70.3132C123.209 70.3644 123.125 70.4668 123.079 70.6205L122.65 72.0533C122.604 72.2069 122.619 72.339 122.691 72.4486C122.766 72.5589 122.904 72.6458 123.115 72.7089C123.324 72.7712 123.49 72.7755 123.613 72.7243C123.736 72.6732 123.818 72.57 123.864 72.4163L124.293 70.9836C124.339 70.8299 124.324 70.6978 124.249 70.5875C124.175 70.4771 124.033 70.3895 123.827 70.3279C123.619 70.2656 123.456 70.2595 123.332 70.3132Z" fill="#9E9E9E"/>
<path d="M118.361 68.4926C118.517 68.7097 118.55 68.9607 118.466 69.2421L118.038 70.6748C117.953 70.9587 117.786 71.1472 117.536 71.2427C117.286 71.3382 116.965 71.3276 116.577 71.2115C116.186 71.0946 115.913 70.9277 115.759 70.7114C115.603 70.4943 115.57 70.2433 115.655 69.9593L116.083 68.5266C116.168 68.2426 116.335 68.0542 116.585 67.9587C116.835 67.8632 117.155 67.8738 117.544 67.9899C117.934 68.1068 118.205 68.2729 118.361 68.4926ZM116.922 68.3972C116.799 68.4484 116.715 68.5508 116.669 68.7045L116.24 70.1372C116.194 70.2909 116.209 70.423 116.281 70.5325C116.353 70.6421 116.494 70.7298 116.705 70.7929C116.914 70.8552 117.08 70.8595 117.203 70.8083C117.326 70.7572 117.408 70.654 117.454 70.5003L117.882 69.0675C117.928 68.9139 117.914 68.7818 117.839 68.6715C117.764 68.5611 117.623 68.4735 117.417 68.4119C117.209 68.3496 117.044 68.3427 116.922 68.3972Z" fill="#9E9E9E"/>
<path d="M115.228 67.5688C115.385 67.7859 115.417 68.0369 115.333 68.3182L114.905 69.751C114.82 70.0349 114.653 70.2234 114.403 70.3189C114.153 70.4144 113.833 70.4038 113.444 70.2877C113.054 70.1708 112.78 70.0038 112.626 69.7876C112.47 69.5705 112.437 69.3195 112.522 69.0355L112.95 67.6028C113.035 67.3188 113.202 67.1304 113.452 67.0349C113.702 66.9393 114.023 66.95 114.411 67.0661C114.801 67.1829 115.075 67.3499 115.228 67.5688ZM113.789 67.4734C113.666 67.5245 113.582 67.627 113.536 67.7807L113.107 69.2134C113.061 69.3671 113.076 69.4991 113.148 69.6087C113.22 69.7183 113.361 69.806 113.572 69.8691C113.781 69.9314 113.947 69.9356 114.07 69.8845C114.193 69.8333 114.275 69.7302 114.321 69.5765L114.75 68.1437C114.796 67.99 114.781 67.858 114.706 67.7476C114.632 67.6373 114.49 67.5496 114.284 67.4881C114.076 67.4258 113.913 67.4196 113.789 67.4734Z" fill="#9E9E9E"/>
<path d="M112.095 66.6313C112.252 66.8484 112.285 67.0994 112.2 67.3807L111.772 68.8135C111.687 69.0974 111.52 69.2859 111.27 69.3814C111.02 69.4769 110.7 69.4663 110.312 69.3502C109.921 69.2333 109.647 69.0663 109.493 68.8501C109.337 68.633 109.304 68.382 109.389 68.098L109.818 66.6653C109.903 66.3813 110.07 66.1929 110.319 66.0974C110.569 66.0018 110.89 66.0125 111.278 66.1286C111.666 66.2447 111.94 66.4116 112.095 66.6313ZM110.654 66.5351C110.531 66.5863 110.446 66.6887 110.4 66.8424L109.972 68.2751C109.926 68.4288 109.94 68.5608 110.013 68.6704C110.087 68.7808 110.226 68.8677 110.437 68.9308C110.645 68.9931 110.812 68.9974 110.935 68.9462C111.058 68.8951 111.14 68.7919 111.186 68.6382L111.614 67.2054C111.66 67.0517 111.646 66.9197 111.571 66.8094C111.496 66.699 111.355 66.6114 111.149 66.5498C110.943 66.4883 110.778 66.4814 110.654 66.5351Z" fill="#9E9E9E"/>
<path d="M108.963 65.6879C109.119 65.905 109.152 66.156 109.068 66.4374L108.639 67.8701C108.554 68.1541 108.387 68.3425 108.137 68.438C107.887 68.5336 107.567 68.5229 107.179 68.4068C106.788 68.29 106.514 68.123 106.361 67.9067C106.204 67.6896 106.171 67.4386 106.256 67.1546L106.685 65.7219C106.77 65.438 106.937 65.2496 107.187 65.154C107.437 65.0585 107.757 65.0691 108.145 65.1852C108.536 65.3021 108.809 65.469 108.963 65.6879ZM107.524 65.5925C107.401 65.6437 107.316 65.7461 107.27 65.8998L106.842 67.3325C106.796 67.4862 106.81 67.6183 106.882 67.7278C106.957 67.8382 107.096 67.9251 107.307 67.9882C107.515 68.0505 107.681 68.0548 107.805 68.0036C107.925 67.9517 108.01 67.8493 108.056 67.6956L108.484 66.2629C108.53 66.1092 108.516 65.9771 108.441 65.8668C108.366 65.7564 108.225 65.6688 108.019 65.6072C107.81 65.5449 107.648 65.5388 107.524 65.5925Z" fill="#9E9E9E"/>
<path d="M104.141 64.2512C104.297 64.4683 104.33 64.7193 104.246 65.0006L103.817 66.4334C103.733 66.7173 103.565 66.9058 103.316 67.0013C103.066 67.0968 102.745 67.0862 102.357 66.9701C101.966 66.8532 101.693 66.6863 101.536 66.4692C101.38 66.2521 101.347 66.0011 101.432 65.7171L101.861 64.2844C101.945 64.0005 102.113 63.812 102.362 63.7165C102.612 63.621 102.933 63.6316 103.321 63.7477C103.712 63.8646 103.985 64.0315 104.141 64.2512ZM102.7 64.155C102.576 64.2062 102.492 64.3086 102.446 64.4623L102.017 65.895C101.971 66.0487 101.986 66.1808 102.058 66.2903C102.13 66.3999 102.272 66.4876 102.483 66.5507C102.691 66.613 102.857 66.6173 102.98 66.5661C103.103 66.515 103.185 66.4118 103.231 66.2581L103.66 64.8254C103.706 64.6717 103.691 64.5396 103.617 64.4293C103.542 64.3189 103.4 64.2313 103.195 64.1697C102.989 64.1082 102.823 64.1013 102.7 64.155Z" fill="#9E9E9E"/>
<path d="M101.002 63.3129C101.158 63.53 101.191 63.781 101.107 64.0624L100.678 65.4951C100.593 65.7791 100.426 65.9675 100.176 66.063C99.9263 66.1586 99.606 66.1479 99.2178 66.0318C98.8271 65.915 98.5535 65.748 98.3997 65.5317C98.2432 65.3146 98.2104 65.0636 98.2954 64.7796L98.7238 63.3469C98.8088 63.063 98.9758 62.8746 99.2257 62.779C99.4757 62.6835 99.796 62.6941 100.184 62.8102C100.575 62.9271 100.846 63.0933 101.002 63.3129ZM99.5628 63.2175C99.4397 63.2687 99.3552 63.3711 99.3092 63.5248L98.8807 64.9575C98.8347 65.1112 98.8492 65.2433 98.9214 65.3528C98.9962 65.4632 99.1349 65.5501 99.3459 65.6132C99.5543 65.6755 99.7204 65.6798 99.8436 65.6286C99.9641 65.5767 100.049 65.4743 100.095 65.3206L100.523 63.8879C100.569 63.7342 100.555 63.6021 100.48 63.4918C100.405 63.3814 100.264 63.2938 100.058 63.2322C99.8495 63.1699 99.6842 63.163 99.5628 63.2175Z" fill="#9E9E9E"/>
<path d="M97.8687 62.3754C98.0252 62.5925 98.0579 62.8435 97.9738 63.1249L97.5453 64.5576C97.4604 64.8416 97.2934 65.03 97.0434 65.1255C96.7935 65.2211 96.4732 65.2104 96.085 65.0943C95.6943 64.9775 95.4207 64.8105 95.2668 64.5942C95.1104 64.3771 95.0776 64.1261 95.1625 63.8421L95.591 62.4094C95.676 62.1255 95.843 61.937 96.0929 61.8415C96.3428 61.746 96.6632 61.7566 97.0513 61.8727C97.4421 61.9896 97.7157 62.1565 97.8687 62.3754ZM96.43 62.28C96.3069 62.3312 96.2223 62.4336 96.1764 62.5873L95.7479 64.02C95.7019 64.1737 95.7164 64.3058 95.7886 64.4153C95.8634 64.5257 96.002 64.6126 96.2131 64.6757C96.4215 64.738 96.5876 64.7423 96.7107 64.6911C96.8339 64.64 96.9158 64.5368 96.9618 64.3831L97.3903 62.9504C97.4363 62.7967 97.4218 62.6646 97.347 62.5543C97.2721 62.4439 97.1309 62.3563 96.9251 62.2947C96.7193 62.2332 96.554 62.2263 96.43 62.28Z" fill="#9E9E9E"/>
<path d="M94.7437 61.4301C94.9002 61.6472 94.933 61.8982 94.8488 62.1796L94.4203 63.6123C94.3354 63.8962 94.1684 64.0847 93.9184 64.1802C93.6685 64.2757 93.3482 64.2651 92.96 64.149C92.5693 64.0321 92.2957 63.8652 92.1418 63.6489C91.9854 63.4318 91.9526 63.1808 92.0375 62.8968L92.466 61.4641C92.551 61.1801 92.718 60.9917 92.9679 60.8962C93.2178 60.8007 93.5382 60.8113 93.9263 60.9274C94.3145 61.0435 94.5881 61.2104 94.7437 61.4301ZM93.3024 61.334C93.1793 61.3851 93.0947 61.4875 93.0488 61.6412L92.6203 63.074C92.5743 63.2277 92.5887 63.3597 92.661 63.4693C92.7358 63.5796 92.8744 63.6665 93.0854 63.7296C93.2938 63.7919 93.46 63.7962 93.5832 63.745C93.7037 63.6931 93.7882 63.5907 93.8342 63.437L94.2627 62.0043C94.3087 61.8506 94.2942 61.7185 94.2194 61.6082C94.1446 61.4978 94.0033 61.4102 93.7975 61.3486C93.5917 61.2871 93.4263 61.2802 93.3024 61.334Z" fill="#9E9E9E"/>
<path d="M121.364 61.3301C121.47 61.4808 121.495 61.6529 121.437 61.8456L121.143 62.8303C121.084 63.0257 120.969 63.1558 120.799 63.2213C120.626 63.286 120.407 63.28 120.141 63.2005C119.873 63.1202 119.686 63.0048 119.577 62.8559C119.471 62.7078 119.446 62.5357 119.504 62.3403L119.799 61.3556C119.857 61.1602 119.973 61.0302 120.143 60.9647C120.315 60.8999 120.535 60.906 120.8 60.9855C121.07 61.0631 121.256 61.1786 121.364 61.3301ZM120.374 61.2637C120.289 61.3007 120.231 61.3714 120.2 61.4756L119.905 62.4603C119.874 62.5645 119.884 62.6553 119.934 62.7329C119.985 62.8105 120.081 62.8677 120.225 62.9106C120.368 62.9534 120.483 62.9567 120.565 62.9214C120.65 62.8844 120.708 62.8138 120.739 62.7096L121.033 61.7249C121.065 61.6207 121.055 61.5298 121.004 61.4522C120.954 61.3747 120.857 61.3175 120.714 61.2746C120.572 61.2292 120.459 61.2266 120.374 61.2637Z" fill="#9E9E9E"/>
<path d="M119.208 60.6972C119.313 60.8479 119.339 61.0201 119.281 61.2128L118.986 62.1975C118.928 62.3929 118.813 62.523 118.643 62.5885C118.47 62.6532 118.25 62.6471 117.985 62.5677C117.716 62.4874 117.529 62.372 117.421 62.2231C117.315 62.075 117.289 61.9029 117.348 61.7075L117.642 60.7228C117.701 60.5274 117.816 60.3974 117.986 60.3319C118.159 60.2671 118.379 60.2732 118.644 60.3527C118.913 60.4303 119.103 60.5465 119.208 60.6972ZM118.218 60.6309C118.133 60.6679 118.075 60.7386 118.044 60.8428L117.749 61.8275C117.718 61.9317 117.728 62.0225 117.778 62.1001C117.829 62.1777 117.925 62.2349 118.069 62.2777C118.212 62.3206 118.327 62.3239 118.409 62.2886C118.494 62.2516 118.552 62.181 118.583 62.0768L118.877 61.0921C118.908 60.9879 118.899 60.897 118.848 60.8194C118.797 60.7419 118.701 60.6847 118.558 60.6418C118.418 60.5971 118.303 60.5938 118.218 60.6309Z" fill="#9E9E9E"/>
<path d="M116.584 62.3891L116.098 59.156L116.483 59.2713L116.969 62.5044L116.584 62.3891Z" fill="#9E9E9E"/>
<path d="M115.442 59.5683C115.548 59.719 115.573 59.8912 115.515 60.0839L115.221 61.0686C115.162 61.264 115.047 61.3941 114.877 61.4596C114.704 61.5243 114.485 61.5182 114.219 61.4388C113.951 61.3585 113.764 61.2431 113.655 61.0942C113.549 60.9461 113.524 60.774 113.582 60.5786L113.877 59.5939C113.935 59.3985 114.051 59.2685 114.221 59.203C114.393 59.1382 114.613 59.1443 114.879 59.2238C115.15 59.3022 115.337 59.4176 115.442 59.5683ZM114.455 59.5028C114.37 59.5398 114.312 59.6104 114.281 59.7146L113.986 60.6993C113.955 60.8035 113.965 60.8944 114.015 60.972C114.066 61.0495 114.162 61.1068 114.305 61.1496C114.449 61.1925 114.564 61.1957 114.646 61.1605C114.73 61.1235 114.789 61.0528 114.82 60.9486L115.114 59.964C115.145 59.8598 115.136 59.7689 115.085 59.6913C115.034 59.6137 114.938 59.5565 114.795 59.5137C114.652 59.4682 114.539 59.4657 114.455 59.5028Z" fill="#9E9E9E"/>
<path d="M113.302 58.9199C113.407 59.0706 113.432 59.2427 113.375 59.4355L113.08 60.4202C113.022 60.6156 112.906 60.7456 112.736 60.8111C112.564 60.8759 112.344 60.8698 112.078 60.7903C111.81 60.7101 111.623 60.5946 111.515 60.4457C111.408 60.2976 111.383 60.1255 111.442 59.9301L111.736 58.9455C111.795 58.7501 111.91 58.62 112.08 58.5545C112.253 58.4898 112.472 58.4958 112.738 58.5753C113.007 58.653 113.194 58.7684 113.302 58.9199ZM112.311 58.8535C112.227 58.8906 112.169 58.9612 112.137 59.0654L111.843 60.0501C111.812 60.1543 111.821 60.2452 111.872 60.3228C111.923 60.4003 112.019 60.4576 112.162 60.5004C112.306 60.5433 112.421 60.5465 112.502 60.5113C112.587 60.4742 112.645 60.4036 112.676 60.2994L112.971 59.3147C113.002 59.2105 112.992 59.1196 112.942 59.0421C112.891 58.9645 112.795 58.9073 112.652 58.8645C112.509 58.819 112.396 58.8165 112.311 58.8535Z" fill="#9E9E9E"/>
</svg>
