<svg width="596" height="741" viewBox="0 0 596 741" fill="none" xmlns="http://www.w3.org/2000/svg">
<g opacity="0.7">
<rect x="41.8438" y="60.1143" width="539.088" height="620.533" rx="20" fill="#D5DFED"/>
<mask id="mask0_940_9610" style="mask-type:alpha" maskUnits="userSpaceOnUse" x="41" y="60" width="540" height="621">
<rect x="41.8438" y="60.1143" width="539.088" height="620.533" rx="20" fill="#D5DFED"/>
</mask>
<g mask="url(#mask0_940_9610)">
<path d="M-99.7254 647.877H693.727V648.274H-99.7254V647.877Z" fill="#AFC0D9"/>
<path d="M43.6193 673.593H69.8984V673.989H43.6193V673.593Z" fill="#AFC0D9"/>
<path d="M111.333 667.838H171.334V668.234H111.333V667.838Z" fill="#AFC0D9"/>
<path d="M163.574 658.674H273.197V659.07H163.574V658.674Z" fill="#AFC0D9"/>
<path d="M517.755 661.337H576.2V661.734H517.755V661.337Z" fill="#AFC0D9"/>
<path d="M357.525 668.028H451.993V668.424H357.525V668.028Z" fill="#AFC0D9"/>
<path d="M317.63 577.168H624.045C629.044 577.168 633.091 573.11 633.091 568.116V137.789C633.043 132.827 629.012 128.832 624.045 128.816H317.63C312.631 128.816 308.569 132.875 308.569 137.869V568.116C308.569 573.11 312.631 577.168 317.63 577.168ZM624.045 129.133C628.822 129.133 632.694 133.017 632.694 137.789V568.116C632.694 572.888 628.822 576.756 624.045 576.772H317.63C312.854 576.772 308.982 572.888 308.966 568.116V137.789C308.966 133.017 312.854 129.149 317.63 129.133H624.045Z" fill="#AFC0D9"/>
<path d="M-25.633 577.168H280.798C285.797 577.168 289.844 573.11 289.859 568.116V137.789C289.812 132.827 285.765 128.832 280.798 128.816H-25.633C-30.6 128.832 -34.6149 132.827 -34.6625 137.789V568.116C-34.6625 573.11 -30.6317 577.153 -25.633 577.168ZM280.798 129.133C285.575 129.133 289.447 133.017 289.463 137.789V568.116C289.463 572.888 285.575 576.756 280.798 576.772H-25.633C-30.4096 576.772 -34.2816 572.888 -34.2975 568.116V137.789C-34.2975 133.017 -30.4096 129.149 -25.633 129.133H280.798Z" fill="#AFC0D9"/>
<path d="M288.336 41.6187H322.55V647.878H288.336V41.6187Z" fill="#F5F5F5"/>
<path d="M283.528 41.6187H288.336V647.878H283.528V41.6187Z" fill="#E0E0E0"/>
<path d="M472.877 586.808H653.261C653.261 575.726 644.263 566.736 633.171 566.736H472.877V586.808Z" fill="#E6E6E6"/>
<path d="M459.658 586.808H538.479C538.479 575.726 529.482 566.736 518.389 566.736H459.658V586.808Z" fill="#E0E0E0"/>
<path d="M346.845 586.808H527.229C527.229 575.726 518.231 566.736 507.138 566.736H346.845V586.808Z" fill="#E6E6E6"/>
<path d="M333.627 586.808H412.448C412.448 575.726 403.45 566.736 392.358 566.736H333.627V586.808Z" fill="#E0E0E0"/>
<path d="M90.7036 586.808H271.15C271.15 575.726 262.153 566.736 251.06 566.736C251.028 566.736 251.013 566.736 250.981 566.736H90.7036V586.808Z" fill="#E6E6E6"/>
<path d="M77.5476 586.808H156.369C156.369 575.726 147.371 566.736 136.279 566.736H77.5476V586.808Z" fill="#E0E0E0"/>
<path d="M13.8652 524.105H93.75L82.4988 647.878H25.1164L13.8652 524.105Z" fill="#AFC0D9"/>
<path d="M54.6011 544.747C56.0611 493.538 44.0799 387.522 22.6409 344.399L21.2285 345.097C41.8583 386.508 54.5535 493.063 52.9666 544.7L54.6011 544.747Z" fill="#AFC0D9"/>
<path d="M46.6661 443.931C46.6661 443.931 51.9188 394.355 71.3108 379.151C81.705 410.447 60.4087 421.228 46.6661 443.931Z" fill="#AFC0D9"/>
<path d="M46.6665 444.724C46.9522 444.724 47.2061 444.581 47.3489 444.343C50.8559 438.794 54.728 433.483 58.965 428.458C70.1844 414.49 79.8804 402.409 72.0729 378.914C71.9935 378.676 71.8031 378.486 71.5492 378.406C71.3111 378.327 71.0414 378.375 70.8351 378.533C51.3955 393.785 46.1111 441.823 45.9048 443.868C45.8572 444.232 46.0794 444.581 46.4285 444.692L46.6665 444.724ZM70.9144 380.499C77.7857 402.457 68.4706 414.062 57.7114 427.459C54.4265 431.549 51.0464 435.75 47.9202 440.491C49.4436 429.139 55.6325 393.579 70.9144 380.499Z" fill="#AFC0D9"/>
<path d="M53.3478 513.705C53.3478 513.705 61.2824 444.739 85.3716 426.507C97.432 465.08 70.6609 486.214 53.3478 513.705Z" fill="#AFC0D9"/>
<path d="M53.3469 514.672C53.6801 514.672 53.9975 514.513 54.1721 514.228C57.8696 508.346 62.1066 502.686 66.1215 497.217C81.451 476.511 95.9235 456.979 86.3069 426.238C86.2117 425.937 85.9736 425.699 85.6721 425.604C85.3706 425.509 85.0373 425.572 84.7834 425.762C60.6625 444.01 52.7121 510.756 52.3789 513.594C52.3313 514.054 52.6011 514.466 53.0295 514.624C53.1247 514.656 53.2358 514.672 53.3469 514.672ZM84.8628 428.188C93.3369 457.201 79.3562 476.083 64.5663 496.059C61.3925 500.435 57.9965 504.922 54.8862 509.567C57.0444 494.585 65.5978 444.312 84.8628 428.188Z" fill="#AFC0D9"/>
<path d="M37.938 393.785C37.938 393.785 41.5879 359.207 55.1242 348.601C62.3763 370.432 47.5229 377.962 37.938 393.785Z" fill="#AFC0D9"/>
<path d="M37.9382 394.339C38.1287 394.339 38.3032 394.228 38.3985 394.07C40.8423 390.201 43.5559 386.492 46.4917 382.972C54.331 373.222 61.0912 364.803 55.6481 348.41C55.5846 348.236 55.4576 348.109 55.2831 348.046C55.1085 347.998 54.9181 348.046 54.7753 348.141C41.2231 358.779 37.5256 392.294 37.3193 393.721C37.2876 393.975 37.4463 394.213 37.6843 394.292C37.7637 394.339 37.843 394.355 37.9382 394.339ZM54.8388 349.536C59.5995 364.867 53.1408 372.952 45.6347 382.29C43.3337 385.144 40.9851 388.093 38.7952 391.39C39.9219 383.479 44.1906 358.699 54.8388 349.536Z" fill="#AFC0D9"/>
<path d="M446.169 350.265C461.261 349.203 467.783 350.963 474.305 337.408C480.827 323.853 503.583 316.576 510.978 328.403C518.373 340.23 521.039 348.442 538.146 341.435C555.253 334.427 560.887 339.516 563.362 348.854C565.838 358.192 604.971 353.69 593.513 367.039H448.565C448.565 367.039 431.014 351.328 446.169 350.265Z" fill="#F5F5F5"/>
<path d="M-2.60688 277.844C5.93066 277.242 9.61228 278.241 13.2622 270.567C16.912 262.894 29.8294 258.772 34.0188 265.462C38.2083 272.153 39.6999 276.814 49.3801 272.834C59.0602 268.855 62.2498 271.756 63.6622 277.036C65.0745 282.315 87.2118 279.778 80.7214 287.325H-1.33737C-1.33737 287.325 -11.1444 278.383 -2.60688 277.844Z" fill="#F5F5F5"/>
<path d="M99.5578 91.9075C103.795 85.0268 115.903 82.7439 126.726 88.0867C137.548 93.4295 130.185 59.9457 150.434 65.5581C179.347 73.5802 171.302 97.5357 183.346 95.3478C195.391 93.16 230.715 99.026 212.038 110.996H105.16C105.16 110.996 95.3367 98.7723 99.5578 91.9075Z" fill="#F5F5F5"/>
</g>
<path d="M174.746 216.854L187.647 209.149L180.141 207.674L160.146 211.638L174.746 216.854Z" fill="#AFC0D9"/>
<path opacity="0.3" d="M174.746 216.854L187.647 209.149L180.141 207.674L160.146 211.638L174.746 216.854Z" fill="#AFC0D9"/>
<path d="M85.4989 193.231L101.193 173.54L95.3853 172.415C90.6722 171.495 85.8004 171.955 81.3412 173.731L51.0313 185.891L85.4989 193.231Z" fill="#AFC0D9"/>
<path opacity="0.3" d="M85.4989 193.231L101.193 173.54L95.3853 172.415C90.6722 171.495 85.8004 171.955 81.3412 173.731L51.0313 185.891L85.4989 193.231Z" fill="#AFC0D9"/>
<path d="M3.20203 179.121L7.86754 177.964C12.3902 176.775 17.1192 176.664 21.6895 177.631L175.381 212.51L176.825 219.121L170.827 223.401L15.3101 192.977C10.2162 191.979 5.47133 189.68 1.5358 186.287C-0.225662 184.892 -0.511307 182.323 0.885162 180.564C1.47232 179.834 2.28163 179.327 3.20203 179.121Z" fill="#AFC0D9"/>
<path d="M97.1944 227.295L164.483 241.584L164.309 242.406L97.0195 228.117L97.1944 227.295Z" fill="#AFC0D9"/>
<path d="M105.889 184.097L149.739 193.409L149.564 194.231L105.714 184.919L105.889 184.097Z" fill="#AFC0D9"/>
<path d="M177.038 244.261L195.06 248.088L194.885 248.91L176.863 245.083L177.038 244.261Z" fill="#AFC0D9"/>
<path opacity="0.3" d="M19.1983 190.25L171.081 222.577C171.779 222.72 172.446 222.973 173.064 223.338C172.319 223.433 171.557 223.417 170.827 223.259L15.3103 192.851C12.7713 192.343 10.3116 191.519 7.97885 190.393L7.40759 190.124C11.3114 189.379 15.3104 189.426 19.1983 190.25Z" fill="#AFC0D9"/>
<path d="M176.825 218.994L180.729 235.466L173.222 233.992L159.559 216.172L176.825 218.994Z" fill="#AFC0D9"/>
<path d="M175.381 212.383L184.49 195.911L177.492 194.531L157.291 208.847L175.381 212.383Z" fill="#AFC0D9"/>
<path d="M84.134 200.159L86.6572 247.721C79.4527 246.31 73.232 241.792 69.6773 235.387L45.9531 192.724L84.134 200.159Z" fill="#AFC0D9"/>
<g opacity="0.5">
<path d="M123.61 205.944L125.522 206.335L124.805 209.83L122.893 209.438L123.61 205.944Z" fill="white"/>
<path d="M119.737 205.206L121.649 205.598L120.933 209.092L119.021 208.701L119.737 205.206Z" fill="white"/>
<path d="M115.865 204.414L117.777 204.806L117.061 208.3L115.148 207.909L115.865 204.414Z" fill="white"/>
<path d="M111.99 203.622L113.902 204.014L113.186 207.508L111.273 207.117L111.99 203.622Z" fill="white"/>
<path d="M108.118 202.83L110.03 203.221L109.314 206.716L107.401 206.324L108.118 202.83Z" fill="white"/>
<path d="M104.246 202.038L106.158 202.429L105.441 205.924L103.529 205.532L104.246 202.038Z" fill="white"/>
<path d="M100.361 201.243L102.273 201.634L101.557 205.129L99.6446 204.737L100.361 201.243Z" fill="white"/>
<path d="M96.4932 200.391L98.4053 200.783L97.6879 204.278L95.7758 203.886L96.4932 200.391Z" fill="white"/>
<path d="M92.6142 199.658L94.5264 200.05L93.8096 203.544L91.8975 203.153L92.6142 199.658Z" fill="white"/>
<path d="M88.7607 198.854L90.6729 199.245L89.9561 202.74L88.044 202.348L88.7607 198.854Z" fill="white"/>
<path d="M84.877 198.043L86.8047 198.438L86.088 201.932L84.1603 201.537L84.877 198.043Z" fill="white"/>
<path d="M81.0175 197.27L82.9297 197.661L82.213 201.156L80.3008 200.764L81.0175 197.27Z" fill="white"/>
<path d="M77.1377 196.412L79.0498 196.804L78.3325 200.299L76.4203 199.907L77.1377 196.412Z" fill="white"/>
<path d="M73.2481 195.664L75.1758 196.059L74.459 199.553L72.5314 199.159L73.2481 195.664Z" fill="white"/>
<path d="M69.3731 194.871L71.3008 195.266L70.584 198.761L68.6564 198.366L69.3731 194.871Z" fill="white"/>
<path d="M65.5136 194.098L67.4258 194.489L66.709 197.984L64.7969 197.592L65.5136 194.098Z" fill="white"/>
<path d="M61.6289 193.287L63.5566 193.682L62.8399 197.176L60.9122 196.782L61.6289 193.287Z" fill="white"/>
<path d="M57.7539 192.511L59.6816 192.905L58.9649 196.4L57.0372 196.005L57.7539 192.511Z" fill="white"/>
<path d="M53.8974 191.722L55.8096 192.113L55.0928 195.608L53.1807 195.216L53.8974 191.722Z" fill="white"/>
<path d="M49.9912 190.857L51.9033 191.249L51.186 194.743L49.2739 194.352L49.9912 190.857Z" fill="white"/>
<path d="M46.126 190.116L48.0537 190.51L47.337 194.005L45.4093 193.61L46.126 190.116Z" fill="white"/>
<path d="M42.251 189.355L44.1631 189.747L43.4464 193.241L41.5342 192.85L42.251 189.355Z" fill="white"/>
</g>
<path opacity="0.5" d="M3.20209 179.121L7.86759 177.964C8.48649 177.805 9.12127 177.647 9.7719 177.536L16.6432 178.867C17.6112 179.058 18.2301 179.993 18.0555 180.944C17.881 181.895 16.9288 182.53 15.9608 182.355L2.12301 179.549C2.45626 179.359 2.82124 179.216 3.20209 179.121Z" fill="white"/>
<path d="M400.575 86.0078H403.35V240.444H400.575V86.0078Z" fill="#AFC0D9"/>
<path d="M369.237 166.533H595.656V217.995H369.237V166.533Z" fill="#AFC0D9"/>
<path opacity="0.3" d="M369.237 166.533H595.656V217.995H369.237V166.533Z" fill="white"/>
<path d="M567.901 188.38L573.503 182.783H581.263L574.518 189.521H588.118V195.007H574.503L581.263 201.745H573.503L567.901 196.132L564.029 192.248L567.901 188.38Z" fill="white"/>
<path opacity="0.7" d="M382.218 184.749H463.61V199.779H382.218V184.749Z" fill="#AFC0D9"/>
<path opacity="0.7" d="M475.908 184.749H510.772V199.779H475.908V184.749Z" fill="#AFC0D9"/>
<path d="M523.579 176.933H554.285V207.611H523.579V176.933Z" fill="white"/>
<path d="M527.102 184.749H528.182C528.816 184.797 529.435 184.971 529.991 185.256L534.751 187.634L543.67 186.144C544.431 186.049 545.193 186.176 545.876 186.509L546.732 186.905L540.909 190.98L546.32 193.516L549.906 192.486L551.493 193.247L547.304 196.418L538.449 192.232L533.45 189.759L528.42 187.349C528.055 187.159 527.705 186.937 527.388 186.667C527.102 186.43 526.849 186.144 526.642 185.827C526.404 185.558 526.436 185.145 526.706 184.908C526.817 184.812 526.96 184.749 527.102 184.749Z" fill="#AFC0D9"/>
<path d="M525.69 201.364H552.191V203.933H525.69V201.364Z" fill="#AFC0D9"/>
<path d="M369.237 233.294H595.656V284.757H369.237V233.294Z" fill="#AFC0D9"/>
<path opacity="0.3" d="M369.237 233.294H595.656V284.757H369.237V233.294Z" fill="white"/>
<path d="M584.246 255.141L578.628 249.545H570.869L577.629 256.283H564.029V261.753H577.629L570.869 268.506H578.628L584.246 262.894L588.118 259.01L584.246 255.141Z" fill="white"/>
<path opacity="0.7" d="M382.218 251.511H463.61V266.54H382.218V251.511Z" fill="#AFC0D9"/>
<path opacity="0.7" d="M475.908 251.511H510.772V266.54H475.908V251.511Z" fill="#AFC0D9"/>
<path d="M523.579 243.679H554.285V274.356H523.579V243.679Z" fill="white"/>
<path d="M527.102 251.511H528.182C528.816 251.558 529.419 251.717 529.991 252.002L534.751 254.38L543.67 252.906C544.416 252.811 545.193 252.938 545.876 253.255L546.732 253.667L540.909 257.726L546.32 260.278L549.906 259.248L551.493 260.009L547.304 263.179L538.481 258.946L533.434 256.521L528.372 254.063C527.991 253.873 527.658 253.651 527.34 253.366C527.055 253.128 526.801 252.842 526.595 252.525C526.388 252.224 526.468 251.828 526.769 251.622C526.864 251.558 526.991 251.511 527.102 251.511Z" fill="#AFC0D9"/>
<path d="M525.69 268.11H552.191V270.678H525.69V268.11Z" fill="#AFC0D9"/>
</g>
<path d="M305.437 740.761C367.838 740.761 418.423 733.734 418.423 725.067C418.423 716.399 367.838 709.373 305.437 709.373C243.036 709.373 192.45 716.399 192.45 725.067C192.45 733.734 243.036 740.761 305.437 740.761Z" fill="#E0E0E0"/>
<path d="M253.192 234.987C253.192 234.987 243.319 249.117 241.982 259.875C240.644 270.633 256.771 331.168 265.287 345.072C273.803 358.976 288.16 377.346 293.981 380.04C299.803 382.734 336.128 328.926 339.274 316.378C342.42 303.83 342.42 290.811 342.42 290.811L338.615 237.681L296.242 252.245L253.192 234.987Z" fill="white"/>
<path d="M285.032 263.022L293.096 274.213L279.191 376.442L300.726 392.136L311.484 381.83L302.064 274.665L309.242 261.665L296.242 252.245L285.032 263.022Z" fill="#F8A801"/>
<path d="M275.913 703.305L274.236 719.678L281.433 721.468L283.412 717.21C283.412 717.21 289.12 730.436 312.859 727.082C308.526 717.21 284.712 710.936 284.712 710.936L285.088 702.42L275.894 703.324L275.913 703.305Z" fill="#070A1C"/>
<path d="M312.389 722.599C317.042 715.195 324.202 714.761 324.202 714.761L326.971 695.487L320.641 687.857L325.521 680.905L339.915 686.067L335.958 697.503L332.36 696.373C332.36 696.373 334.338 719.905 333.905 721.939C333.471 723.955 312.389 722.618 312.389 722.618V722.599Z" fill="#070A1C"/>
<path d="M358.265 507.384C358.265 507.384 353.611 548.136 341.177 590.885C339.632 596.217 337.955 601.586 336.146 606.918C319.925 654.886 285.333 704.21 285.333 704.21L275.913 703.306L295.828 577.753L300.726 546.817C300.726 546.817 242.509 545.027 226.796 554.88C225.383 545.46 223.97 530.105 225.1 508.25L277.402 487.639L358.265 507.365V507.384Z" fill="url(#paint0_linear_940_9610)"/>
<path style="mix-blend-mode:multiply" opacity="0.6" d="M341.177 590.884C339.632 596.216 337.955 601.586 336.146 606.918C319.925 654.886 285.333 704.21 285.333 704.21L275.913 703.306L295.828 577.752C304.796 580.239 326.651 586.325 341.177 590.865V590.884Z" fill="url(#paint1_linear_940_9610)"/>
<path d="M287.651 714.742L290.817 716.324L297.731 713.63L294.359 711.84L287.651 714.742Z" fill="#6A6C77"/>
<path d="M324.767 700.856L324.334 703.306L328.611 703.758L328.573 700.856H324.767Z" fill="#6A6C77"/>
<path d="M371.114 503.333C352.274 516.785 308.79 519.931 299.822 515.447C296.77 513.921 294.867 509.908 293.68 505.292C291.362 496.305 291.758 484.963 291.758 484.963L294 380.04C294 380.04 294.641 379.551 295.771 378.608C302.026 373.409 323.241 354.624 331.229 332.958C340.649 307.391 334.809 301.117 334.809 301.117C334.809 301.117 345.567 282.729 347.356 273.78C349.146 264.812 350.484 243.729 350.484 243.729C361.242 250.907 394.42 236.118 394.42 236.118C394.42 236.118 374.694 352.251 370.21 395.735C365.726 439.237 367.968 478.237 371.095 503.352L371.114 503.333Z" fill="url(#paint2_linear_940_9610)"/>
<g style="mix-blend-mode:multiply" opacity="0.5">
<path d="M293.68 505.292C291.362 496.305 291.758 484.963 291.758 484.963L294 380.04C294 380.04 294.641 379.55 295.771 378.608C296.657 379.531 297.146 380.04 297.146 380.04C297.146 380.04 303.873 392.154 306.115 407.83C308.074 421.432 305.286 479.555 293.699 505.273L293.68 505.292Z" fill="#070A1C"/>
</g>
<path d="M235.708 245.971C227.192 255.844 203.434 260.761 194.014 259.423C211.498 294.843 224.95 380.492 226.287 415.008C227.625 449.524 215.077 507.364 215.077 507.364C215.077 507.364 267.982 530.689 284.58 514.543C301.179 498.396 305.21 423.524 302.968 407.83C300.726 392.136 294 380.04 294 380.04C294 380.04 265.306 350.894 254.548 328.474C243.79 306.054 250.516 301.117 250.516 301.117L235.727 245.971H235.708Z" fill="url(#paint3_linear_940_9610)"/>
<path d="M324.484 206.745C324.71 219.293 326.726 233.65 326.726 233.65L295.564 259.197L262.838 230.277L267.096 200.679L324.484 206.727V206.745Z" fill="#F0C4AB"/>
<path d="M257.657 118.42C257.657 118.42 241.379 114.162 237.78 116.48C234.182 118.797 231.883 143.422 233.861 146.945C235.84 150.468 252.476 153.087 252.476 153.087L257.657 118.42Z" fill="#F0C4AB"/>
<path d="M357.267 140.219C357.267 140.219 373.827 143.158 376.145 146.757C378.462 150.355 370.248 173.699 366.969 176.073C363.691 178.446 347.488 173.868 347.488 173.868L357.267 140.2V140.219Z" fill="#F0C4AB"/>
<path d="M376.786 96.6597C374.261 101.935 360.545 131.778 360.451 131.967C359.905 133.625 359.226 136.074 358.435 139.107C353.16 159.116 342.835 204.54 333.905 213.942C331.154 216.843 326.237 218.464 320.283 219.161C319.737 219.236 319.209 219.274 318.663 219.33C314.989 219.651 310.976 219.669 306.887 219.443C300.613 219.123 294.114 218.219 288.273 217.088C287.764 216.975 287.237 216.843 286.709 216.693C286.276 216.58 285.824 216.466 285.39 216.353C284.882 216.222 284.354 216.071 283.845 215.939C283.393 215.826 282.96 215.694 282.508 215.562C278.457 214.413 274.331 213.038 270.393 211.474C266.569 209.967 262.932 208.271 259.73 206.443C259.259 206.18 258.788 205.897 258.317 205.614C253.192 202.487 249.405 198.982 248.105 195.177C243.922 182.912 253.512 137.299 257.092 116.932C257.638 113.842 258.034 111.336 258.241 109.603C258.241 109.603 258.241 76.5568 258.147 70.6974C258.053 64.8192 274.896 60.2409 274.896 60.2409C274.896 60.2409 267.737 38.9323 294.754 30.8497C297.75 29.9642 300.896 29.7193 304.156 30.0584C305.493 30.1903 306.831 30.4164 308.206 30.7179C316.779 32.6584 325.822 37.9526 334.112 44.4526C334.621 44.8671 335.148 45.2816 335.657 45.6961C350.993 58.0931 363.578 74.2395 365.934 80.1742C365.934 80.1742 379.31 91.3655 376.786 96.6597Z" fill="#283760"/>
<g style="mix-blend-mode:screen" opacity="0.5">
<path d="M300.727 73.9756L299.916 75.0495C288.311 66.138 283.959 54.4757 288.292 43.8496C291.099 36.954 297.166 31.8859 304.137 30.0396C305.474 30.1714 306.812 30.3975 308.187 30.699C300.124 31.3395 292.663 36.6337 289.517 44.3395C285.447 54.3815 289.63 65.4597 300.708 73.9756H300.727Z" fill="#53638E"/>
</g>
<g style="mix-blend-mode:screen" opacity="0.5">
<path d="M332.246 80.6264L331.568 81.7945C320.377 75.2192 318.945 61.2584 324.013 52.0642C326.5 47.5613 330.117 44.9425 334.131 44.4526C334.639 44.8671 335.167 45.2816 335.675 45.6961C330.965 45.5831 327.31 48.8802 325.2 52.7236C320.433 61.3526 321.771 74.4844 332.265 80.6453L332.246 80.6264Z" fill="#53638E"/>
</g>
<path d="M360.489 105.458V95.0015C360.508 88.8784 356.193 83.603 350.202 82.3972C350.202 82.3972 326.425 80.0987 318.606 78.3842C310.788 76.6697 288.235 68.8321 288.235 68.8321C282.282 67.419 276.159 70.4147 273.615 75.9726L269.263 85.4682C261.991 101.332 258.449 118.628 258.901 136.074L259.051 141.914C259.202 147.755 263.272 152.748 268.943 154.085C276.347 155.819 286.841 158.249 295.979 160.303C297.373 160.623 298.88 160.943 300.463 161.301C302.046 161.64 303.534 161.98 304.947 162.281C314.103 164.24 324.654 166.426 332.115 167.933C337.842 169.101 343.608 166.256 346.189 161.019L348.77 155.781C356.457 140.125 360.47 122.923 360.508 105.477L360.489 105.458Z" fill="#F0C4AB"/>
<path d="M308.168 152.201C307.32 137.204 311.578 123.715 317.909 124.92L327.97 110.639L298.183 97.1118L303.778 100.692C306.868 107.794 304.287 136.526 297.241 149.79C293.963 146.662 288.706 147.925 289.158 152.145C289.516 155.499 295.621 159.719 300.557 160.793C305.493 161.867 312.803 160.586 314.518 157.703C316.703 154.048 312.426 150.713 308.149 152.183L308.168 152.201Z" fill="url(#paint4_linear_940_9610)"/>
<path d="M305.644 85.4498C305.644 85.4498 306.473 98.2048 304.739 102.689C300.5 99.599 278.984 100.428 273.709 104.14C273.709 104.14 272.258 98.9584 272.597 95.7932C274.293 93.5324 276.271 91.7614 278.362 90.3483C279.154 92.2324 280.473 95.2845 280.529 95.0396C280.586 94.8324 280.322 91.6295 280.115 89.2744C289.422 84.0744 300.236 85.4498 300.236 85.4498L303.006 98.6381L304.061 85.4309H305.625L305.644 85.4498Z" fill="#283760"/>
<path d="M315.573 109.754C315.573 109.754 314.197 116.065 313.764 121.416C313.557 124.054 315.686 126.239 318.323 126.221C326.255 126.145 340.593 129.461 344.323 133.041C344.323 133.041 346.546 128.142 346.659 124.939C345.322 122.452 343.645 120.399 341.78 118.703C340.725 120.436 338.954 123.263 338.935 123.018C338.916 122.792 339.651 119.664 340.216 117.384C331.794 110.847 320.886 110.583 320.886 110.583L316.176 123.206L317.118 109.98L315.554 109.754H315.573Z" fill="#283760"/>
<path d="M341.253 138.391C341.253 138.391 336.524 144.477 335.205 145.325C333.886 146.173 320.905 142.668 320.001 141.67C319.624 141.255 319.511 139.597 319.511 137.807C319.511 135.32 319.737 132.551 319.737 132.551L321.941 130.61L324.428 131.194L332.096 133.003L332.567 133.267L335.243 134.849L341.29 138.41L341.253 138.391Z" fill="white"/>
<path d="M332.454 135.773C331.625 139.56 327.876 141.971 324.089 141.142C322.092 140.709 320.472 139.447 319.511 137.807C319.511 135.32 319.737 132.551 319.737 132.551L321.941 130.61L324.428 131.194L332.096 133.003L332.567 133.267C332.68 134.077 332.661 134.925 332.473 135.791L332.454 135.773Z" fill="#283760"/>
<path d="M342.307 136.526L341.252 138.391C341.252 138.391 328.818 131.628 319.718 132.551C319.303 131.496 319.209 129.687 319.209 129.687C319.209 129.687 329.703 128.274 342.289 136.526H342.307Z" fill="#283760"/>
<path d="M355.27 169.742C355.27 169.742 360.79 170.948 364.238 168.838C367.685 166.728 371.454 149.884 371.454 149.884C371.454 149.884 364.313 146.493 361.996 148.151C359.678 149.828 356.381 162.413 355.27 169.742Z" fill="#C78B67"/>
<path d="M247.144 146.06C247.144 146.06 241.623 144.854 239.381 141.5C237.139 138.147 240.757 121.265 240.757 121.265C240.757 121.265 248.651 121.152 250.064 123.639C251.477 126.126 249.197 138.938 247.144 146.06Z" fill="#C78B67"/>
<path d="M371.454 149.865C371.454 149.865 362.203 144.929 360.922 147.096C356.343 154.933 355.307 169.045 355.307 169.045L355.27 169.723C355.27 169.723 360.526 149.413 362.241 148.867C363.974 148.32 371.435 149.846 371.435 149.846L371.454 149.865Z" fill="#73503B"/>
<path d="M240.738 121.247C240.738 121.247 251.214 120.625 251.459 123.131C252.344 132.155 247.389 145.419 247.389 145.419L247.144 146.06C247.144 146.06 250.856 125.41 249.518 124.205C248.18 122.999 240.757 121.247 240.757 121.247H240.738Z" fill="#73503B"/>
<path d="M295.036 127.652C295.036 127.652 291.947 135.169 290.684 135.659C289.422 136.149 276.252 133.398 275.461 132.042C275.122 131.458 274.651 129.724 274.236 127.935C273.671 125.58 273.2 123.13 273.2 123.13C273.2 123.13 278.476 118.985 285.56 119.777C285.786 119.796 286.031 119.833 286.238 119.871C292.794 121.02 295.036 127.633 295.036 127.633V127.652Z" fill="white"/>
<path d="M287.273 125.806C286.275 129.668 282.337 131.985 278.456 130.987C276.647 130.516 275.159 129.385 274.217 127.935C273.652 125.58 273.181 123.13 273.181 123.13C273.181 123.13 278.456 118.985 285.54 119.777C285.766 119.796 286.011 119.833 286.218 119.871C287.368 121.529 287.82 123.677 287.273 125.787V125.806Z" fill="#283760"/>
<path d="M295.036 127.652L296.298 126.559C296.298 126.559 295.451 119.739 286.671 118.157C277.872 116.574 272.898 122.396 272.898 122.396L273.2 123.112C273.2 123.112 280.02 118.326 286.69 120.059C293.359 121.793 295.036 127.633 295.036 127.633V127.652Z" fill="#283760"/>
<path style="mix-blend-mode:multiply" opacity="0.6" d="M277.571 175.131C279.587 180.067 283.167 185.889 289.686 183.42C296.186 180.952 295.281 175.357 294.396 171.984C293.492 168.631 282.508 162.564 277.59 175.131H277.571Z" fill="url(#paint5_linear_940_9610)"/>
<path d="M276.799 174.49C276.761 173.604 276.949 172.7 277.27 171.795C277.439 171.343 277.665 170.891 277.91 170.439L278.344 169.78C278.513 169.553 278.664 169.346 278.852 169.12C279.568 168.253 280.51 167.462 281.622 166.859C282.752 166.238 284.052 165.804 285.371 165.635C286.69 165.446 288.028 165.54 289.215 165.823C289.516 165.898 289.818 165.974 290.081 166.068C290.364 166.162 290.646 166.256 290.91 166.369C291.193 166.464 291.438 166.596 291.683 166.727C291.928 166.859 292.154 166.991 292.399 167.142C294.207 168.31 295.413 169.855 295.978 171.513L296.129 171.946C296.355 172.624 295.903 173.359 295.112 173.585C294.452 173.774 293.774 173.548 293.435 173.095C292.606 171.984 291.551 170.985 290.27 170.307C289.007 169.629 287.481 169.271 285.974 169.459C284.467 169.629 283.035 170.364 281.98 171.4C280.887 172.436 280.152 173.755 279.644 175.111C279.38 175.771 278.57 176.166 277.816 175.959C277.232 175.809 276.855 175.356 276.836 174.848V174.49H276.799Z" fill="#B27171"/>
<path d="M261.255 226.472L296.242 252.246L279.191 275.344L253.191 234.988L261.255 226.472Z" fill="#EDE6E6"/>
<path d="M296.242 253.263L312.37 275.004L338.615 238.68L328.742 229.938L296.242 253.263Z" fill="#EDE6E6"/>
<path d="M253.192 234.987C241.982 271.537 259.014 338.327 294 380.04C268.434 367.04 247.822 336.989 242.434 324.442C237.045 311.894 247.822 300.232 247.822 300.232C247.822 300.232 235.708 298.442 233.466 294.843C231.224 291.263 234.803 249.117 235.708 245.971C236.612 242.824 253.192 234.987 253.192 234.987Z" fill="#283760"/>
<path d="M294 380.041C315.083 360.315 345.567 279.15 338.615 237.682C350.503 238.793 353.178 244.634 353.178 244.634C353.178 244.634 360.055 278.377 356.325 295.748C355.081 301.513 339.726 300.232 339.726 300.232C339.726 300.232 346.904 310.99 346 322.2C345.096 333.41 310.128 380.041 293.981 380.041H294Z" fill="#283760"/>
<path d="M194.014 259.424C175.625 305.15 189.53 389.442 235.708 411.862C281.886 434.282 354.083 402.442 354.083 402.442L353.631 393.022C353.631 393.022 259.466 418.136 228.53 330.245C231.224 288.551 205.657 262.984 194.014 259.405V259.424Z" fill="url(#paint6_linear_940_9610)"/>
<path d="M221.351 445.059L243.772 449.09L242.886 456.269L220.014 455.364L221.351 445.059Z" fill="#F8A801"/>
<path d="M341.517 448.187L343.759 455.365L371.115 450.429L369.777 441.008L341.517 448.187Z" fill="#F8A801"/>
<path d="M295.338 451.785C295.338 454.517 293.134 456.722 290.402 456.722C287.67 456.722 285.466 454.517 285.466 451.785C285.466 449.053 287.67 446.849 290.402 446.849C293.134 446.849 295.338 449.053 295.338 451.785Z" fill="#F8A801"/>
<path d="M362.279 407.133C365.613 412.032 365.802 412.427 362.674 414.575C359.547 416.723 360.131 420.642 364.445 420.849C368.76 421.037 373.658 417.326 374.638 411.843C375.618 406.361 368.948 403.214 368.948 403.214L362.279 407.133Z" fill="#F0C4AB"/>
<path d="M366.782 405.965C373.244 411.052 371.492 414.594 364.822 417.721C358.153 420.849 362.675 428.102 371.096 424.768C379.518 421.433 380.705 409.488 378.143 405.758C375.599 402.027 369.909 403.007 369.909 403.007L366.782 405.946V405.965Z" fill="#F0C4AB"/>
<path d="M370.304 404.194C377.746 407.321 378.538 415.95 371.096 420.849C363.654 425.747 373.055 433.585 380.101 424.579C387.148 415.573 387.148 409.884 384.811 406.153C382.456 402.423 372.075 402.818 370.304 404.194Z" fill="#F0C4AB"/>
<path d="M352.67 399.691C355.421 407.717 365.01 409.488 368.345 406.549C371.68 403.61 381.665 402.046 382.852 409.883C384.039 417.721 378.142 418.117 377.163 421.452C376.183 424.786 385.584 429.685 388.731 419.097C391.858 408.508 386.96 397.543 374.035 397.939C361.092 398.334 352.67 399.71 352.67 399.71V399.691Z" fill="#F0C4AB"/>
<path d="M530.675 89.6516C521.085 118.063 494.539 135.943 466.108 135.867C464.13 127.653 458.101 120.607 449.51 117.705C440.919 114.804 431.856 116.763 425.3 122.095C402.653 104.931 392.385 74.6169 401.975 46.2054C413.977 10.6722 452.524 -8.41325 488.058 3.58815C523.591 15.5896 542.676 54.1372 530.675 89.6704V89.6516Z" fill="#F8A801"/>
<path d="M457.686 147.303C454.653 156.309 444.894 161.132 435.888 158.099C426.882 155.066 422.059 145.306 425.092 136.301C428.126 127.295 437.885 122.472 446.891 125.505C455.897 128.538 460.72 138.298 457.686 147.303Z" fill="#F8A801"/>
<path d="M410.114 151.58C410.114 156.177 406.384 159.907 401.786 159.907C397.189 159.907 393.459 156.177 393.459 151.58C393.459 146.983 397.189 143.252 401.786 143.252C406.384 143.252 410.114 146.983 410.114 151.58Z" fill="#F8A801"/>
<path d="M269.791 221.309C269.791 221.987 269.112 226.697 270.921 232.067C272.711 237.455 288.405 252.471 296.262 249.777C296.035 238.567 269.809 221.309 269.809 221.309H269.791Z" fill="#C78B67"/>
<path d="M269.564 208.987C269.564 208.987 266.87 212.793 266.87 215.939C266.87 219.086 274.274 230.296 279.192 233.876C284.128 237.455 288.386 236.796 288.386 236.796L290.402 230.296L269.545 209.006L269.564 208.987Z" fill="#C78B67"/>
<path d="M268.434 204.277C268.434 204.277 268.886 210.551 270.676 216.165C272.465 221.761 287.707 234.102 287.707 234.102L286.144 220.197C286.144 220.197 275.386 203.599 268.434 204.277Z" fill="#C78B67"/>
<path d="M283.45 226.019C279.87 215.94 276.498 211.003 268.434 205.163C260.37 199.341 271.053 193.934 280.322 203.825C289.592 213.716 289.064 227.357 297.128 227.357C305.192 227.357 309.902 207.405 318.418 207.857C326.934 208.309 329.854 213.245 320.66 217.051C311.466 220.857 314.838 223.551 314.386 230.955C313.934 238.36 304.514 247.987 296.224 249.796C287.934 251.586 283.45 226.038 283.45 226.038V226.019Z" fill="#C78B67"/>
<path d="M394.439 236.118C372.019 262.57 375.165 301.136 379.649 311.894C367.535 363.009 306.228 344.959 303.533 249.457C296.355 247.215 288.178 250.022 288.178 250.022C288.178 250.022 285.032 342.83 320.904 381.849C356.777 420.849 416.859 403.817 415.503 328.493C414.165 253.168 394.42 236.137 394.42 236.137L394.439 236.118Z" fill="url(#paint7_linear_940_9610)"/>
<path d="M226.796 554.899C231.45 601.285 236.103 657.58 320.64 689.854C323.335 689.402 327.291 679.982 327.291 679.982C327.291 679.982 298.051 667.434 280.19 617.205C262.329 566.995 289.459 539.639 289.459 539.639L238.854 547.269L226.815 554.899H226.796Z" fill="url(#paint8_linear_940_9610)"/>
<path d="M457.39 75.8477H473.39C473.39 68.9477 489.39 64.3477 489.39 49.4477C489.39 36.4477 477.99 29.4477 466.59 29.4477C455.49 29.4477 445.79 35.2477 441.39 45.5477L455.19 53.4477C457.19 48.7477 460.49 45.0477 465.99 45.0477C471.09 45.0477 473.39 47.3477 473.39 50.8477C473.39 59.6477 457.39 64.1477 457.39 75.8477ZM465.39 102.248C470.59 102.248 474.89 97.9477 474.89 92.7477C474.89 87.5477 470.59 83.2477 465.39 83.2477C460.19 83.2477 455.89 87.5477 455.89 92.7477C455.89 97.9477 460.19 102.248 465.39 102.248Z" fill="white"/>
<defs>
<linearGradient id="paint0_linear_940_9610" x1="284.033" y1="759.168" x2="289.422" y2="386.578" gradientUnits="userSpaceOnUse">
<stop offset="0.22" stop-color="#385069"/>
<stop offset="1" stop-color="#070A1C"/>
</linearGradient>
<linearGradient id="paint1_linear_940_9610" x1="265.193" y1="702.948" x2="313.632" y2="587.945" gradientUnits="userSpaceOnUse">
<stop offset="0.22" stop-color="#385069"/>
<stop offset="0.91" stop-color="white"/>
</linearGradient>
<linearGradient id="paint2_linear_940_9610" x1="339.669" y1="229.75" x2="348.751" y2="582.84" gradientUnits="userSpaceOnUse">
<stop offset="0.28" stop-color="#384F68"/>
<stop offset="1" stop-color="#070A1C"/>
</linearGradient>
<linearGradient id="paint3_linear_940_9610" x1="249.216" y1="279.13" x2="246.805" y2="604.205" gradientUnits="userSpaceOnUse">
<stop offset="0.05" stop-color="#384F68"/>
<stop offset="1" stop-color="#070A1C"/>
</linearGradient>
<linearGradient id="paint4_linear_940_9610" x1="308.55" y1="97.1118" x2="308.55" y2="161.169" gradientUnits="userSpaceOnUse">
<stop stop-color="#C78B67" stop-opacity="0"/>
<stop offset="1" stop-color="#C78B67"/>
</linearGradient>
<linearGradient id="paint5_linear_940_9610" x1="289.46" y1="185.022" x2="283.864" y2="166.652" gradientUnits="userSpaceOnUse">
<stop offset="0.23" stop-color="white"/>
<stop offset="0.81" stop-color="#512214"/>
</linearGradient>
<linearGradient id="paint6_linear_940_9610" x1="186.157" y1="339.647" x2="354.083" y2="339.647" gradientUnits="userSpaceOnUse">
<stop offset="0.38" stop-color="#384F68"/>
<stop offset="1" stop-color="#070A1C"/>
</linearGradient>
<linearGradient id="paint7_linear_940_9610" x1="325.294" y1="232.01" x2="417.085" y2="460" gradientUnits="userSpaceOnUse">
<stop offset="0.37" stop-color="#384F68"/>
<stop offset="1" stop-color="#070A1C"/>
</linearGradient>
<linearGradient id="paint8_linear_940_9610" x1="270.317" y1="758.98" x2="275.687" y2="386.371" gradientUnits="userSpaceOnUse">
<stop offset="0.22" stop-color="#385069"/>
<stop offset="1" stop-color="#070A1C"/>
</linearGradient>
</defs>
</svg>
