<svg width="361" height="449" viewBox="0 0 361 449" fill="none" xmlns="http://www.w3.org/2000/svg">
<g opacity="0.7">
<rect x="25.3594" y="36.4238" width="326.716" height="376.076" rx="12.1211" fill="#D5DFED"/>
<mask id="mask0_2_8852" style="mask-type:alpha" maskUnits="userSpaceOnUse" x="25" y="36" width="328" height="377">
<rect x="25.3594" y="36.4238" width="326.716" height="376.076" rx="12.1211" fill="#D5DFED"/>
</mask>
<g mask="url(#mask0_2_8852)">
<path d="M-60.4391 392.635H420.436V392.875H-60.4391V392.635Z" fill="#AFC0D9"/>
<path d="M26.4347 408.221H42.3613V408.461H26.4347V408.221Z" fill="#AFC0D9"/>
<path d="M67.4722 404.73H103.836V404.971H67.4722V404.73Z" fill="#AFC0D9"/>
<path d="M99.1327 399.178H165.57V399.418H99.1327V399.178Z" fill="#AFC0D9"/>
<path d="M313.786 400.791H349.207V401.031H313.786V400.791Z" fill="#AFC0D9"/>
<path d="M216.679 404.846H273.932V405.086H216.679V404.846Z" fill="#AFC0D9"/>
<path d="M192.499 349.781H378.204C381.233 349.781 383.686 347.321 383.686 344.294V83.493C383.657 80.4856 381.214 78.0643 378.204 78.0547H192.499C189.47 78.0547 187.008 80.5144 187.008 83.5411V344.294C187.008 347.321 189.47 349.781 192.499 349.781ZM378.204 78.2469C381.098 78.2469 383.445 80.6009 383.445 83.493V344.294C383.445 347.186 381.098 349.531 378.204 349.54H192.499C189.605 349.54 187.258 347.186 187.248 344.294V83.493C187.248 80.6009 189.605 78.2565 192.499 78.2469H378.204Z" fill="#AFC0D9"/>
<path d="M-15.5355 349.781H170.178C173.208 349.781 175.66 347.321 175.67 344.294V83.493C175.641 80.4856 173.189 78.0643 170.178 78.0547H-15.5355C-18.5457 78.0643 -20.979 80.4856 -21.0078 83.493V344.294C-21.0078 347.321 -18.565 349.771 -15.5355 349.781ZM170.178 78.2469C173.073 78.2469 175.42 80.6009 175.429 83.493V344.294C175.429 347.186 173.073 349.531 170.178 349.54H-15.5355C-18.4303 349.54 -20.777 347.186 -20.7866 344.294V83.493C-20.7866 80.6009 -18.4303 78.2565 -15.5355 78.2469H170.178Z" fill="#AFC0D9"/>
<path d="M174.747 25.209H195.482V392.635H174.747V25.209Z" fill="#F5F5F5"/>
<path d="M171.832 25.209H174.746V392.635H171.832V25.209Z" fill="#E0E0E0"/>
<path d="M286.59 355.623H395.912C395.912 348.907 390.459 343.459 383.736 343.459H286.59V355.623Z" fill="#E6E6E6"/>
<path d="M278.578 355.623H326.348C326.348 348.907 320.895 343.459 314.172 343.459H278.578V355.623Z" fill="#E0E0E0"/>
<path d="M210.207 355.623H319.529C319.529 348.907 314.076 343.459 307.354 343.459H210.207V355.623Z" fill="#E6E6E6"/>
<path d="M202.197 355.623H249.967C249.967 348.907 244.514 343.459 237.791 343.459H202.197V355.623Z" fill="#E0E0E0"/>
<path d="M54.9696 355.623H164.33C164.33 348.907 158.877 343.459 152.154 343.459C152.135 343.459 152.125 343.459 152.106 343.459H54.9696V355.623Z" fill="#E6E6E6"/>
<path d="M46.9975 355.623H94.7676C94.7676 348.907 89.3145 343.459 82.5918 343.459H46.9975V355.623Z" fill="#E0E0E0"/>
<path d="M8.40387 317.621H56.8184L49.9995 392.634H15.2227L8.40387 317.621Z" fill="#AFC0D9"/>
<path d="M33.0896 330.132C33.9744 299.097 26.7132 234.846 13.72 208.711L12.8641 209.134C25.3668 234.231 33.0608 298.809 32.099 330.104L33.0896 330.132Z" fill="#AFC0D9"/>
<path d="M28.2818 269.031C28.2818 269.031 31.4652 238.986 43.2178 229.771C49.5172 248.738 36.6106 255.272 28.2818 269.031Z" fill="#AFC0D9"/>
<path d="M28.2837 269.512C28.4568 269.512 28.6107 269.425 28.6972 269.281C30.8227 265.918 33.1694 262.699 35.7373 259.653C42.5368 251.188 48.4131 243.867 43.6813 229.627C43.6332 229.483 43.5178 229.368 43.3639 229.32C43.2197 229.272 43.0562 229.3 42.9312 229.397C31.1497 238.64 27.9471 267.753 27.822 268.993C27.7932 269.214 27.9279 269.425 28.1394 269.492L28.2837 269.512ZM42.9792 230.588C47.1436 243.896 41.4981 250.929 34.9775 259.048C32.9866 261.527 30.9381 264.073 29.0435 266.946C29.9668 260.067 33.7176 238.515 42.9792 230.588Z" fill="#AFC0D9"/>
<path d="M32.3321 311.319C32.3321 311.319 37.1408 269.522 51.7402 258.473C59.0495 281.85 42.8247 294.658 32.3321 311.319Z" fill="#AFC0D9"/>
<path d="M32.3328 311.903C32.5348 311.903 32.7271 311.807 32.8329 311.634C35.0738 308.069 37.6417 304.639 40.0749 301.324C49.3654 288.776 58.1366 276.938 52.3084 258.307C52.2506 258.125 52.1064 257.981 51.9236 257.923C51.7409 257.865 51.5389 257.904 51.3851 258.019C36.7665 269.078 31.9481 309.53 31.7461 311.25C31.7173 311.528 31.8808 311.778 32.1405 311.874C32.1982 311.893 32.2655 311.903 32.3328 311.903ZM51.4332 259.489C56.5689 277.073 48.0959 288.516 39.1324 300.623C37.2089 303.275 35.1507 305.994 33.2657 308.809C34.5737 299.729 39.7575 269.261 51.4332 259.489Z" fill="#AFC0D9"/>
<path d="M22.9936 238.642C22.9936 238.642 25.2056 217.686 33.4093 211.258C37.8045 224.489 28.8025 229.053 22.9936 238.642Z" fill="#AFC0D9"/>
<path d="M22.994 238.976C23.1094 238.976 23.2152 238.909 23.2729 238.813C24.754 236.468 26.3986 234.22 28.1779 232.087C32.9289 226.178 37.0259 221.076 33.7271 211.141C33.6887 211.035 33.6117 210.958 33.5059 210.92C33.4001 210.891 33.2847 210.92 33.1982 210.977C24.9848 217.424 22.7439 237.737 22.6189 238.601C22.5997 238.755 22.6959 238.899 22.8401 238.947C22.8882 238.976 22.9363 238.986 22.994 238.976ZM33.2366 211.823C36.1219 221.114 32.2076 226.014 27.6585 231.674C26.264 233.403 24.8406 235.19 23.5134 237.189C24.1962 232.394 26.7833 217.376 33.2366 211.823Z" fill="#AFC0D9"/>
<path d="M270.402 212.265C279.548 211.621 283.501 212.688 287.454 204.472C291.407 196.257 305.198 191.847 309.68 199.015C314.162 206.183 315.777 211.16 326.145 206.913C336.513 202.666 339.927 205.75 341.427 211.41C342.927 217.069 366.644 214.34 359.7 222.43H271.854C271.854 222.43 261.217 212.909 270.402 212.265Z" fill="#F5F5F5"/>
<path d="M-1.5793 168.376C3.59491 168.011 5.82617 168.616 8.03819 163.966C10.2502 159.315 18.0788 156.817 20.6179 160.872C23.1569 164.927 24.0609 167.752 29.9276 165.34C35.7943 162.928 37.7274 164.686 38.5833 167.886C39.4393 171.086 52.8557 169.548 48.9221 174.122H-0.809914C-0.809914 174.122 -6.75351 168.703 -1.5793 168.376Z" fill="#F5F5F5"/>
<path d="M60.3378 55.6871C62.9057 51.517 70.2438 50.1334 76.803 53.3714C83.3621 56.6095 78.8996 36.3165 91.1715 39.7179C108.695 44.5798 103.818 59.0981 111.118 57.7721C118.418 56.4461 139.826 60.0012 128.507 67.2556H63.7328C63.7328 67.2556 57.7795 59.8475 60.3378 55.6871Z" fill="#F5F5F5"/>
</g>
<path d="M105.908 131.413L113.727 126.743L109.177 125.85L97.0595 128.252L105.908 131.413Z" fill="#AFC0D9"/>
<path opacity="0.3" d="M105.908 131.413L113.727 126.743L109.177 125.85L97.0595 128.252L105.908 131.413Z" fill="#AFC0D9"/>
<path d="M51.8164 117.097L61.3281 105.163L57.8081 104.481C54.9518 103.924 51.9992 104.203 49.2967 105.279L30.9272 112.648L51.8164 117.097Z" fill="#AFC0D9"/>
<path opacity="0.3" d="M51.8164 117.097L61.3281 105.163L57.8081 104.481C54.9518 103.924 51.9992 104.203 49.2967 105.279L30.9272 112.648L51.8164 117.097Z" fill="#AFC0D9"/>
<path d="M1.94101 108.544L4.76856 107.842C7.50954 107.122 10.3756 107.054 13.1454 107.64L106.291 128.779L107.166 132.786L103.531 135.38L9.27917 116.941C6.19195 116.336 3.31633 114.943 0.93119 112.887C-0.136353 112.041 -0.309471 110.485 0.536865 109.418C0.892715 108.976 1.3832 108.669 1.94101 108.544Z" fill="#AFC0D9"/>
<path d="M58.9048 137.742L99.6855 146.402L99.5796 146.9L58.7988 138.24L58.9048 137.742Z" fill="#AFC0D9"/>
<path d="M64.1743 111.56L90.75 117.203L90.644 117.701L64.0683 112.058L64.1743 111.56Z" fill="#AFC0D9"/>
<path d="M107.295 148.022L118.217 150.342L118.111 150.84L107.189 148.521L107.295 148.022Z" fill="#AFC0D9"/>
<path opacity="0.3" d="M11.6355 115.289L103.685 134.88C104.108 134.967 104.512 135.121 104.887 135.342C104.435 135.399 103.973 135.39 103.531 135.294L9.27921 116.865C7.74042 116.557 6.24971 116.057 4.83594 115.375L4.48972 115.212C6.85563 114.76 9.27923 114.789 11.6355 115.289Z" fill="#AFC0D9"/>
<path d="M107.165 132.71L109.531 142.693L104.982 141.8L96.7015 131L107.165 132.71Z" fill="#AFC0D9"/>
<path d="M106.29 128.704L111.811 118.721L107.569 117.885L95.3262 126.561L106.29 128.704Z" fill="#AFC0D9"/>
<path d="M50.9903 121.297L52.5195 150.123C48.1532 149.267 44.3831 146.529 42.2288 142.647L27.8506 116.791L50.9903 121.297Z" fill="#AFC0D9"/>
<g opacity="0.5">
<path d="M74.9154 124.8L76.0742 125.037L75.6395 127.155L74.4806 126.917L74.9154 124.8Z" fill="white"/>
<path d="M72.5677 124.355L73.7266 124.592L73.2922 126.71L72.1333 126.472L72.5677 124.355Z" fill="white"/>
<path d="M70.22 123.876L71.3789 124.113L70.9445 126.231L69.7856 125.994L70.22 123.876Z" fill="white"/>
<path d="M67.8724 123.394L69.0312 123.631L68.5969 125.749L67.438 125.512L67.8724 123.394Z" fill="white"/>
<path d="M65.5267 122.915L66.6855 123.152L66.2512 125.27L65.0923 125.033L65.5267 122.915Z" fill="white"/>
<path d="M63.181 122.433L64.3398 122.67L63.9055 124.788L62.7466 124.551L63.181 122.433Z" fill="white"/>
<path d="M60.8255 121.954L61.9844 122.191L61.55 124.309L60.3911 124.072L60.8255 121.954Z" fill="white"/>
<path d="M58.4818 121.438L59.6406 121.676L59.2059 123.794L58.047 123.556L58.4818 121.438Z" fill="white"/>
<path d="M56.1302 120.993L57.2891 121.23L56.8547 123.348L55.6958 123.111L56.1302 120.993Z" fill="white"/>
<path d="M53.7962 120.505L54.9551 120.742L54.5207 122.86L53.3618 122.623L53.7962 120.505Z" fill="white"/>
<path d="M51.4411 120.017L52.6094 120.256L52.175 122.374L51.0067 122.135L51.4411 120.017Z" fill="white"/>
<path d="M49.1009 119.544L50.2598 119.781L49.8254 121.899L48.6665 121.662L49.1009 119.544Z" fill="white"/>
<path d="M46.7513 119.028L47.9102 119.266L47.4754 121.383L46.3166 121.146L46.7513 119.028Z" fill="white"/>
<path d="M44.3923 118.571L45.5605 118.811L45.1262 120.928L43.9579 120.689L44.3923 118.571Z" fill="white"/>
<path d="M42.0446 118.093L43.2129 118.332L42.7785 120.45L41.6102 120.211L42.0446 118.093Z" fill="white"/>
<path d="M39.7044 117.622L40.8633 117.859L40.4289 119.977L39.27 119.74L39.7044 117.622Z" fill="white"/>
<path d="M37.3512 117.132L38.5195 117.371L38.0852 119.489L36.9169 119.25L37.3512 117.132Z" fill="white"/>
<path d="M35.0036 116.659L36.1719 116.898L35.7375 119.016L34.5692 118.777L35.0036 116.659Z" fill="white"/>
<path d="M32.6673 116.183L33.8262 116.42L33.3918 118.538L32.2329 118.301L32.6673 116.183Z" fill="white"/>
<path d="M30.3001 115.657L31.459 115.895L31.0242 118.012L29.8654 117.775L30.3001 115.657Z" fill="white"/>
<path d="M27.9548 115.21L29.123 115.449L28.6887 117.567L27.5204 117.328L27.9548 115.21Z" fill="white"/>
<path d="M25.6068 114.747L26.7656 114.984L26.3312 117.102L25.1724 116.865L25.6068 114.747Z" fill="white"/>
</g>
<path opacity="0.5" d="M1.93916 108.547L4.76671 107.845C5.14179 107.749 5.5265 107.653 5.92082 107.586L10.0852 108.393C10.6718 108.508 11.0469 109.075 10.9412 109.652C10.8354 110.228 10.2583 110.613 9.67164 110.507L1.28518 108.806C1.48715 108.691 1.70834 108.604 1.93916 108.547Z" fill="white"/>
<path d="M242.768 52.1113H244.449V145.708H242.768V52.1113Z" fill="#AFC0D9"/>
<path d="M223.776 100.912H360.998V132.101H223.776V100.912Z" fill="#AFC0D9"/>
<path opacity="0.3" d="M223.776 100.912H360.998V132.101H223.776V100.912Z" fill="white"/>
<path d="M344.177 114.153L347.572 110.762H352.275L348.187 114.845H356.43V118.17H348.178L352.275 122.253H347.572L344.177 118.852L341.83 116.498L344.177 114.153Z" fill="white"/>
<path opacity="0.7" d="M231.643 111.955H280.971V121.064H231.643V111.955Z" fill="#AFC0D9"/>
<path opacity="0.7" d="M288.425 111.955H309.555V121.064H288.425V111.955Z" fill="#AFC0D9"/>
<path d="M317.316 107.215H335.926V125.807H317.316V107.215Z" fill="white"/>
<path d="M319.45 111.955H320.104C320.489 111.984 320.864 112.09 321.201 112.263L324.086 113.704L329.491 112.801C329.953 112.743 330.414 112.82 330.828 113.022L331.347 113.262L327.818 115.731L331.097 117.269L333.271 116.644L334.232 117.105L331.693 119.027L326.327 116.49L323.297 114.991L320.249 113.531C320.027 113.416 319.816 113.281 319.623 113.118C319.45 112.974 319.296 112.801 319.171 112.608C319.027 112.445 319.046 112.195 319.21 112.051C319.277 111.994 319.364 111.955 319.45 111.955Z" fill="#AFC0D9"/>
<path d="M318.595 122.025H334.656V123.582H318.595V122.025Z" fill="#AFC0D9"/>
<path d="M223.776 141.377H360.998V172.566H223.776V141.377Z" fill="#AFC0D9"/>
<path opacity="0.3" d="M223.776 141.377H360.998V172.566H223.776V141.377Z" fill="white"/>
<path d="M354.083 154.616L350.678 151.225H345.975L350.073 155.308H341.83V158.623H350.073L345.975 162.716H350.678L354.083 159.315L356.43 156.961L354.083 154.616Z" fill="white"/>
<path opacity="0.7" d="M231.643 152.414H280.971V161.523H231.643V152.414Z" fill="#AFC0D9"/>
<path opacity="0.7" d="M288.425 152.414H309.555V161.523H288.425V152.414Z" fill="#AFC0D9"/>
<path d="M317.316 147.67H335.926V166.262H317.316V147.67Z" fill="white"/>
<path d="M319.45 152.414H320.104C320.489 152.443 320.854 152.539 321.201 152.712L324.086 154.153L329.491 153.26C329.943 153.202 330.414 153.279 330.828 153.471L331.347 153.721L327.818 156.181L331.097 157.728L333.271 157.103L334.232 157.564L331.693 159.486L326.346 156.92L323.288 155.45L320.22 153.961C319.989 153.846 319.787 153.711 319.595 153.538C319.421 153.394 319.268 153.221 319.143 153.029C319.018 152.846 319.066 152.606 319.248 152.481C319.306 152.443 319.383 152.414 319.45 152.414Z" fill="#AFC0D9"/>
<path d="M318.595 162.475H334.656V164.031H318.595V162.475Z" fill="#AFC0D9"/>
</g>
<path d="M308.007 64.9633C297.429 63.2894 292.811 46.8349 298.806 41.6825C304.802 36.5301 320.14 44.0569 321.114 49.4942C322.087 54.9316 321.256 67.0647 308.007 64.9633Z" fill="#F0C4AB"/>
<path d="M319.571 44.1899C323.75 42.9315 324.865 46.6949 323.476 50.0427C322.087 53.3906 318.74 55.3376 317.624 53.5331C316.508 51.7167 319.571 44.1899 319.571 44.1899Z" fill="#F0C4AB"/>
<path d="M314.976 39.8663C318.739 37.7769 320.828 40.2818 319.439 45.5767C318.05 50.8716 316.234 53.246 313.444 50.8716C310.654 48.4972 314.976 39.8544 314.976 39.8544V39.8663Z" fill="#F0C4AB"/>
<path d="M307.449 45.1626C307.592 47.252 310.94 49.2109 312.329 48.0949C313.718 46.979 315.261 42.8 315.392 39.0366C315.534 35.2732 310.655 35.8312 309.396 38.6211C308.138 41.411 307.449 45.1744 307.449 45.1744V45.1626Z" fill="#F0C4AB"/>
<path d="M308.422 41.8865C312.043 27.3908 310.512 16.9317 306.748 13.0258C302.985 9.11992 301.311 16.5161 302.985 21.6686C304.659 26.8328 304.374 42.0289 304.374 42.0289L308.422 41.8865Z" fill="#F0C4AB"/>
<path d="M299.126 41.9568C299.269 41.3751 299.684 40.9239 300.254 40.7221C304.789 39.0957 310.82 42.7285 313.171 45.8627C315.676 49.2106 316.519 54.6479 309.408 50.742C303.721 47.6197 301.869 46.3732 300.432 46.2069C299.578 46.112 298.865 45.4709 298.83 44.6161C298.782 43.6901 298.972 42.6572 299.15 41.9687L299.126 41.9568Z" fill="#F0C4AB"/>
<path d="M233.596 145.994C258.372 161.155 288.492 137.743 297.692 109.298C306.893 80.8531 303.545 63.2945 303.545 63.2945C303.545 63.2945 309.814 61.205 313.589 64.5529C317.352 67.9008 319.857 129.801 306.893 160.751C293.929 191.701 252.52 202.576 239.14 200.902C233.703 182.085 233.596 146.006 233.596 146.006V145.994Z" fill="url(#paint0_linear_2_8852)"/>
<path d="M117.215 288.077C120.456 286.509 131.354 286.046 132.624 287.317C133.895 288.599 132.624 293.466 132.624 293.466C132.624 293.466 136.839 294.63 135.723 298.69C134.607 302.738 131.057 302.525 129.87 301.753C127.792 305.22 123.293 308.852 119.826 306.775C116.36 304.697 110.899 300.364 112.335 292.968C113.7 288.741 117.203 288.077 117.203 288.077H117.215Z" fill="#F0C4AB"/>
<path d="M174.2 448.939C213.009 448.939 244.47 444.57 244.47 439.181C244.47 433.791 213.009 429.422 174.2 429.422C135.391 429.422 103.93 433.791 103.93 439.181C103.93 444.57 135.391 448.939 174.2 448.939Z" fill="#E0E0E0"/>
<path d="M195.865 122.013C196.696 132.33 201.159 139.583 201.159 139.583L193.348 149.342C193.348 149.342 169.651 145.436 162.125 142.088C154.598 138.741 152.924 129.267 152.924 129.267C152.924 129.267 156.474 107.826 157.032 102.531C157.589 97.2362 195.865 122.013 195.865 122.013Z" fill="#F0C4AB"/>
<path d="M158.717 425.387C158.717 426.016 158.931 434.588 158.931 434.588L155.797 436.048L154.539 435.003L153.909 437.306C153.909 437.306 139.9 443.373 131.115 439.194C133.834 431.667 152.235 431.454 152.235 431.454L153.909 424.758L158.717 425.387Z" fill="#070A1C"/>
<path d="M150.348 433.115L145.125 430.824L143.035 431.24L148.045 433.958L150.348 433.115Z" fill="#6A6C77"/>
<path d="M186.107 424.758C184.647 428.106 185.062 436.048 185.062 436.048L189.871 436.262L190.084 434.374C190.084 434.374 195.735 438.137 200.128 438.137C204.521 438.137 211.834 437.093 211.834 437.093C211.834 437.093 209.531 432.285 203.262 430.824C196.994 429.364 191.758 429.993 191.758 429.993L189.669 425.601L186.119 424.77L186.107 424.758Z" fill="#070A1C"/>
<path d="M202.419 429.767C201.79 429.98 196.352 431.654 196.352 431.654L194.465 431.239L198.442 428.936L202.419 429.767Z" fill="#6A6C77"/>
<path d="M231.282 309.112L191.546 426.632L184.862 426.217L196.568 333.366L188.626 332.951L159.623 426.632H152.238L154.328 304.969L231.282 309.112Z" fill="url(#paint1_linear_2_8852)"/>
<path d="M145.125 137.35L148.188 135.676L179.969 149.613L192.518 144.877L206.456 139.855C206.456 139.855 215.941 150.171 220.393 167.184C224.857 184.196 224.572 206.219 223.741 211.799C222.91 217.378 219.004 231.874 219.004 231.874C219.004 231.874 179.684 201.755 171.6 187.259C163.515 172.764 153.756 162.447 153.756 162.447L145.113 137.35H145.125Z" fill="white"/>
<path d="M202.562 151.571L199.772 156.866C199.772 156.866 214.826 188.932 222.079 221.829C229.333 254.726 206.741 244.136 206.741 244.136C206.741 244.136 207.857 213.744 193.634 157.982C187.223 155.75 184.148 154.361 184.148 154.361L192.518 144.875L202.562 151.571Z" fill="#C93D4E"/>
<path d="M211.93 313.16C212.179 313.291 212.44 313.422 212.701 313.54C221.107 317.304 233.964 312.329 233.964 312.329C233.964 312.329 239.544 272.736 241.218 231.47C242.892 190.203 233.596 146.004 233.596 146.004C233.596 146.004 219.373 150.182 212.215 143.914C217.509 153.4 225.321 181.002 223.647 206.645C221.973 232.301 218.115 229.641 218.115 229.641V229.76L211.942 313.16H211.93Z" fill="url(#paint2_linear_2_8852)"/>
<path opacity="0.5" d="M211.93 313.164C212.179 313.294 212.44 313.425 212.701 313.544C213.283 313.14 213.722 312.677 213.995 312.19C218.459 304.106 227.933 245.268 220.691 231.889L218.103 229.775L211.942 313.176L211.93 313.164Z" fill="#070A1C"/>
<path d="M219.017 231.873C226.27 245.253 216.785 304.09 212.321 312.175C207.857 320.26 161.295 316.081 145.957 302.416C152.095 288.752 160.452 243.021 134.809 212.914C130.072 207.358 110.555 154.919 110.555 154.919C110.555 154.919 133.693 145.992 139.558 140.424C145.138 151.014 166.887 178.343 166.887 178.343L197.837 214.588L219.029 231.873H219.017Z" fill="url(#paint3_linear_2_8852)"/>
<path d="M182.759 270.078L181.928 274.257L159.621 274.815L160.179 269.793L182.759 270.078Z" fill="#F8A801"/>
<path d="M233.095 269.519L232.395 273.84L238.663 274.113L239.506 268.676L233.095 269.519Z" fill="#F8A801"/>
<path d="M192.519 144.877L184.708 158.542C184.708 158.542 157.105 154.636 148.178 135.676C150.125 130.94 152.915 129.266 152.915 129.266C152.915 129.266 162.673 144.046 192.508 144.877H192.519Z" fill="#EDE6E6"/>
<path d="M192.518 144.879C193.349 145.152 203.665 154.923 203.665 154.923C203.665 154.923 207.013 144.333 206.455 139.869C205.066 138.48 200.876 136.248 200.876 136.248C200.876 136.248 198.644 142.944 192.506 144.891L192.518 144.879Z" fill="#EDE6E6"/>
<path d="M206.467 139.855C206.467 139.855 210.373 140.129 212.249 142.016C213.305 143.073 225.984 164.395 226.257 166.627C226.531 168.859 223.468 174.711 223.468 174.711C223.468 174.711 227.931 178.89 229.32 181.965C230.709 185.028 225.415 221.285 219.004 231.875C225.699 190.05 214.267 153.247 206.455 139.855H206.467Z" fill="#283760"/>
<path d="M219.847 228.809C219.847 229.64 219.015 231.872 219.015 231.872C219.015 231.872 173.154 205.255 163.526 189.216C161.021 185.037 164.084 177.51 164.084 177.51C164.084 177.51 155.999 177.783 152.093 173.604C148.188 169.425 138.417 142.666 138.643 140.98C139.058 137.846 146.585 136.172 146.585 136.172C146.585 136.172 147.107 149.528 166.316 173.889C197.539 213.482 219.847 228.82 219.847 228.82V228.809Z" fill="#283760"/>
<path d="M214.136 248.043C215.519 248.043 216.641 246.922 216.641 245.538C216.641 244.155 215.519 243.033 214.136 243.033C212.752 243.033 211.631 244.155 211.631 245.538C211.631 246.922 212.752 248.043 214.136 248.043Z" fill="#F8A801"/>
<path d="M212.319 278.293C213.703 278.293 214.824 277.172 214.824 275.788C214.824 274.405 213.703 273.283 212.319 273.283C210.936 273.283 209.814 274.405 209.814 275.788C209.814 277.172 210.936 278.293 212.319 278.293Z" fill="#F8A801"/>
<path d="M110.542 154.92C72.6944 177.679 34.5498 252.899 112.062 296.113C111.076 296.754 116.217 288.183 116.526 288.301C116.526 288.301 76.0304 259.061 105.318 226.187C121.535 207.988 134.796 212.903 134.796 212.903C134.796 212.903 140.02 165.605 110.542 154.908V154.92Z" fill="url(#paint4_linear_2_8852)"/>
<path d="M207.002 69.9336C207.002 69.9336 217.271 67.9273 219.42 69.5062C221.569 71.0852 222.032 86.4594 220.667 88.5726C219.301 90.6858 208.866 91.6593 208.866 91.6593L207.002 69.9455V69.9336Z" fill="#F0C4AB"/>
<path d="M212.462 87.5035C212.462 87.5035 215.929 86.9693 217.46 84.9748C218.992 82.9803 217.401 72.3549 217.401 72.3549C217.401 72.3549 212.498 71.9869 211.536 73.4709C210.563 74.9549 211.477 83.004 212.474 87.5035H212.462Z" fill="#C78B67"/>
<path d="M217.388 72.3557C217.388 72.3557 210.918 71.5603 210.669 73.1155C209.767 78.6835 212.331 87.1125 212.331 87.1125L212.462 87.5162C212.462 87.5162 210.954 74.5639 211.844 73.8635C212.735 73.163 217.4 72.3676 217.4 72.3676L217.388 72.3557Z" fill="#CC6A5A"/>
<path d="M132.459 50.8666C134.394 56.3514 149.744 79.9172 155.942 105.026C158.625 115.901 162.649 121.837 167.707 125.019C167.956 125.173 168.205 125.327 168.466 125.47C170.793 126.776 173.322 127.547 176.029 127.987C176.314 128.034 176.599 128.07 176.884 128.105C181.264 128.687 186.108 128.45 191.272 128.2L192.198 128.153C199.642 126.859 205.032 124.746 208 123.309C208.38 123.131 208.748 122.941 209.092 122.751C213.295 120.436 215.123 117.539 215.467 115.284C216.109 111.069 214.506 38.8997 213.271 36.4422C212.036 33.9847 205.543 32.3345 205.543 32.3345C205.543 32.3345 208.107 3.74686 189.219 5.75322C189.207 5.75322 189.195 5.75322 189.183 5.75322C188.364 5.83632 187.557 5.94317 186.761 6.07376C180.315 7.11849 174.675 9.50475 169.832 12.4846C169.499 12.6983 169.155 12.9001 168.835 13.1138C154.683 22.2789 147.679 36.454 147.679 36.454C147.679 36.454 130.512 45.358 132.447 50.8547L132.459 50.8666Z" fill="#283760"/>
<path d="M150.206 77.5547C149.577 76.3556 148.212 75.7502 146.894 76.0826C143.819 76.8542 138.358 78.4213 137.396 80.0597C136.043 82.3509 141.635 96.6804 143.712 98.0813C145.089 99.0073 149.862 97.9507 152.984 97.1078C154.539 96.6922 155.453 95.1014 155.062 93.5462C154.646 91.9079 154.029 89.4504 153.198 85.9838C152.212 81.8761 151.061 79.1693 150.206 77.5547Z" fill="#F0C4AB"/>
<path d="M150.848 93.8895C150.848 93.8895 147.441 94.7562 145.256 93.5215C143.072 92.275 140.377 81.887 140.377 81.887C140.377 81.887 144.734 79.6195 146.218 80.6167C147.69 81.6021 150.005 89.3663 150.848 93.8895Z" fill="#C78B67"/>
<path d="M140.377 81.8863C140.377 81.8863 146.028 78.6216 146.859 79.9512C149.874 84.7237 150.812 93.4734 150.812 93.4734L150.848 93.9007C150.848 93.9007 147.156 81.3877 146.075 81.0909C144.995 80.7941 140.377 81.8982 140.377 81.8982V81.8863Z" fill="#73503B"/>
<g style="mix-blend-mode:screen" opacity="0.5">
<path d="M189.1 37.4398L189.718 37.9978C198.752 27.871 201.067 17.6255 195.927 10.6092C194.205 8.25858 191.784 6.59651 189.184 5.77734C188.364 5.86045 187.557 5.96729 186.762 6.09789C189.991 6.47779 193.161 8.24671 195.25 11.096C200.141 17.7799 197.838 27.6217 189.089 37.4398H189.1Z" fill="#53638E"/>
</g>
<g style="mix-blend-mode:screen" opacity="0.5">
<path d="M168.053 39.4807L168.682 40.0387C177.823 29.6982 176.553 18.04 172.172 13.9323C171.448 13.2437 170.665 12.7688 169.845 12.5195C169.513 12.7332 169.169 12.935 168.848 13.1487C169.822 13.2793 170.748 13.7423 171.602 14.5496C175.734 18.4318 176.838 29.5439 168.053 39.4926V39.4807Z" fill="#53638E"/>
</g>
<path d="M204.285 33.4648C212.809 54.6562 212.287 68.3327 211.8 80.0384C211.741 81.5224 210.921 82.8758 209.639 83.6356C200.7 88.883 177.193 89.4173 166.568 89.3698C163.078 89.3579 159.872 87.4465 158.186 84.3836C154.185 77.1179 148.071 64.4387 149.722 45.9185C149.757 45.5386 149.983 45.2062 150.315 45.04C161.439 39.3652 171.103 38.736 181.23 37.5607C194.467 36.0173 204.273 33.4767 204.273 33.4767L204.285 33.4648Z" fill="#F0C4AB"/>
<path d="M190.31 81.7916C190.548 73.5524 186.476 64.7672 184.363 60.5052C183.009 57.7628 181.24 55.982 181.585 55.5309C183.187 53.4414 195.19 56.5875 195.19 56.5875L191.26 62.1554C189.752 65.3015 190.619 72.4602 194.383 77.9094C195.392 79.3816 196.662 80.1057 198.49 80.1295C199.571 80.1295 200.734 81.2811 200.603 82.8482C200.485 84.2609 197.695 85.9586 195.724 86.3979C192.827 87.039 187.568 86.9796 186.416 85.3057C184.956 83.1925 187.58 80.7706 190.334 81.7678L190.31 81.7916Z" fill="url(#paint5_linear_2_8852)"/>
<path d="M181.916 69.1675C181.916 69.1675 181.893 74.225 181.275 74.8067C180.658 75.3884 172.431 76.8843 171.659 76.2907C170.887 75.6971 168.264 71.6844 168.264 71.6844L172.193 69.7849L174.223 68.7995L179.067 68.0753L180.634 67.8379L181.905 69.1557L181.916 69.1675Z" fill="white"/>
<path d="M179.044 70.8749C179.365 73.2611 177.679 75.4693 175.292 75.7899C172.894 76.1104 170.698 74.4246 170.378 72.0383C170.283 71.3616 170.354 70.7087 170.556 70.1032L172.681 69.0703L177.762 68.3105C178.439 68.9754 178.913 69.8539 179.056 70.863L179.044 70.8749Z" fill="#283760"/>
<path d="M167.705 70.46L168.263 71.6709C168.263 71.6709 176.312 68.1212 181.904 69.1541C182.213 68.513 182.367 67.4089 182.367 67.4089C182.367 67.4089 175.932 65.9843 167.705 70.46Z" fill="#283760"/>
<path d="M193.803 68.2073C193.803 68.2073 194.491 70.7954 195.132 72.3625C195.37 72.9442 195.595 73.3835 195.785 73.4903C196.462 73.894 203.835 73.2529 204.345 72.4931C204.855 71.7333 206.066 67.1863 206.066 67.1863L202.244 66.3434L200.261 65.916L198.73 66.106L195.952 66.4503L194.563 66.6165L193.815 68.2073H193.803Z" fill="white"/>
<path d="M193.803 68.2086C193.803 68.2086 194.491 70.7967 195.132 72.3638C195.75 72.7912 196.486 73.0524 197.293 73.0998C199.62 73.2067 201.591 71.3309 201.709 68.9209C201.757 67.8999 201.46 66.9502 200.926 66.1785L198.73 66.1191L195.952 66.4634L194.563 66.6296L193.815 68.2205L193.803 68.2086Z" fill="#283760"/>
<path d="M206.222 65.8699L206.056 67.1877C206.056 67.1877 198.303 65.7987 193.804 68.2087C193.376 67.6745 192.973 66.6416 192.973 66.6416C192.973 66.6416 198.089 63.638 206.234 65.8699H206.222Z" fill="#283760"/>
<path d="M178.724 47.1289C178.724 47.1289 182.131 54.3114 182.155 57.3032C178.997 56.484 166.745 61.8976 164.549 65.2573C164.549 65.2573 162.518 62.598 161.996 60.6867C162.459 59.0008 163.195 57.5168 164.086 56.2228C164.976 57.1251 166.436 58.5972 166.412 58.4429C166.401 58.3004 165.51 56.5196 164.845 55.2018C169.036 50.0613 175.601 48.3755 175.601 48.3755L180.22 55.368L177.798 47.4851L178.712 47.1289H178.724Z" fill="#283760"/>
<path d="M191.176 62.7035C196.341 63.7957 203.927 63.3208 207.916 62.5848C207.916 62.5848 208.557 59.5218 208.284 57.6817C203.523 56.7557 197.575 55.0105 193.848 53.847L191.865 60.0798L191.948 53.2416C190.868 52.8973 190.239 52.6836 190.239 52.6836C190.239 52.6836 190.144 60.1273 191.2 62.6916L191.176 62.7035Z" fill="#283760"/>
<path d="M176.464 96.3815C175.871 95.3368 175.04 94.3158 174.387 93.1168C174.387 93.1168 187.992 93.5798 195.792 92.7131C196.623 92.6181 197.395 92.5113 198.071 92.3926C200.588 103.896 185.855 112.682 176.476 96.3815H176.464Z" fill="#B27171"/>
<path d="M193.263 102.139C189.286 104.348 183.552 104.039 178.423 98.7084C177.758 98.0199 177.105 97.2363 176.464 96.3815C175.74 95.408 175.052 94.3158 174.387 93.1168C174.387 93.1168 174.47 93.1168 174.648 93.1168C176.488 93.1643 187.849 93.4729 195.08 92.7844C195.317 92.7606 195.554 92.7369 195.792 92.7131C196.623 92.6181 197.395 92.5113 198.071 92.3926C198.855 96.4172 196.73 100.228 193.263 102.139Z" fill="#630B18"/>
<path d="M193.264 102.14C189.287 104.348 183.553 104.039 178.424 98.709C185.203 101.772 193.098 100.3 193.098 100.3L193.264 102.14Z" fill="white"/>
<path d="M195.078 92.7949C194.936 93.899 194.674 95.2168 194.223 95.6679C193.44 96.4633 183.254 97.7693 175.905 94.9912C175.478 94.4095 175.05 93.7922 174.646 93.1273C176.487 93.1867 187.848 93.4835 195.09 92.7949H195.078Z" fill="white"/>
<path d="M122.781 93.4725C126.623 93.4725 129.738 90.3578 129.738 86.5155C129.738 82.6733 126.623 79.5586 122.781 79.5586C118.939 79.5586 115.824 82.6733 115.824 86.5155C115.824 90.3578 118.939 93.4725 122.781 93.4725Z" fill="#C93D4E"/>
<path d="M114.151 59.8385L110.863 63.3645C107.883 60.7408 103.977 59.1499 99.6913 59.1499C90.36 59.1499 82.7738 66.7242 82.7738 76.0674C82.7738 80.7569 84.6733 84.9833 87.7482 88.0462L71.8398 105.047C68.9549 108.134 64.1111 108.288 61.0363 105.379L9.45277 62.9964C5.98616 59.7198 6.33045 54.1162 10.1651 51.3026L57.3679 1.4761C60.4071 -0.755827 64.6216 -0.423413 67.2928 2.24777L113.985 49.2487C116.882 52.1574 116.953 56.8349 114.151 59.8266V59.8385Z" fill="#C93D4E"/>
<path d="M99.6931 89.519C107.122 89.519 113.144 83.4968 113.144 76.0681C113.144 68.6394 107.122 62.6172 99.6931 62.6172C92.2644 62.6172 86.2422 68.6394 86.2422 76.0681C86.2422 83.4968 92.2644 89.519 99.6931 89.519Z" fill="#C93D4E"/>
<path d="M66.8065 73.4661H60.3719L57.7363 27.2012H69.4421L66.8065 73.4661ZM66.6759 77.3838L66.4503 83.5572H60.7281L60.5025 77.3838H66.6759Z" fill="white"/>
<defs>
<linearGradient id="paint0_linear_2_8852" x1="218.661" y1="72.3053" x2="378.433" y2="239.605" gradientUnits="userSpaceOnUse">
<stop offset="0.33" stop-color="#385069"/>
<stop offset="0.77" stop-color="#070A1C"/>
</linearGradient>
<linearGradient id="paint1_linear_2_8852" x1="190.668" y1="434.527" x2="193.185" y2="280.192" gradientUnits="userSpaceOnUse">
<stop offset="0.11" stop-color="#385069"/>
<stop offset="1" stop-color="#070A1C"/>
</linearGradient>
<linearGradient id="paint2_linear_2_8852" x1="238.926" y1="133.799" x2="196.52" y2="386.315" gradientUnits="userSpaceOnUse">
<stop offset="0.22" stop-color="#385069"/>
<stop offset="0.77" stop-color="#070A1C"/>
</linearGradient>
<linearGradient id="paint3_linear_2_8852" x1="164.358" y1="139.712" x2="169.356" y2="317.054" gradientUnits="userSpaceOnUse">
<stop offset="0.11" stop-color="#385069"/>
<stop offset="1" stop-color="#070A1C"/>
</linearGradient>
<linearGradient id="paint4_linear_2_8852" x1="104.262" y1="130.998" x2="96.4382" y2="343.814" gradientUnits="userSpaceOnUse">
<stop offset="0.22" stop-color="#385069"/>
<stop offset="1" stop-color="#070A1C"/>
</linearGradient>
<linearGradient id="paint5_linear_2_8852" x1="191.077" y1="54.8145" x2="191.077" y2="86.7755" gradientUnits="userSpaceOnUse">
<stop stop-color="#C78B67" stop-opacity="0"/>
<stop offset="1" stop-color="#C78B67"/>
</linearGradient>
</defs>
</svg>
