<svg width="83" height="129" viewBox="0 0 83 129" fill="none" xmlns="http://www.w3.org/2000/svg">
<rect x="2.4888" y="1.97122" width="55.694" height="117.196" rx="8.83669" stroke="#0B0921" stroke-width="0.36823"/>
<mask id="path-2-outside-1_2_8472" maskUnits="userSpaceOnUse" x="0" y="0" width="61" height="121" fill="black">
<rect fill="white" width="61" height="121"/>
<path fill-rule="evenodd" clip-rule="evenodd" d="M1.44706 11.0305C1.44706 5.4908 5.93786 1 11.4775 1H49.1857C54.7254 1 59.2162 5.4908 59.2162 11.0305V38.7671H59.5263C59.6428 38.7671 59.7373 38.8615 59.7373 38.978V52.9744C59.7373 53.091 59.6428 53.1854 59.5263 53.1854H59.2162V110.131C59.2162 115.671 54.7254 120.161 49.1857 120.161H11.4775C5.93785 120.161 1.44706 115.671 1.44706 110.131V53.1496H1.21096C1.09445 53.1496 1 53.0551 1 52.9386V44.2942C1 44.1777 1.09445 44.0832 1.21096 44.0832H1.44706V41.6328H1.21096C1.09445 41.6328 1 41.5384 1 41.4219V32.7775C1 32.661 1.09445 32.5665 1.21096 32.5665H1.44706V28.5295H1.21096C1.09445 28.5295 1 28.4351 1 28.3186V24.1083C1 23.9918 1.09445 23.8974 1.21096 23.8974H1.44706V11.0305Z"/>
</mask>
<path d="M59.2162 38.7671H58.848C58.848 38.9705 59.0128 39.1353 59.2162 39.1353V38.7671ZM59.2162 53.1854V52.8172C59.0128 52.8172 58.848 52.982 58.848 53.1854H59.2162ZM1.44706 53.1496H1.81529C1.81529 52.9462 1.65043 52.7813 1.44706 52.7813V53.1496ZM1.44706 44.0832V44.4515C1.65043 44.4515 1.81529 44.2866 1.81529 44.0832H1.44706ZM1.44706 41.6328H1.81529C1.81529 41.4295 1.65043 41.2646 1.44706 41.2646V41.6328ZM1.44706 32.5665V32.9347C1.65043 32.9347 1.81529 32.7699 1.81529 32.5665H1.44706ZM1.44706 28.5295H1.81529C1.81529 28.3262 1.65043 28.1613 1.44706 28.1613V28.5295ZM1.44706 23.8974V24.2656C1.65043 24.2656 1.81529 24.1008 1.81529 23.8974H1.44706ZM11.4775 0.63177C5.73449 0.63177 1.07883 5.28743 1.07883 11.0305H1.81529C1.81529 5.69417 6.14123 1.36823 11.4775 1.36823V0.63177ZM49.1857 0.63177H11.4775V1.36823H49.1857V0.63177ZM59.5844 11.0305C59.5844 5.28743 54.9288 0.63177 49.1857 0.63177V1.36823C54.522 1.36823 58.848 5.69416 58.848 11.0305H59.5844ZM59.5844 38.7671V11.0305H58.848V38.7671H59.5844ZM59.2162 39.1353H59.5263V38.3989H59.2162V39.1353ZM59.5263 39.1353C59.4395 39.1353 59.369 39.0649 59.369 38.978H60.1055C60.1055 38.6582 59.8462 38.3989 59.5263 38.3989V39.1353ZM59.369 38.978V52.9744H60.1055V38.978H59.369ZM59.369 52.9744C59.369 52.8876 59.4395 52.8172 59.5263 52.8172V53.5536C59.8462 53.5536 60.1055 53.2943 60.1055 52.9744H59.369ZM59.5263 52.8172H59.2162V53.5536H59.5263V52.8172ZM59.5844 110.131V53.1854H58.848V110.131H59.5844ZM49.1857 120.53C54.9288 120.53 59.5844 115.874 59.5844 110.131H58.848C58.848 115.467 54.522 119.793 49.1857 119.793V120.53ZM11.4775 120.53H49.1857V119.793H11.4775V120.53ZM1.07883 110.131C1.07883 115.874 5.73449 120.53 11.4775 120.53V119.793C6.14122 119.793 1.81529 115.467 1.81529 110.131H1.07883ZM1.07883 53.1496V110.131H1.81529V53.1496H1.07883ZM1.21096 53.5178H1.44706V52.7813H1.21096V53.5178ZM0.63177 52.9386C0.63177 53.2585 0.891086 53.5178 1.21096 53.5178V52.7813C1.29781 52.7813 1.36823 52.8517 1.36823 52.9386H0.63177ZM0.63177 44.2942V52.9386H1.36823V44.2942H0.63177ZM1.21096 43.715C0.891081 43.715 0.63177 43.9743 0.63177 44.2942H1.36823C1.36823 44.3811 1.29782 44.4515 1.21096 44.4515V43.715ZM1.44706 43.715H1.21096V44.4515H1.44706V43.715ZM1.07883 41.6328V44.0832H1.81529V41.6328H1.07883ZM1.21096 42.0011H1.44706V41.2646H1.21096V42.0011ZM0.63177 41.4219C0.63177 41.7417 0.891077 42.0011 1.21096 42.0011V41.2646C1.29782 41.2646 1.36823 41.335 1.36823 41.4219H0.63177ZM0.63177 32.7775V41.4219H1.36823V32.7775H0.63177ZM1.21096 32.1983C0.891081 32.1983 0.63177 32.4576 0.63177 32.7775H1.36823C1.36823 32.8643 1.29782 32.9347 1.21096 32.9347V32.1983ZM1.44706 32.1983H1.21096V32.9347H1.44706V32.1983ZM1.07883 28.5295V32.5665H1.81529V28.5295H1.07883ZM1.21096 28.8978H1.44706V28.1613H1.21096V28.8978ZM0.63177 28.3186C0.63177 28.6385 0.891083 28.8978 1.21096 28.8978V28.1613C1.29782 28.1613 1.36823 28.2317 1.36823 28.3186H0.63177ZM0.63177 24.1083V28.3186H1.36823V24.1083H0.63177ZM1.21096 23.5292C0.891081 23.5292 0.63177 23.7885 0.63177 24.1083H1.36823C1.36823 24.1952 1.29782 24.2656 1.21096 24.2656V23.5292ZM1.44706 23.5292H1.21096V24.2656H1.44706V23.5292ZM1.07883 11.0305V23.8974H1.81529V11.0305H1.07883Z" fill="#0B0921" mask="url(#path-2-outside-1_2_8472)"/>
<path fill-rule="evenodd" clip-rule="evenodd" d="M11.3952 3.56836C7.38214 3.56836 4.12891 6.8216 4.12891 10.8347V110.32C4.12891 114.333 7.38214 117.586 11.3952 117.586H49.2751C53.2882 117.586 56.5414 114.333 56.5414 110.32V10.8347C56.5414 6.82159 53.2882 3.56836 49.2751 3.56836H11.3952ZM24.4073 4.9873C23.0384 4.9873 21.9288 6.09694 21.9288 7.46576C21.9288 8.83457 23.0384 9.94422 24.4073 9.94422H36.2594C37.6282 9.94422 38.7378 8.83457 38.7378 7.46576C38.7378 6.09694 37.6282 4.9873 36.2594 4.9873H24.4073Z" fill="#717171"/>
<mask id="path-5-inside-2_2_8472" fill="white">
<path fill-rule="evenodd" clip-rule="evenodd" d="M39.7321 60.0968C40.8656 59.6325 43.8865 58.7038 46.902 58.7038H66.3223C67.7562 58.7038 71.1814 58.9008 73.9019 60.0807C71.4145 57.152 71.1664 54.2625 71.0802 53.2589C71.0784 53.2376 71.0766 53.2172 71.0749 53.1976C71.0102 52.4534 70.7805 49.2658 70.6695 47.7258L70.6652 47.6665C70.6002 46.7651 70.0097 46.0053 68.125 45.5931C65.5028 45.0195 58.0461 43.6674 46.7381 45.2653C43.044 46.02 43.0469 47.0058 43.0505 48.2599C43.0506 48.2994 43.0507 48.3391 43.0507 48.3791C43.0507 49.3701 42.8049 53.5005 42.2723 55.9177C42.0646 56.8601 41.1251 58.7038 39.7321 60.0968ZM39.394 113.078C40.5904 113.734 42.4891 114.777 46.0844 114.777C50.1685 114.777 54.1495 114.782 57.7712 114.788C60.7935 114.792 63.5655 114.796 65.9386 114.796C66.0866 114.796 66.2515 114.799 66.4333 114.803C68.0134 114.837 70.8724 114.898 75.0287 112.922C71.3215 115.455 71.2315 118.58 71.194 119.88C71.1896 120.032 71.186 120.158 71.1775 120.256C71.1119 121.01 70.877 124.23 70.7677 125.746C70.7028 126.648 70.1532 127.465 68.2685 127.877C65.6464 128.45 58.1896 129.802 46.8816 128.205C43.1875 127.45 43.1904 126.464 43.194 125.21C43.1941 125.17 43.1942 125.131 43.1942 125.091C43.1942 124.1 43.0713 120.42 42.3338 117.511C42.0967 116.576 40.7769 114.029 38.6055 112.677C38.8341 112.77 39.0916 112.912 39.394 113.078Z"/>
</mask>
<path d="M39.7321 60.0968L39.5046 59.8694C39.3963 59.9777 39.3794 60.1474 39.4643 60.275C39.5492 60.4025 39.7122 60.4525 39.854 60.3944L39.7321 60.0968ZM73.9019 60.0807L73.7739 60.3758C73.9111 60.4353 74.0712 60.3924 74.1603 60.2723C74.2493 60.1521 74.2438 59.9865 74.147 59.8725L73.9019 60.0807ZM71.0802 53.2589L70.7598 53.2864V53.2864L71.0802 53.2589ZM71.0749 53.1976L71.3953 53.1697L71.3953 53.1697L71.0749 53.1976ZM70.6695 47.7258L70.9902 47.7026V47.7026L70.6695 47.7258ZM70.6652 47.6665L70.3444 47.6896L70.6652 47.6665ZM68.125 45.5931L68.1937 45.2789L68.125 45.5931ZM46.7381 45.2653L46.6931 44.9468C46.6866 44.9478 46.6801 44.9489 46.6737 44.9502L46.7381 45.2653ZM43.0505 48.2599L43.3721 48.259V48.259L43.0505 48.2599ZM42.2723 55.9177L42.5863 55.987L42.2723 55.9177ZM39.394 113.078L39.5487 112.796H39.5487L39.394 113.078ZM57.7712 114.788L57.7717 114.466L57.7712 114.788ZM66.4333 114.803L66.4401 114.482H66.4401L66.4333 114.803ZM75.0287 112.922L75.2102 113.188C75.3488 113.093 75.3913 112.908 75.3076 112.762C75.2239 112.617 75.0424 112.56 74.8907 112.632L75.0287 112.922ZM71.194 119.88L71.5155 119.89L71.194 119.88ZM71.1775 120.256L70.8571 120.228V120.228L71.1775 120.256ZM70.7677 125.746L71.0885 125.769L70.7677 125.746ZM68.2685 127.877L68.3372 128.191H68.3372L68.2685 127.877ZM46.8816 128.205L46.8172 128.52C46.8237 128.521 46.8301 128.522 46.8366 128.523L46.8816 128.205ZM43.194 125.21L43.5156 125.211L43.194 125.21ZM42.3338 117.511L42.0221 117.59L42.3338 117.511ZM38.6055 112.677L38.7274 112.379C38.5727 112.316 38.3953 112.381 38.3191 112.53C38.243 112.679 38.2936 112.861 38.4355 112.95L38.6055 112.677ZM46.902 58.3822C43.8327 58.3822 40.7695 59.3243 39.6101 59.7992L39.854 60.3944C40.9617 59.9407 43.9403 59.0254 46.902 59.0254V58.3822ZM66.3223 58.3822H46.902V59.0254H66.3223V58.3822ZM74.0299 59.7857C71.2477 58.5789 67.7688 58.3822 66.3223 58.3822V59.0254C67.7437 59.0254 71.1152 59.2226 73.7739 60.3758L74.0299 59.7857ZM70.7598 53.2864C70.8478 54.3113 71.1038 57.283 73.6568 60.2889L74.147 59.8725C71.7251 57.0209 71.485 54.2136 71.4006 53.2314L70.7598 53.2864ZM70.7545 53.2254C70.7562 53.2448 70.7579 53.2651 70.7598 53.2864L71.4006 53.2314C71.3988 53.2101 71.397 53.1895 71.3953 53.1697L70.7545 53.2254ZM70.3487 47.7489C70.4595 49.2868 70.6895 52.4781 70.7545 53.2254L71.3953 53.1697C71.3309 52.4287 71.1014 49.2448 70.9902 47.7026L70.3487 47.7489ZM70.3444 47.6896L70.3487 47.7489L70.9902 47.7026L70.986 47.6434L70.3444 47.6896ZM68.0563 45.9072C68.9707 46.1073 69.5284 46.3832 69.8617 46.6848C70.184 46.9765 70.3171 47.3107 70.3444 47.6896L70.986 47.6434C70.9483 47.1209 70.7536 46.6245 70.2933 46.2079C69.8438 45.8012 69.164 45.4911 68.1937 45.2789L68.0563 45.9072ZM46.7831 45.5837C58.0448 43.9924 65.4622 45.3398 68.0563 45.9072L68.1937 45.2789C65.5435 44.6991 58.0474 43.3424 46.6931 44.9468L46.7831 45.5837ZM43.3721 48.259C43.3702 47.6173 43.3801 47.1865 43.7437 46.7938C44.1297 46.3767 44.9617 45.9565 46.8025 45.5804L46.6737 44.9502C44.8205 45.3288 43.8068 45.7788 43.2717 46.3568C42.714 46.9592 42.7271 47.6484 42.7289 48.2608L43.3721 48.259ZM43.3723 48.3791C43.3723 48.3386 43.3722 48.2984 43.3721 48.259L42.7289 48.2608C42.729 48.3004 42.7291 48.3396 42.7291 48.3791H43.3723ZM42.5863 55.987C43.1257 53.539 43.3723 49.3835 43.3723 48.3791H42.7291C42.7291 49.3567 42.484 53.462 41.9582 55.8485L42.5863 55.987ZM39.9595 60.3242C41.3884 58.8953 42.3634 56.9988 42.5863 55.987L41.9582 55.8485C41.7658 56.7214 40.8617 58.5123 39.5046 59.8694L39.9595 60.3242ZM46.0844 114.455C42.566 114.455 40.7227 113.44 39.5487 112.796L39.2392 113.359C40.458 114.028 42.4123 115.098 46.0844 115.098V114.455ZM57.7717 114.466C54.15 114.461 50.1688 114.455 46.0844 114.455V115.098C50.1682 115.098 54.149 115.104 57.7708 115.109L57.7717 114.466ZM65.9386 114.474C63.5658 114.474 60.794 114.47 57.7717 114.466L57.7708 115.109C60.7929 115.114 63.5653 115.118 65.9386 115.118V114.474ZM66.4401 114.482C66.2592 114.478 66.0907 114.474 65.9386 114.474V115.118C66.0825 115.118 66.2437 115.121 66.4265 115.125L66.4401 114.482ZM74.8907 112.632C70.7985 114.577 67.9965 114.515 66.4401 114.482L66.4265 115.125C68.0303 115.159 70.9464 115.219 75.1668 113.213L74.8907 112.632ZM71.5155 119.89C71.5341 119.244 71.5657 118.185 72.0349 116.98C72.5022 115.78 73.4106 114.417 75.2102 113.188L74.8473 112.657C72.9397 113.96 71.9494 115.426 71.4355 116.747C70.9235 118.062 70.8914 119.216 70.8725 119.871L71.5155 119.89ZM71.4979 120.284C71.5074 120.175 71.5112 120.037 71.5155 119.89L70.8725 119.871C70.8681 120.026 70.8646 120.142 70.8571 120.228L71.4979 120.284ZM71.0885 125.769C71.1979 124.252 71.4326 121.035 71.4979 120.284L70.8571 120.228C70.7912 120.985 70.5561 124.209 70.447 125.723L71.0885 125.769ZM68.3372 128.191C69.3121 127.978 69.9843 127.651 70.424 127.226C70.872 126.793 71.0514 126.284 71.0885 125.769L70.447 125.723C70.4191 126.11 70.2912 126.46 69.977 126.764C69.6545 127.076 69.1096 127.364 68.1998 127.563L68.3372 128.191ZM46.8366 128.523C58.1909 130.127 65.687 128.771 68.3372 128.191L68.1998 127.563C65.6057 128.13 58.1884 129.477 46.9266 127.886L46.8366 128.523ZM42.8724 125.209C42.8706 125.821 42.8575 126.511 43.4152 127.113C43.9503 127.691 44.964 128.141 46.8172 128.52L46.946 127.889C45.1052 127.513 44.2733 127.093 43.8872 126.676C43.5236 126.283 43.5138 125.853 43.5156 125.211L42.8724 125.209ZM42.8726 125.091C42.8726 125.13 42.8725 125.169 42.8724 125.209L43.5156 125.211C43.5157 125.171 43.5158 125.131 43.5158 125.091H42.8726ZM42.0221 117.59C42.7497 120.46 42.8726 124.108 42.8726 125.091H43.5158C43.5158 124.092 43.393 120.38 42.6456 117.432L42.0221 117.59ZM38.4355 112.95C39.4719 113.595 40.3147 114.533 40.9296 115.432C41.5472 116.335 41.9157 117.171 42.0221 117.59L42.6456 117.432C42.5148 116.916 42.1049 116.011 41.4605 115.069C40.8133 114.122 39.9105 113.11 38.7755 112.404L38.4355 112.95ZM39.5487 112.796C39.2517 112.633 38.9766 112.481 38.7274 112.379L38.4836 112.974C38.6917 113.059 38.9315 113.191 39.2392 113.359L39.5487 112.796Z" fill="#0B0921" mask="url(#path-5-inside-2_2_8472)"/>
<mask id="path-7-inside-3_2_8472" fill="white">
<path fill-rule="evenodd" clip-rule="evenodd" d="M45.8373 58.4121C38.5964 58.4121 32.7266 64.282 32.7266 71.5228V102.005C32.7266 109.246 38.5964 115.116 45.8373 115.116H67.7125C74.9533 115.116 80.8232 109.246 80.8232 102.005V80.6558C81.103 80.7297 81.793 80.7897 82.0101 80.6399C82.0533 80.6102 82.1004 80.5956 82.1499 80.5803C82.3667 80.5133 82.6273 80.4327 82.7851 78.9956C82.9789 77.231 82.8239 72.8596 82.6689 72.1378C82.6343 71.9768 82.5688 71.8432 82.487 71.7334C82.1599 71.2943 81.5379 71.2949 80.9849 71.2955C80.9649 71.2955 80.945 71.2956 80.9251 71.2956C80.8894 71.2956 80.8549 71.2985 80.8214 71.3042C80.7047 64.1642 74.8803 58.4121 67.7125 58.4121H45.8373Z"/>
</mask>
<path d="M80.8232 80.6558L80.9053 80.3449C80.8089 80.3194 80.706 80.3401 80.627 80.401C80.5479 80.4619 80.5016 80.556 80.5016 80.6558H80.8232ZM82.0101 80.6399L81.8275 80.3752L81.8275 80.3752L82.0101 80.6399ZM82.1499 80.5803L82.0549 80.273H82.0549L82.1499 80.5803ZM82.7851 78.9956L83.1048 79.0307L82.7851 78.9956ZM82.6689 72.1378L82.3544 72.2053V72.2053L82.6689 72.1378ZM82.487 71.7334L82.7449 71.5413L82.7449 71.5413L82.487 71.7334ZM80.9849 71.2955L80.9852 71.6171H80.9852L80.9849 71.2955ZM80.8214 71.3042L80.4999 71.3095C80.5014 71.4034 80.5439 71.4919 80.6162 71.5518C80.6885 71.6117 80.7834 71.6371 80.8759 71.6212L80.8214 71.3042ZM33.0482 71.5228C33.0482 64.4596 38.7741 58.7337 45.8373 58.7337V58.0905C38.4188 58.0905 32.405 64.1044 32.405 71.5228H33.0482ZM33.0482 102.005V71.5228H32.405V102.005H33.0482ZM45.8373 114.794C38.7741 114.794 33.0482 109.069 33.0482 102.005H32.405C32.405 109.424 38.4188 115.438 45.8373 115.438V114.794ZM67.7125 114.794H45.8373V115.438H67.7125V114.794ZM80.5016 102.005C80.5016 109.069 74.7757 114.794 67.7125 114.794V115.438C75.131 115.438 81.1448 109.424 81.1448 102.005H80.5016ZM80.5016 80.6558V102.005H81.1448V80.6558H80.5016ZM80.7411 80.9668C80.9109 81.0116 81.1793 81.0473 81.4326 81.0533C81.5608 81.0563 81.6951 81.052 81.8181 81.0343C81.9315 81.0181 82.0759 80.9853 82.1928 80.9046L81.8275 80.3752C81.8358 80.3695 81.8125 80.3853 81.7268 80.3976C81.6506 80.4086 81.5542 80.4127 81.4477 80.4102C81.2318 80.4052 81.0153 80.3739 80.9053 80.3449L80.7411 80.9668ZM82.1928 80.9046C82.1891 80.9072 82.1887 80.9066 82.1963 80.9036C82.2003 80.902 82.2059 80.9 82.2142 80.8972C82.2227 80.8944 82.232 80.8915 82.2449 80.8876L82.0549 80.273C82.0122 80.2862 81.9175 80.3131 81.8275 80.3752L82.1928 80.9046ZM82.2449 80.8876C82.2969 80.8715 82.398 80.8421 82.5006 80.7716C82.6072 80.6983 82.6971 80.595 82.7729 80.4541C82.9161 80.1879 83.0252 79.7554 83.1048 79.0307L82.4654 78.9605C82.3872 79.6729 82.2872 79.9993 82.2064 80.1494C82.1703 80.2166 82.1444 80.2358 82.1363 80.2414C82.1241 80.2498 82.1113 80.2556 82.0549 80.273L82.2449 80.8876ZM83.1048 79.0307C83.2043 78.125 83.2132 76.5718 83.1793 75.1679C83.1623 74.4629 83.1343 73.7896 83.1007 73.2459C83.0677 72.7124 83.0281 72.2787 82.9833 72.0702L82.3544 72.2053C82.3872 72.3578 82.425 72.7412 82.4587 73.2855C82.4917 73.8197 82.5194 74.4848 82.5363 75.1835C82.5702 76.5869 82.5597 78.1017 82.4654 78.9605L83.1048 79.0307ZM82.9833 72.0702C82.9386 71.862 82.8529 71.6862 82.7449 71.5413L82.2291 71.9255C82.2847 72.0001 82.33 72.0916 82.3544 72.2053L82.9833 72.0702ZM82.7449 71.5413C82.5175 71.236 82.1955 71.0984 81.8855 71.0346C81.5819 70.9721 81.2539 70.9736 80.9845 70.9739L80.9852 71.6171C81.2689 71.6168 81.5284 71.6178 81.7558 71.6646C81.9768 71.7101 82.1294 71.7917 82.2291 71.9255L82.7449 71.5413ZM80.9845 70.9739C80.9645 70.9739 80.9448 70.974 80.9251 70.974V71.6172C80.9451 71.6172 80.9652 71.6172 80.9852 71.6171L80.9845 70.9739ZM80.9251 70.974C80.872 70.974 80.8192 70.9783 80.767 70.9872L80.8759 71.6212C80.8906 71.6187 80.9069 71.6172 80.9251 71.6172V70.974ZM67.7125 58.7337C74.7045 58.7337 80.386 64.3447 80.4999 71.3095L81.143 71.299C81.0234 63.9837 75.0562 58.0905 67.7125 58.0905V58.7337ZM45.8373 58.7337H67.7125V58.0905H45.8373V58.7337Z" fill="#0B0921" mask="url(#path-7-inside-3_2_8472)"/>
<rect x="34.9342" y="60.6237" width="43.6712" height="52.2793" rx="10.7375" stroke="#0B0921" stroke-width="0.321612" stroke-linejoin="round"/>
<rect x="36.3398" y="61.9199" width="40.9536" height="50.0285" rx="8.89072" fill="#283760"/>
</svg>
