<svg width="248" height="224" viewBox="0 0 248 224" fill="none" xmlns="http://www.w3.org/2000/svg">
<path d="M105.745 211.49C164.146 211.49 211.49 164.146 211.49 105.745C211.49 47.3436 164.146 0 105.745 0C47.3436 0 0 47.3436 0 105.745C0 164.146 47.3436 211.49 105.745 211.49Z" fill="#4FB9C7"/>
<path d="M229.184 220.868C237.846 220.868 244.868 213.846 244.868 205.184C244.868 196.522 237.846 189.5 229.184 189.5C220.522 189.5 213.5 196.522 213.5 205.184C213.5 213.846 220.522 220.868 229.184 220.868Z" fill="#4FB9C7" stroke="white" stroke-width="5"/>
<path d="M180.583 209.507C197.422 209.507 211.073 195.856 211.073 179.017C211.073 162.177 197.422 148.526 180.583 148.526C163.743 148.526 150.092 162.177 150.092 179.017C150.092 195.856 163.743 209.507 180.583 209.507Z" fill="#4FB9C7" stroke="white" stroke-width="10"/>
<g clip-path="url(#clip0_1352_16891)">
<path d="M98.7859 122.222C96.8396 124.139 93.7146 124.139 91.7682 122.222L77.7785 108.441C75.8721 106.563 72.8113 106.563 70.905 108.441C68.9576 110.359 68.9576 113.5 70.905 115.418L91.7682 135.97C93.7146 137.888 96.8396 137.888 98.7859 135.97L151.551 83.993C153.498 82.0747 153.498 78.9336 151.551 77.0153C149.644 75.1374 146.584 75.1374 144.677 77.0153L98.7859 122.222Z" fill="white"/>
</g>
<defs>
<clipPath id="clip0_1352_16891">
<rect width="87.7291" height="65.7968" fill="white" transform="translate(67.3633 73.6299)"/>
</clipPath>
</defs>
</svg>
