<svg width="629" height="781" viewBox="0 0 629 781" fill="none" xmlns="http://www.w3.org/2000/svg">
<g opacity="0.7">
<rect x="44.1426" y="63.3149" width="568.86" height="654.803" rx="37.173" fill="#D5DFED"/>
<mask id="mask0_879_6844" style="mask-type:alpha" maskUnits="userSpaceOnUse" x="43" y="63" width="570" height="656">
<rect x="43.9492" y="63.3145" width="568.86" height="654.803" rx="37.173" fill="#D5DFED"/>
</mask>
<g mask="url(#mask0_879_6844)">
<path d="M-105.256 683.516H732.016V683.934H-105.256V683.516Z" fill="#AFC0D9"/>
<path d="M46.0058 710.656H73.7363V711.074H46.0058V710.656Z" fill="#AFC0D9"/>
<path d="M117.468 704.588H180.782V705.006H117.468V704.588Z" fill="#AFC0D9"/>
<path d="M172.606 694.913H288.283V695.331H172.606V694.913Z" fill="#AFC0D9"/>
<path d="M546.319 697.718H607.992V698.136H546.319V697.718Z" fill="#AFC0D9"/>
<path d="M377.256 704.779H476.941V705.197H377.256V704.779Z" fill="#AFC0D9"/>
<path d="M335.147 608.904H658.485C663.76 608.904 668.03 604.621 668.03 599.352V145.259C667.98 140.023 663.726 135.807 658.485 135.791H335.147C329.873 135.791 325.586 140.073 325.586 145.343V599.352C325.586 604.621 329.873 608.904 335.147 608.904ZM658.485 136.125C663.525 136.125 667.611 140.224 667.611 145.259V599.352C667.611 604.387 663.525 608.469 658.485 608.486H335.147C330.107 608.486 326.021 604.387 326.004 599.352V145.259C326.004 140.224 330.107 136.142 335.147 136.125H658.485Z" fill="#AFC0D9"/>
<path d="M-27.0732 608.904H296.281C301.556 608.904 305.826 604.621 305.843 599.352V145.259C305.793 140.023 301.522 135.807 296.281 135.791H-27.0732C-32.3145 135.807 -36.5511 140.023 -36.6013 145.259V599.352C-36.6013 604.621 -32.348 608.887 -27.0732 608.904ZM296.281 136.125C301.322 136.125 305.407 140.224 305.424 145.259V599.352C305.424 604.387 301.322 608.469 296.281 608.486H-27.0732C-32.1135 608.486 -36.1994 604.387 -36.2161 599.352V145.259C-36.2161 140.224 -32.1135 136.142 -27.0732 136.125H296.281Z" fill="#AFC0D9"/>
<path d="M304.224 43.7778H340.328V683.518H304.224V43.7778Z" fill="#F5F5F5"/>
<path d="M299.169 43.7778H304.243V683.518H299.169V43.7778Z" fill="#E0E0E0"/>
<path d="M498.984 619.072H689.329C689.329 607.378 679.834 597.892 668.129 597.892H498.984V619.072Z" fill="#E6E6E6"/>
<path d="M485.011 619.072H568.186C568.186 607.378 558.691 597.892 546.986 597.892H485.011V619.072Z" fill="#E0E0E0"/>
<path d="M365.975 619.072H556.321C556.321 607.378 546.826 597.892 535.121 597.892H365.975V619.072Z" fill="#E6E6E6"/>
<path d="M352.032 619.072H435.207C435.207 607.378 425.712 597.892 414.007 597.892H352.032V619.072Z" fill="#E0E0E0"/>
<path d="M95.6844 619.072H286.097C286.097 607.378 276.602 597.892 264.897 597.892C264.863 597.892 264.847 597.892 264.813 597.892H95.6844V619.072Z" fill="#E6E6E6"/>
<path d="M81.8171 619.072H164.992C164.992 607.378 155.497 597.892 143.792 597.892H81.8171V619.072Z" fill="#E0E0E0"/>
<path d="M14.6195 552.913H98.916L87.0435 683.521H26.492L14.6195 552.913Z" fill="#AFC0D9"/>
<path d="M57.5984 574.694C59.139 520.658 46.4962 408.787 23.8731 363.282L22.3828 364.018C44.1518 407.716 57.5482 520.156 55.8736 574.644L57.5984 574.694Z" fill="#AFC0D9"/>
<path d="M49.2204 468.306C49.2204 468.306 54.7631 415.993 75.226 399.949C86.1943 432.973 63.7219 444.35 49.2204 468.306Z" fill="#AFC0D9"/>
<path d="M49.2261 469.141C49.5275 469.141 49.7955 468.991 49.9462 468.74C53.6469 462.884 57.7328 457.28 62.2038 451.977C74.0429 437.238 84.2743 424.49 76.0356 399.697C75.9519 399.446 75.7509 399.245 75.483 399.161C75.2318 399.078 74.9471 399.128 74.7294 399.295C54.2163 415.389 48.64 466.08 48.4223 468.238C48.3721 468.623 48.6066 468.991 48.975 469.108L49.2261 469.141ZM74.8131 401.37C82.0639 424.54 72.2343 436.786 60.8809 450.923C57.4146 455.239 53.8479 459.672 50.549 464.674C52.1566 452.696 58.6873 415.172 74.8131 401.37Z" fill="#AFC0D9"/>
<path d="M56.2775 541.926C56.2775 541.926 64.6503 469.153 90.0699 449.914C102.796 490.617 74.5468 512.917 56.2775 541.926Z" fill="#AFC0D9"/>
<path d="M56.2774 542.962C56.6291 542.962 56.964 542.795 57.1482 542.494C61.0499 536.287 65.5209 530.315 69.7575 524.543C85.9336 502.694 101.205 482.083 91.0577 449.645C90.9572 449.327 90.706 449.076 90.3879 448.975C90.0697 448.875 89.718 448.942 89.4501 449.143C63.997 468.398 55.6076 538.83 55.256 541.825C55.2057 542.31 55.4904 542.745 55.9425 542.912C56.043 542.946 56.1602 542.962 56.2774 542.962ZM89.5339 451.702C98.4759 482.317 83.7232 502.242 68.1164 523.322C64.7674 527.939 61.1838 532.674 57.9017 537.575C60.1791 521.766 69.2049 468.716 89.5339 451.702Z" fill="#AFC0D9"/>
<path d="M40.003 415.402C40.003 415.402 43.8544 378.914 58.1382 367.722C65.7909 390.759 50.1172 398.705 40.003 415.402Z" fill="#AFC0D9"/>
<path d="M40.0087 415.987C40.2097 415.987 40.3939 415.87 40.4943 415.703C43.0731 411.621 45.9366 407.706 49.0345 403.992C57.3068 393.704 64.4403 384.82 58.6966 367.522C58.6296 367.338 58.4957 367.204 58.3115 367.137C58.1273 367.087 57.9263 367.137 57.7756 367.237C43.475 378.463 39.5733 413.829 39.3556 415.335C39.3221 415.603 39.4896 415.854 39.7408 415.937C39.8245 415.987 39.9082 416.004 40.0087 415.987ZM57.8426 368.709C62.8662 384.887 56.0509 393.419 48.1303 403.273C45.7022 406.284 43.2238 409.396 40.913 412.876C42.1019 404.528 46.6064 378.379 57.8426 368.709Z" fill="#AFC0D9"/>
<path d="M470.8 369.472C486.725 368.351 493.608 370.208 500.49 355.904C507.372 341.6 531.385 333.921 539.189 346.402C546.992 358.882 549.805 367.548 567.857 360.153C585.909 352.759 591.853 358.129 594.465 367.983C597.078 377.837 638.372 373.085 626.282 387.172H473.329C473.329 387.172 454.809 370.593 470.8 369.472Z" fill="#F5F5F5"/>
<path d="M-2.77644 293.062C6.2326 292.427 10.1175 293.481 13.969 285.384C17.8204 277.286 31.4512 272.937 35.872 279.997C40.2928 287.057 41.8669 291.975 52.0816 287.776C62.2963 283.577 65.6621 286.638 67.1525 292.209C68.6428 297.78 92.0027 295.103 85.1538 303.067H-1.43683C-1.43683 303.067 -11.7855 293.631 -2.77644 293.062Z" fill="#F5F5F5"/>
<path d="M105.037 96.8432C109.508 89.5825 122.285 87.1735 133.705 92.8113C145.126 98.4492 137.356 63.1163 158.723 69.0385C189.233 77.5037 180.743 102.782 193.453 100.474C206.163 98.1648 243.438 104.355 223.729 116.986H110.948C110.948 116.986 100.583 104.087 105.037 96.8432Z" fill="#F5F5F5"/>
</g>
<path d="M184.375 228.705L197.989 220.574L190.068 219.018L168.969 223.2L184.375 228.705Z" fill="#AFC0D9"/>
<path opacity="0.3" d="M184.375 228.705L197.989 220.574L190.068 219.018L168.969 223.2L184.375 228.705Z" fill="#AFC0D9"/>
<path d="M90.2156 203.788L106.777 183.01L100.648 181.822C95.6747 180.852 90.5338 181.337 85.8284 183.211L53.8446 196.042L90.2156 203.788Z" fill="#AFC0D9"/>
<path opacity="0.3" d="M90.2156 203.788L106.777 183.01L100.648 181.822C95.6747 180.852 90.5338 181.337 85.8284 183.211L53.8446 196.042L90.2156 203.788Z" fill="#AFC0D9"/>
<path d="M3.37851 188.9L8.30167 187.679C13.0741 186.424 18.0643 186.307 22.887 187.327L185.066 224.132L186.59 231.109L180.261 235.626L16.1553 203.521C10.78 202.468 5.77313 200.042 1.62025 196.462C-0.23848 194.989 -0.539902 192.279 0.933685 190.422C1.55327 189.653 2.40727 189.117 3.37851 188.9Z" fill="#AFC0D9"/>
<path d="M102.554 239.734L173.559 254.812L173.375 255.679L102.369 240.601L102.554 239.734Z" fill="#AFC0D9"/>
<path d="M111.717 194.151L157.989 203.977L157.804 204.844L111.532 195.018L111.717 194.151Z" fill="#AFC0D9"/>
<path d="M186.809 257.633L205.825 261.671L205.641 262.538L186.624 258.5L186.809 257.633Z" fill="#AFC0D9"/>
<path opacity="0.3" d="M20.2525 200.644L180.523 234.755C181.26 234.906 181.963 235.173 182.616 235.558C181.829 235.659 181.025 235.642 180.255 235.475L16.1498 203.387C13.4706 202.852 10.875 201.982 8.41347 200.794L7.81065 200.51C11.93 199.723 16.1499 199.774 20.2525 200.644Z" fill="#AFC0D9"/>
<path d="M186.586 230.985L190.705 248.367L182.784 246.811L168.367 228.007L186.586 230.985Z" fill="#AFC0D9"/>
<path d="M185.049 223.992L194.661 206.61L187.276 205.155L165.959 220.262L185.049 223.992Z" fill="#AFC0D9"/>
<path d="M88.7779 211.096L91.4404 261.285C83.838 259.796 77.2738 255.028 73.5228 248.269L48.4883 203.25L88.7779 211.096Z" fill="#AFC0D9"/>
<g opacity="0.5">
<path d="M130.424 217.2L132.442 217.614L131.685 221.301L129.667 220.888L130.424 217.2Z" fill="white"/>
<path d="M126.357 216.423L128.375 216.836L127.619 220.523L125.601 220.11L126.357 216.423Z" fill="white"/>
<path d="M122.249 215.58L124.267 215.993L123.511 219.68L121.493 219.267L122.249 215.58Z" fill="white"/>
<path d="M118.164 214.741L120.182 215.154L119.425 218.841L117.408 218.428L118.164 214.741Z" fill="white"/>
<path d="M114.054 213.916L116.071 214.329L115.315 218.016L113.297 217.603L114.054 213.916Z" fill="white"/>
<path d="M109.975 213.065L111.993 213.479L111.236 217.166L109.219 216.753L109.975 213.065Z" fill="white"/>
<path d="M105.894 212.233L107.912 212.646L107.156 216.334L105.138 215.921L105.894 212.233Z" fill="white"/>
<path d="M101.816 211.342L103.834 211.755L103.077 215.443L101.059 215.029L101.816 211.342Z" fill="white"/>
<path d="M97.7078 210.558L99.7256 210.971L98.9693 214.658L96.9515 214.245L97.7078 210.558Z" fill="white"/>
<path d="M93.6478 209.726L95.6655 210.139L94.9092 213.826L92.8915 213.413L93.6478 209.726Z" fill="white"/>
<path d="M89.5576 208.854L91.5918 209.271L90.8355 212.958L88.8013 212.542L89.5576 208.854Z" fill="white"/>
<path d="M85.4842 208.043L87.502 208.457L86.7456 212.144L84.7279 211.731L85.4842 208.043Z" fill="white"/>
<path d="M81.3832 207.143L83.4009 207.556L82.6439 211.244L80.6262 210.83L81.3832 207.143Z" fill="white"/>
<path d="M77.2608 206.353L79.2949 206.77L78.5386 210.457L76.5045 210.041L77.2608 206.353Z" fill="white"/>
<path d="M73.1939 205.503L75.228 205.919L74.4717 209.607L72.4376 209.191L73.1939 205.503Z" fill="white"/>
<path d="M69.118 204.692L71.1357 205.105L70.3794 208.793L68.3617 208.38L69.118 204.692Z" fill="white"/>
<path d="M65.0186 203.839L67.0527 204.255L66.2964 207.943L64.2623 207.526L65.0186 203.839Z" fill="white"/>
<path d="M60.9268 203.016L62.9609 203.433L62.2046 207.12L60.1705 206.704L60.9268 203.016Z" fill="white"/>
<path d="M56.8739 202.196L58.8916 202.609L58.1353 206.297L56.1176 205.884L56.8739 202.196Z" fill="white"/>
<path d="M52.7294 201.289L54.7471 201.702L53.9901 205.39L51.9724 204.976L52.7294 201.289Z" fill="white"/>
<path d="M48.6709 200.495L50.7051 200.911L49.9488 204.599L47.9146 204.182L48.6709 200.495Z" fill="white"/>
<path d="M44.5682 199.7L46.5859 200.113L45.8296 203.801L43.8119 203.388L44.5682 199.7Z" fill="white"/>
</g>
<path opacity="0.5" d="M3.37674 188.902L8.2999 187.681C8.95298 187.514 9.62281 187.347 10.3094 187.229L17.5601 188.635C18.5816 188.836 19.2347 189.823 19.0505 190.826C18.8663 191.83 17.8616 192.499 16.8401 192.315L2.23807 189.354C2.58972 189.153 2.97485 189.003 3.37674 188.902Z" fill="white"/>
<path d="M422.691 90.6396H425.619V253.605H422.691V90.6396Z" fill="#AFC0D9"/>
<path d="M389.618 175.6H628.542V229.904H389.618V175.6Z" fill="#AFC0D9"/>
<path opacity="0.3" d="M389.618 175.6H628.542V229.904H389.618V175.6Z" fill="white"/>
<path d="M599.267 198.658L605.179 192.753H613.367L606.25 199.863H620.601V205.651H606.233L613.367 212.762H605.179L599.267 206.839L595.181 202.741L599.267 198.658Z" fill="white"/>
<path opacity="0.7" d="M403.34 194.824H489.228V210.683H403.34V194.824Z" fill="#AFC0D9"/>
<path opacity="0.7" d="M502.184 194.824H538.974V210.683H502.184V194.824Z" fill="#AFC0D9"/>
<path d="M552.482 186.596H584.884V218.968H552.482V186.596Z" fill="white"/>
<path d="M556.2 194.824H557.339C558.009 194.874 558.662 195.058 559.248 195.359L564.272 197.869L573.682 196.296C574.486 196.196 575.29 196.329 576.01 196.681L576.914 197.099L570.769 201.398L576.479 204.075L580.263 202.988L581.938 203.791L577.517 207.137L568.173 202.72L562.898 200.11L557.59 197.567C557.205 197.367 556.837 197.132 556.502 196.848C556.2 196.597 555.932 196.296 555.715 195.961C555.463 195.677 555.497 195.242 555.782 194.991C555.899 194.891 556.05 194.824 556.2 194.824Z" fill="#AFC0D9"/>
<path d="M554.726 212.37H582.69V215.08H554.726V212.37Z" fill="#AFC0D9"/>
<path d="M389.618 246.047H628.542V300.352H389.618V246.047Z" fill="#AFC0D9"/>
<path opacity="0.3" d="M389.618 246.047H628.542V300.352H389.618V246.047Z" fill="white"/>
<path d="M616.515 269.099L610.587 263.193H602.399L609.532 270.303H595.181V276.075H609.532L602.399 283.202H610.587L616.515 277.28L620.601 273.181L616.515 269.099Z" fill="white"/>
<path opacity="0.7" d="M403.34 265.287H489.228V281.147H403.34V265.287Z" fill="#AFC0D9"/>
<path opacity="0.7" d="M502.184 265.287H538.974V281.147H502.184V265.287Z" fill="#AFC0D9"/>
<path d="M552.482 257.025H584.884V289.397H552.482V257.025Z" fill="white"/>
<path d="M556.2 265.287H557.339C558.009 265.337 558.645 265.505 559.248 265.806L564.272 268.315L573.682 266.759C574.47 266.659 575.29 266.793 576.01 267.127L576.914 267.562L570.769 271.845L576.479 274.539L580.263 273.451L581.938 274.254L577.517 277.6L568.207 273.133L562.882 270.574L557.54 267.981C557.138 267.78 556.786 267.546 556.451 267.244C556.15 266.994 555.882 266.692 555.664 266.358C555.447 266.04 555.53 265.622 555.849 265.404C555.949 265.337 556.083 265.287 556.2 265.287Z" fill="#AFC0D9"/>
<path d="M554.726 282.806H582.69V285.516H554.726V282.806Z" fill="#AFC0D9"/>
</g>
<path d="M245.649 780.868C177.066 780.868 121.467 773.144 121.467 763.617C121.467 754.09 177.066 746.366 245.649 746.366C314.233 746.366 369.831 754.09 369.831 763.617C369.831 773.144 314.233 780.868 245.649 780.868Z" fill="#E0E0E0"/>
<path d="M283.959 203.032C285.427 221.261 293.318 234.087 293.318 234.087L279.514 251.338C279.514 251.338 237.63 244.446 224.315 238.532C210.999 232.619 208.043 215.858 208.043 215.858C208.043 215.858 214.323 177.971 215.302 168.611C216.281 159.252 283.938 203.052 283.938 203.052L283.959 203.032Z" fill="#F0C4AB"/>
<path d="M218.294 739.213C218.294 740.314 218.661 755.485 218.661 755.485L213.114 758.075L210.892 756.219L209.791 760.277C209.791 760.277 185.036 771.003 169.498 763.601C174.31 750.285 206.834 749.918 206.834 749.918L209.791 738.091L218.294 739.192V739.213Z" fill="#070A1C"/>
<path d="M203.534 752.877L194.297 748.819L190.585 749.553L199.455 754.366L203.534 752.877Z" fill="#6A6C77"/>
<path d="M266.695 738.114C264.105 744.027 264.839 758.077 264.839 758.077L273.342 758.444L273.709 755.12C273.709 755.12 283.68 761.767 291.45 761.767C299.219 761.767 312.146 759.912 312.146 759.912C312.146 759.912 308.089 751.409 296.996 748.819C285.903 746.229 276.666 747.331 276.666 747.331L272.975 739.562L266.695 738.073V738.114Z" fill="#070A1C"/>
<path d="M295.542 746.989C294.44 747.356 284.816 750.312 284.816 750.312L281.492 749.578L288.507 745.521L295.521 747.009L295.542 746.989Z" fill="#6A6C77"/>
<path d="M346.559 533.706L276.332 741.43L264.505 740.696L285.202 576.589L271.152 575.834L219.889 741.43H206.839L210.53 526.386L346.559 533.706Z" fill="url(#paint0_linear_879_6844)"/>
<path d="M194.278 230.13L199.702 227.173L255.88 251.806L278.065 243.425L302.698 234.555C302.698 234.555 319.459 252.785 327.33 282.861C335.221 312.918 334.732 351.865 333.243 361.714C331.755 371.563 324.863 397.194 324.863 397.194C324.863 397.194 255.37 343.974 241.076 318.342C226.781 292.71 209.531 274.481 209.531 274.481L194.258 230.13H194.278Z" fill="white"/>
<path d="M295.785 255.264L290.85 264.624C290.85 264.624 317.461 321.291 330.266 379.446C343.072 437.601 303.167 418.862 303.167 418.862C303.167 418.862 305.145 365.152 280.002 266.581C268.665 262.646 263.241 260.178 263.241 260.178L278.024 243.417L295.765 255.244L295.785 255.264Z" fill="#F8A801"/>
<path d="M312.352 540.872C312.801 541.117 313.249 541.32 313.718 541.545C328.583 548.213 351.299 539.404 351.299 539.404C351.299 539.404 361.148 469.421 364.105 396.482C367.061 323.543 350.646 245.425 350.646 245.425C350.646 245.425 325.504 252.827 312.862 241.734C322.221 258.496 336.026 307.292 333.069 352.621C330.113 397.951 323.282 393.281 323.282 393.281V393.485L312.372 540.892L312.352 540.872Z" fill="url(#paint1_linear_879_6844)"/>
<path opacity="0.5" d="M312.373 540.882C312.822 541.127 313.27 541.331 313.739 541.555C314.759 540.842 315.534 540.026 316.023 539.149C323.894 524.855 340.656 420.881 327.85 397.207L323.282 393.475L312.393 540.882H312.373Z" fill="#070A1C"/>
<path d="M324.864 397.184C337.67 420.838 320.928 524.832 313.037 539.127C305.146 553.421 222.847 546.019 195.747 521.876C206.596 497.733 221.379 416.902 176.029 363.682C167.669 353.853 133.147 261.176 133.147 261.176C133.147 261.176 174.051 245.413 184.41 235.544C194.259 254.263 232.717 302.569 232.717 302.569L287.426 366.638L324.884 397.184H324.864Z" fill="url(#paint2_linear_879_6844)"/>
<path d="M260.793 464.707L259.325 472.109L219.888 473.088L220.888 464.218L260.793 464.707Z" fill="#FFDCAB"/>
<path d="M349.766 463.736L348.522 471.382L359.615 471.872L361.104 462.268L349.766 463.736Z" fill="#FFDCAB"/>
<path d="M278.057 243.437L264.252 267.58C264.252 267.58 215.456 260.688 199.694 227.165C203.14 218.784 208.075 215.827 208.075 215.827C208.075 215.827 225.326 241.948 278.057 243.416V243.437Z" fill="#EDE6E6"/>
<path d="M278.045 243.44C279.533 243.929 297.763 261.18 297.763 261.18C297.763 261.18 303.677 242.461 302.698 234.57C300.23 232.102 292.849 228.167 292.849 228.167C292.849 228.167 288.913 239.994 278.065 243.44H278.045Z" fill="#EDE6E6"/>
<path d="M302.71 234.576C302.71 234.576 309.602 235.065 312.926 238.389C314.802 240.265 337.191 277.947 337.681 281.883C338.17 285.818 332.746 296.177 332.746 296.177C332.746 296.177 340.638 303.579 343.105 308.983C345.572 314.407 336.213 378.476 324.875 397.195C336.702 323.277 316.495 258.209 302.69 234.555L302.71 234.576Z" fill="#283760"/>
<path d="M326.33 391.773C326.33 393.241 324.862 397.197 324.862 397.197C324.862 397.197 243.807 350.155 226.781 321.791C222.336 314.389 227.76 301.094 227.76 301.094C227.76 301.094 213.465 301.583 206.573 294.202C199.681 286.8 182.389 239.513 182.797 236.536C183.531 230.989 196.847 228.033 196.847 228.033C196.847 228.033 197.764 251.646 231.715 294.691C286.914 364.673 326.33 391.773 326.33 391.773Z" fill="#283760"/>
<path d="M316.229 425.797C313.774 425.797 311.783 423.807 311.783 421.352C311.783 418.897 313.774 416.907 316.229 416.907C318.684 416.907 320.674 418.897 320.674 421.352C320.674 423.807 318.684 425.797 316.229 425.797Z" fill="#FFDCAB"/>
<path d="M308.601 474.82C308.601 477.266 310.579 479.265 313.046 479.265C315.513 479.265 317.491 477.287 317.491 474.82C317.491 472.352 315.513 470.374 313.046 470.374C310.579 470.374 308.601 472.352 308.601 474.82Z" fill="#FFDCAB"/>
<path d="M198.314 462.743C213.465 464.599 217.604 484.174 209.652 496.715C201.699 509.256 188.669 499.142 188.669 499.142L198.314 462.743Z" fill="#F0C4AB"/>
<path d="M184.457 499.833C194.244 505.665 201.932 497.059 206.785 487.027C211.638 477.015 198.486 463.475 198.486 463.475L184.457 499.812V499.833Z" fill="#F0C4AB"/>
<path d="M198.513 463.504C206.098 471.64 198.452 507.936 181.609 500.269C164.766 492.602 178.02 478.165 181.486 480.368C184.953 482.57 177.326 493.438 182.383 492.541C187.44 491.644 189.133 467.684 189.133 467.684L192.314 463.3L198.513 463.525V463.504Z" fill="#F0C4AB"/>
<path d="M133.141 261.174C173.169 283.89 167.419 347.204 167.419 347.204C167.419 347.204 131.918 361.519 129.818 405.87C127.717 450.22 199.576 462.006 199.576 462.006L187.586 473.548C187.586 473.548 89.892 468.307 80.0635 395.47C66.7481 296.777 133.141 261.174 133.141 261.174Z" fill="url(#paint3_linear_879_6844)"/>
<path d="M510.562 193.364C499.123 184.392 496.247 146.587 498.959 136.962C501.671 127.338 517.678 121.18 516.414 103.235C515.13 85.2709 508.135 84.6796 505.546 76.4824C502.956 68.2852 529.383 66.7762 539.762 82.7017C550.141 98.6271 526.651 120.568 527.527 132.374C528.404 144.181 535.827 161.738 537.539 174.564C538.212 179.539 558.889 185.575 557.441 188.939C555.178 194.241 530.117 195.526 530.117 195.526L510.582 193.385L510.562 193.364Z" fill="#F0C4AB"/>
<path d="M571.192 143.146C574.046 137.294 571.355 124.835 562.525 123.612C553.716 122.388 534.426 128.261 527.086 137.009C519.765 145.777 530.98 151.894 530.98 151.894L571.171 143.126L571.192 143.146Z" fill="#F0C4AB"/>
<path d="M568.096 163.084C578.597 155.539 582.043 142.672 564.426 140.225C546.787 137.778 529.638 146.179 524.806 153.276C519.973 160.372 524.622 166.407 530.087 168.283C535.572 170.159 568.096 163.084 568.096 163.084Z" fill="#F0C4AB"/>
<path d="M559.27 183.92C560.33 182.595 576.541 174.133 573.034 165.833C569.527 157.534 526.134 159.471 524.911 168.301C523.687 177.11 534.474 182.738 534.474 182.738L559.27 183.92Z" fill="#F0C4AB"/>
<path d="M560.899 189.464C555.353 191.809 537.959 194.317 532.515 190.565C527.05 186.813 528.906 180.859 534.35 179.452C539.795 178.045 556.678 178.085 561.899 179.452C567.119 180.838 564.59 187.894 560.899 189.464Z" fill="#F0C4AB"/>
<path d="M350.624 245.4C434.167 285.326 503.639 178.864 503.639 178.864C503.639 178.864 509.553 194.382 518.423 194.382C482.942 315.607 398.666 392.502 358.74 320.052C350.604 277.17 350.604 245.38 350.604 245.38L350.624 245.4Z" fill="url(#paint4_linear_879_6844)"/>
<path d="M296.757 111.175C296.757 111.175 314.518 107.708 318.229 110.42C321.94 113.132 322.736 139.722 320.37 143.372C318.005 147.022 299.979 148.715 299.979 148.715L296.757 111.175Z" fill="#F0C4AB"/>
<path d="M306.188 141.534C306.188 141.534 312.183 140.617 314.814 137.15C317.444 133.704 314.712 115.352 314.712 115.352C314.712 115.352 306.25 114.7 304.577 117.289C302.905 119.859 304.476 133.765 306.188 141.555V141.534Z" fill="#C78B67"/>
<path d="M314.718 115.353C314.718 115.353 303.524 113.987 303.095 116.658C301.525 126.282 305.97 140.842 305.97 140.842L306.195 141.535C306.195 141.535 303.605 119.125 305.114 117.922C306.643 116.719 314.718 115.353 314.718 115.353Z" fill="#CC6A5A"/>
<path d="M167.895 78.1905C171.239 87.6724 197.768 128.414 208.494 171.826C213.143 190.607 220.097 200.884 228.844 206.369C229.273 206.654 229.701 206.899 230.149 207.164C234.166 209.428 238.55 210.773 243.22 211.507C243.709 211.589 244.199 211.65 244.709 211.711C252.294 212.731 260.654 212.303 269.586 211.875L271.197 211.793C284.084 209.55 293.382 205.9 298.521 203.412C299.173 203.106 299.805 202.78 300.417 202.433C307.676 198.416 310.837 193.421 311.428 189.526C312.529 182.226 309.777 57.4731 307.636 53.2318C305.494 48.9905 294.279 46.1357 294.279 46.1357C294.279 46.1357 298.704 -3.29232 266.058 0.174167C266.038 0.174167 266.017 0.174167 265.997 0.174167C264.59 0.316905 263.183 0.500425 261.817 0.724727C250.663 2.53953 240.916 6.63815 232.555 11.8175C231.964 12.1845 231.393 12.5312 230.822 12.8982C206.373 28.7421 194.261 53.2318 194.261 53.2318C194.261 53.2318 164.592 68.6271 167.936 78.1293L167.895 78.1905Z" fill="#283760"/>
<path d="M198.595 124.341C197.514 122.261 195.149 121.221 192.865 121.792C187.564 123.117 178.122 125.85 176.45 128.664C174.105 132.619 183.771 157.395 187.38 159.821C189.745 161.432 198.024 159.597 203.407 158.149C206.079 157.435 207.69 154.683 206.996 151.991C206.283 149.157 205.222 144.915 203.774 138.9C202.062 131.804 200.084 127.114 198.616 124.32L198.595 124.341Z" fill="#F0C4AB"/>
<path d="M199.683 152.578C199.683 152.578 193.81 154.087 190.017 151.926C186.245 149.784 181.575 131.82 181.575 131.82C181.575 131.82 189.12 127.905 191.669 129.618C194.218 131.33 198.214 144.727 199.683 152.578Z" fill="#C78B67"/>
<path d="M181.602 131.824C181.602 131.824 191.37 126.176 192.817 128.48C198.037 136.718 199.648 151.868 199.648 151.868L199.709 152.602C199.709 152.602 193.327 130.967 191.451 130.458C189.575 129.948 181.602 131.844 181.602 131.844V131.824Z" fill="#73503B"/>
<g style="mix-blend-mode:screen" opacity="0.5">
<path d="M265.811 54.984L266.891 55.9424C282.511 38.4264 286.508 20.7269 277.637 8.59424C274.66 4.53641 270.48 1.66126 265.994 0.233887C264.587 0.376624 263.18 0.560144 261.814 0.784446C267.381 1.43696 272.866 4.49563 276.475 9.43027C284.937 20.992 280.941 37.9982 265.831 54.9636L265.811 54.984Z" fill="#53638E"/>
</g>
<g style="mix-blend-mode:screen" opacity="0.5">
<path d="M229.404 58.5218L230.484 59.4801C246.287 41.5972 244.085 21.4507 236.52 14.3546C235.256 13.172 233.91 12.3563 232.503 11.9077C231.912 12.2748 231.341 12.6214 230.77 12.9884C232.442 13.2127 234.053 14.0284 235.541 15.415C242.678 22.1237 244.595 41.3525 229.404 58.5422V58.5218Z" fill="#53638E"/>
</g>
<path d="M292.044 48.0933C306.787 84.7157 305.87 108.369 305.034 128.597C304.932 131.167 303.525 133.512 301.302 134.817C285.845 143.891 245.206 144.808 226.854 144.747C220.818 144.727 215.292 141.423 212.376 136.122C205.464 123.561 194.881 101.64 197.736 69.6263C197.797 68.9737 198.184 68.4028 198.776 68.0969C218.004 58.2684 234.705 57.2081 252.221 55.169C275.099 52.4977 292.065 48.1137 292.065 48.1137L292.044 48.0933Z" fill="#F0C4AB"/>
<path d="M267.909 131.682C268.317 117.429 261.262 102.258 257.612 94.8965C255.267 90.1658 252.208 87.0867 252.8 86.3119C255.573 82.6823 276.311 88.1471 276.311 88.1471L269.52 97.7717C266.91 103.196 268.419 115.593 274.904 125.014C276.657 127.563 278.839 128.807 282 128.848C283.876 128.848 285.894 130.826 285.65 133.558C285.446 136.005 280.613 138.941 277.208 139.696C272.212 140.817 263.117 140.695 261.119 137.82C258.591 134.17 263.118 129.969 267.889 131.702L267.909 131.682Z" fill="url(#paint5_linear_879_6844)"/>
<path d="M253.402 109.819C253.402 109.819 253.361 118.567 252.301 119.566C251.24 120.565 237.007 123.155 235.682 122.135C234.336 121.116 229.83 114.183 229.83 114.183L236.62 110.9L240.127 109.207L248.508 107.963L251.22 107.556L253.402 109.839V109.819Z" fill="white"/>
<path d="M248.447 112.762C248.998 116.902 246.082 120.694 241.963 121.245C237.824 121.796 234.01 118.88 233.46 114.761C233.297 113.598 233.419 112.477 233.766 111.416L237.457 109.642L246.245 108.337C247.428 109.479 248.243 111.009 248.468 112.762H248.447Z" fill="#283760"/>
<path d="M228.844 112.058L229.803 114.158C229.803 114.158 243.73 108.02 253.375 109.815C253.905 108.714 254.17 106.797 254.17 106.797C254.17 106.797 243.036 104.35 228.824 112.058H228.844Z" fill="#283760"/>
<path d="M273.934 108.17C273.934 108.17 275.137 112.636 276.218 115.348C276.626 116.347 277.034 117.122 277.34 117.305C278.502 117.999 291.267 116.898 292.143 115.572C293.02 114.247 295.121 106.396 295.121 106.396L288.514 104.948L285.088 104.214L282.437 104.541L277.625 105.132L275.219 105.417L273.934 108.17Z" fill="white"/>
<path d="M273.918 108.167C273.918 108.167 275.121 112.632 276.202 115.344C277.262 116.099 278.547 116.547 279.934 116.609C283.951 116.792 287.376 113.55 287.56 109.39C287.641 107.616 287.132 105.985 286.194 104.639L282.401 104.537L277.589 105.128L275.182 105.414L273.898 108.167H273.918Z" fill="#283760"/>
<path d="M295.405 104.126L295.119 106.389C295.119 106.389 281.702 103.983 273.933 108.164C273.199 107.246 272.485 105.451 272.485 105.451C272.485 105.451 281.335 100.272 295.405 104.126Z" fill="#283760"/>
<path d="M247.868 71.7363C247.868 71.7363 253.741 84.1545 253.802 89.3338C248.337 87.9269 227.171 97.2864 223.378 103.077C223.378 103.077 219.871 98.4691 218.974 95.1657C219.769 92.2498 221.033 89.6805 222.583 87.4579C224.112 89.028 226.641 91.5565 226.6 91.2914C226.58 91.0467 225.03 87.9676 223.908 85.6838C231.147 76.7933 242.505 73.8978 242.505 73.8978L250.498 85.9693L246.318 72.3481L247.888 71.7363H247.868Z" fill="#283760"/>
<path d="M269.401 98.6714C278.332 100.568 291.444 99.7521 298.336 98.4675C298.336 98.4675 299.458 93.1658 298.968 90.0052C290.73 88.3943 280.453 85.3764 274.009 83.3577L270.584 94.1446L270.726 82.3381C268.871 81.7468 267.77 81.3594 267.77 81.3594C267.77 81.3594 267.607 94.2262 269.421 98.6714H269.401Z" fill="#283760"/>
<path d="M284.786 158.63L284.806 158.531C284.806 158.531 284.806 158.551 284.786 158.63Z" fill="white"/>
<path d="M277.807 154.084C271.058 158.325 250.809 156.979 240.451 147.151C239.737 170.825 284.801 181.979 277.807 154.084Z" fill="#B27171"/>
<path d="M277.818 154.084C272.272 156.979 247.456 154.267 240.462 147.151C242.399 169.092 282.161 174.088 277.818 154.084Z" fill="white"/>
<defs>
<linearGradient id="paint0_linear_879_6844" x1="274.782" y1="755.378" x2="279.207" y2="482.606" gradientUnits="userSpaceOnUse">
<stop offset="0.11" stop-color="#385069"/>
<stop offset="1" stop-color="#070A1C"/>
</linearGradient>
<linearGradient id="paint1_linear_879_6844" x1="360.047" y1="223.851" x2="285.109" y2="670.192" gradientUnits="userSpaceOnUse">
<stop offset="0.22" stop-color="#385069"/>
<stop offset="0.77" stop-color="#070A1C"/>
</linearGradient>
<linearGradient id="paint2_linear_879_6844" x1="228.271" y1="234.32" x2="237.101" y2="547.752" gradientUnits="userSpaceOnUse">
<stop offset="0.11" stop-color="#385069"/>
<stop offset="1" stop-color="#070A1C"/>
</linearGradient>
<linearGradient id="paint3_linear_879_6844" x1="138.933" y1="242.496" x2="138.933" y2="503.788" gradientUnits="userSpaceOnUse">
<stop offset="0.11" stop-color="#385069"/>
<stop offset="1" stop-color="#070A1C"/>
</linearGradient>
<linearGradient id="paint4_linear_879_6844" x1="351.093" y1="314.22" x2="528.496" y2="211.449" gradientUnits="userSpaceOnUse">
<stop offset="0.22" stop-color="#385069"/>
<stop offset="1" stop-color="#070A1C"/>
</linearGradient>
<linearGradient id="paint5_linear_879_6844" x1="269.198" y1="85.0674" x2="269.198" y2="140.353" gradientUnits="userSpaceOnUse">
<stop stop-color="#C78B67" stop-opacity="0"/>
<stop offset="1" stop-color="#C78B67"/>
</linearGradient>
</defs>
</svg>
