<svg width="49" height="46" viewBox="0 0 49 46" fill="none" xmlns="http://www.w3.org/2000/svg">
<path d="M7.69349 27.4478C9.37763 27.4478 10.646 28.4502 11.0492 30.0647H9.15504C8.86105 29.426 8.32767 29.1066 7.67249 29.1066C6.61413 29.1066 5.88756 29.9361 5.88756 31.2578C5.88756 32.5796 6.61413 33.4091 7.67249 33.4091C8.32767 33.4091 8.86105 33.0897 9.15504 32.451H11.0492C10.646 34.0699 9.37763 35.0591 7.69349 35.0591C5.60617 35.0591 4.13623 33.4933 4.13623 31.2578C4.13623 29.0224 5.60617 27.4478 7.69349 27.4478Z" fill="white"/>
<path d="M14.2406 28.9844C15.0764 28.9844 15.6727 29.388 15.9751 29.9114V29.0686H17.6971V35.0078H15.9751V34.165C15.6643 34.6884 15.068 35.092 14.2322 35.092C12.8631 35.092 11.7627 33.8989 11.7627 32.0271C11.7627 30.1553 12.8631 28.9844 14.2448 28.9844H14.2406ZM14.7446 30.5723C14.0978 30.5723 13.514 31.0824 13.514 32.0316C13.514 32.9807 14.0978 33.513 14.7446 33.513C15.3914 33.513 15.9751 32.9896 15.9751 32.0449C15.9751 31.1001 15.3998 30.5767 14.7446 30.5767V30.5723Z" fill="white"/>
<path d="M21.2349 35.092C19.7313 35.092 18.7234 34.2094 18.6436 33.0606H20.3487C20.3907 33.4775 20.7435 33.7525 21.2139 33.7525C21.659 33.7525 21.89 33.5396 21.89 33.2735C21.89 32.3154 18.8241 33.0074 18.8241 30.8251C18.8241 29.8138 19.6389 28.9844 21.1131 28.9844C22.5872 28.9844 23.3726 29.836 23.4818 31.007H21.89C21.8396 30.6033 21.5456 30.3372 21.0627 30.3372C20.6595 30.3372 20.4369 30.5057 20.4369 30.794C20.4369 31.7432 23.4818 31.0691 23.5112 33.2868C23.5112 34.3203 22.646 35.0965 21.2349 35.0965V35.092Z" fill="white"/>
<path d="M24.5742 27.1353H26.2962V29.8719C26.6405 29.3619 27.2537 29.0115 28.0307 29.0115C29.3116 29.0115 30.1684 29.9474 30.1684 31.5441V35.0127H28.4549V31.7881C28.4549 30.9808 28.0307 30.5328 27.3755 30.5328C26.7203 30.5328 26.2962 30.9808 26.2962 31.7881V35.0127H24.5742V27.1353Z" fill="white"/>
<path d="M30.9927 27.5415H32.8364L33.8528 32.9839L35.1127 27.5415H37.0068L38.2164 32.9839L39.2454 27.5415H41.1017L39.258 35.0153H37.1706L36.0409 30.0963L34.8733 35.0153H32.786L30.9927 27.5415Z" fill="white"/>
<path d="M41.811 27.4735C41.811 26.9191 42.2226 26.4844 42.84 26.4844C43.4574 26.4844 43.8564 26.9191 43.8564 27.4735C43.8564 28.0279 43.4448 28.4537 42.84 28.4537C42.2352 28.4537 41.811 28.0191 41.811 27.4735ZM41.9706 29.0703H43.6926V35.0094H41.9706V29.0703Z" fill="white"/>
<path d="M48.948 30.5187L46.5583 33.5082H48.9984V35.0074H44.6348V33.5615L46.9741 30.572H44.6558V29.0728H48.948V30.5187Z" fill="white"/>
<path d="M11.7676 38.9219H13.3089V39.1259H12.6579V41.3969H12.4228V39.1259H11.7676V38.9219Z" fill="white"/>
<path d="M15.7879 39.1303H14.7967V40.0574H15.6871V40.2614H14.7967V41.2017H15.7879V41.4057H14.5615V38.9219H15.7879V39.1259V39.1303Z" fill="white"/>
<path d="M18.1739 38.896C18.6989 38.896 19.0853 39.171 19.2575 39.6456H18.9803C18.8501 39.3174 18.5729 39.1089 18.1739 39.1089C17.6615 39.1089 17.2667 39.5081 17.2667 40.1601C17.2667 40.8121 17.6615 41.2069 18.1739 41.2069C18.5729 41.2069 18.8501 41.0029 18.9803 40.6791H19.2575C19.0895 41.1492 18.6989 41.4242 18.1739 41.4242C17.5229 41.4242 17.0273 40.9053 17.0273 40.1601C17.0273 39.4149 17.5229 38.896 18.1739 38.896Z" fill="white"/>
<path d="M22.1147 40.2436H20.8421V41.4013H20.6069V38.9219H20.8421V40.0352H22.1147V38.9219H22.3499V41.4013H22.1147V40.2436Z" fill="white"/>
<path d="M25.5372 38.9219V41.4013H25.302L24.0042 39.3166V41.4013H23.769V38.9219H24.0042L25.302 41.0021V38.9219H25.5372Z" fill="white"/>
<path d="M28.01 41.4291C27.3507 41.4291 26.8467 40.9057 26.8467 40.165C26.8467 39.4243 27.3507 38.9009 28.01 38.9009C28.6694 38.9009 29.1734 39.4243 29.1734 40.165C29.1734 40.9057 28.6736 41.4291 28.01 41.4291ZM28.01 41.2118C28.5308 41.2118 28.9298 40.8126 28.9298 40.1606C28.9298 39.5085 28.5308 39.1138 28.01 39.1138C27.4893 39.1138 27.0903 39.513 27.0903 40.1606C27.0903 40.8081 27.4893 41.2118 28.01 41.2118Z" fill="white"/>
<path d="M30.7157 38.9219V41.1973H31.5598V41.4013H30.4805V38.9219H30.7157Z" fill="white"/>
<path d="M33.8264 41.4291C33.1671 41.4291 32.6631 40.9057 32.6631 40.165C32.6631 39.4243 33.1671 38.9009 33.8264 38.9009C34.4858 38.9009 34.9898 39.4243 34.9898 40.165C34.9898 40.9057 34.49 41.4291 33.8264 41.4291ZM33.8264 41.2118C34.3472 41.2118 34.7462 40.8126 34.7462 40.1606C34.7462 39.5085 34.3472 39.1138 33.8264 39.1138C33.3057 39.1138 32.9067 39.513 32.9067 40.1606C32.9067 40.8081 33.3057 41.2118 33.8264 41.2118Z" fill="white"/>
<path d="M38.4272 39.6456H38.15C38.0198 39.3262 37.7342 39.1222 37.3562 39.1222C36.8354 39.1222 36.4365 39.5214 36.4365 40.1601C36.4365 40.7988 36.8354 41.2025 37.3562 41.2025C37.8476 41.2025 38.213 40.852 38.2508 40.2887H37.2638V40.0847H38.4986V40.2666C38.4608 40.923 37.9988 41.4242 37.3562 41.4242C36.7137 41.4242 36.1929 40.9008 36.1929 40.1601C36.1929 39.4194 36.6969 38.896 37.3562 38.896C37.8602 38.896 38.255 39.1754 38.423 39.6456H38.4272Z" fill="white"/>
<path d="M39.6187 38.9219H39.8832L40.4964 40.2082L41.1054 38.9219H41.3658L40.614 40.4344V41.3969H40.3788V40.4344L39.6187 38.9219Z" fill="white"/>
<path d="M35.4777 6.85161L36.3387 5.61411L30.2196 0.868139C29.976 0.677413 29.6316 0.735074 29.4552 0.992332L25.4443 6.7629H34.9024C35.104 6.7629 35.2972 6.79395 35.482 6.85161H35.4777Z" fill="#602570"/>
<path d="M29.2879 15.7653C29.7495 15.7653 30.1237 15.3701 30.1237 14.8827C30.1237 14.3952 29.7495 14 29.2879 14C28.8263 14 28.4521 14.3952 28.4521 14.8827C28.4521 15.3701 28.8263 15.7653 29.2879 15.7653Z" fill="white"/>
<path d="M25.7688 1.09635L24.5634 0.160458C24.219 -0.110107 23.7318 -0.0302673 23.4757 0.337878L19.0112 6.75603H21.8293L25.7646 1.09635H25.7688Z" fill="#E22887"/>
<path d="M29.1148 6.76085H31.9329L33.1383 5.02657L27.1157 0.356004C26.8175 0.125358 26.4018 0.191889 26.1834 0.506809L25.7676 1.1056L30.4966 4.77375L29.1107 6.76528L29.1148 6.76085Z" fill="#34ACE3"/>
<path d="M25.4377 6.75787H29.1126L30.4985 4.7619L25.7653 1.09375L21.8301 6.75787H25.4377Z" fill="url(#paint0_linear_250_1604)"/>
<path d="M25.4377 6.75787H29.1126L30.4985 4.7619L25.7653 1.09375L21.8301 6.75787H25.4377Z" fill="#34ACE3"/>
<path d="M27.2215 15.3306V14.51C27.2215 13.6007 27.9187 12.8644 28.7797 12.8644H32.1899C33.6053 11.2455 35.0038 9.4491 36.4024 7.48418C36.1588 7.19143 35.8354 6.96966 35.4742 6.85434C35.2894 6.79668 35.0962 6.76562 34.8946 6.76562H18.2381C17.1251 6.76562 16.2222 7.71926 16.2222 8.89466V20.9547C16.2222 21.7664 16.6548 22.4761 17.2889 22.831C21.1738 21.966 24.7772 19.9479 28.2421 16.8785C27.6499 16.6435 27.2257 16.0402 27.2257 15.335L27.2215 15.3306Z" fill="#602570"/>
<path d="M36.9122 12.8637V8.88949C36.9122 8.34836 36.7232 7.85602 36.4082 7.479C35.0139 9.44393 33.6111 11.2403 32.1958 12.8592H36.9122V12.8637Z" fill="#E22887"/>
<path d="M34.8967 23.07C36.0097 23.07 36.9127 22.1164 36.9127 20.941V16.9668H28.786C28.597 16.9668 28.4122 16.9313 28.2442 16.8647C24.7793 19.9341 21.1759 21.9522 17.291 22.8172C17.5724 22.9768 17.8958 23.0656 18.2402 23.0656H34.8967V23.07Z" fill="#E22887"/>
<defs>
<linearGradient id="paint0_linear_250_1604" x1="16.6223" y1="3.92359" x2="30.4985" y2="3.92359" gradientUnits="userSpaceOnUse">
<stop stop-color="#FFDD73"/>
<stop offset="0.22" stop-color="#FADB69"/>
<stop offset="0.6" stop-color="#EFD650"/>
<stop offset="0.87" stop-color="#E5D23A"/>
</linearGradient>
</defs>
</svg>
