<svg width="100%" height="100%" viewBox="0 0 284 299" fill="none" xmlns="http://www.w3.org/2000/svg">
<g opacity="0.7">
<rect x="19.9375" y="24.2007" width="256.718" height="249.808" rx="49.7595" fill="#D5DFED"/>
<mask id="mask0_120_4099" style="mask-type:alpha" maskUnits="userSpaceOnUse" x="19" y="24" width="258" height="251">
<rect x="19.9216" y="24.2" width="256.718" height="249.808" rx="49.7595" fill="#D5DFED"/>
</mask>
<g mask="url(#mask0_120_4099)">
<path d="M-47.5243 260.816H330.324V260.975H-47.5243V260.816Z" fill="#AFC0D9"/>
<path d="M20.7293 271.166H33.2437V271.325H20.7293V271.166Z" fill="#AFC0D9"/>
<path d="M52.9803 268.851H81.5532V269.011H52.9803V268.851Z" fill="#AFC0D9"/>
<path d="M77.8562 265.16H130.06V265.319H77.8562V265.16Z" fill="#AFC0D9"/>
<path d="M246.515 266.231H274.347V266.391H246.515V266.231Z" fill="#AFC0D9"/>
<path d="M170.227 268.924H215.214V269.084H170.227V268.924Z" fill="#AFC0D9"/>
<path d="M151.214 232.349H297.132C299.512 232.349 301.439 230.715 301.439 228.705V55.4679C301.417 53.4702 299.497 51.8619 297.132 51.8555H151.214C148.834 51.8555 146.899 53.4894 146.899 55.4998V228.705C146.899 230.715 148.834 232.349 151.214 232.349ZM297.132 51.9831C299.406 51.9831 301.25 53.5468 301.25 55.4679V228.705C301.25 230.626 299.406 232.183 297.132 232.189H151.214C148.939 232.189 147.096 230.626 147.088 228.705V55.4679C147.088 53.5468 148.939 51.9895 151.214 51.9831H297.132Z" fill="#AFC0D9"/>
<path d="M-12.2432 232.349H133.682C136.062 232.349 137.99 230.715 137.997 228.705V55.4679C137.974 53.4702 136.047 51.8619 133.682 51.8555H-12.2432C-14.6085 51.8619 -16.5204 53.4702 -16.5431 55.4679V228.705C-16.5431 230.715 -14.6236 232.342 -12.2432 232.349ZM133.682 51.9831C135.957 51.9831 137.801 53.5468 137.808 55.4679V228.705C137.808 230.626 135.957 232.183 133.682 232.189H-12.2432C-14.5178 232.189 -16.3617 230.626 -16.3693 228.705V55.4679C-16.3693 53.5468 -14.5178 51.9895 -12.2432 51.9831H133.682Z" fill="#AFC0D9"/>
<path d="M137.273 16.7529H153.566V260.815H137.273V16.7529Z" fill="#F5F5F5"/>
<path d="M134.986 16.7529H137.276V260.815H134.986V16.7529Z" fill="#E0E0E0"/>
<path d="M225.153 236.228H311.053C311.053 231.766 306.768 228.147 301.486 228.147H225.153V236.228Z" fill="#E6E6E6"/>
<path d="M218.852 236.228H256.388C256.388 231.766 252.103 228.147 246.821 228.147H218.852V236.228Z" fill="#E0E0E0"/>
<path d="M165.138 236.228H251.038C251.038 231.766 246.753 228.147 241.471 228.147H165.138V236.228Z" fill="#E6E6E6"/>
<path d="M158.837 236.228H196.373C196.373 231.766 192.088 228.147 186.805 228.147H158.837V236.228Z" fill="#E0E0E0"/>
<path d="M43.16 236.228H129.09C129.09 231.766 124.806 228.147 119.523 228.147C119.508 228.147 119.501 228.147 119.485 228.147H43.16V236.228Z" fill="#E6E6E6"/>
<path d="M36.8895 236.228H74.425C74.425 231.766 70.1402 228.147 64.8579 228.147H36.8895V236.228Z" fill="#E0E0E0"/>
<path d="M6.5651 210.986H44.6069L39.249 260.813H11.923L6.5651 210.986Z" fill="#AFC0D9"/>
<path d="M25.9636 219.296C26.6588 198.681 20.9533 156.002 10.7438 138.642L10.0712 138.923C19.8953 155.594 25.9409 198.49 25.1852 219.277L25.9636 219.296Z" fill="#AFC0D9"/>
<path d="M22.1888 178.711C22.1888 178.711 24.6901 158.754 33.9247 152.633C38.8746 165.232 28.7331 169.572 22.1888 178.711Z" fill="#AFC0D9"/>
<path d="M22.1838 179.032C22.3199 179.032 22.4408 178.975 22.5088 178.879C24.1789 176.645 26.0228 174.507 28.0405 172.484C33.3833 166.861 38.0006 161.997 34.2826 152.539C34.2448 152.443 34.1541 152.366 34.0332 152.334C33.9198 152.303 33.7914 152.322 33.6931 152.386C24.4358 158.525 21.9193 177.864 21.8211 178.687C21.7984 178.834 21.9042 178.975 22.0705 179.019L22.1838 179.032ZM33.7309 153.177C37.0031 162.017 32.5671 166.688 27.4435 172.082C25.8792 173.728 24.2696 175.42 22.7808 177.328C23.5063 172.758 26.4535 158.442 33.7309 153.177Z" fill="#AFC0D9"/>
<path d="M25.3734 206.803C25.3734 206.803 29.1519 179.04 40.6234 171.7C46.3667 187.228 33.6181 195.736 25.3734 206.803Z" fill="#AFC0D9"/>
<path d="M25.3733 207.187C25.532 207.187 25.6832 207.124 25.7663 207.009C27.5271 204.641 29.5448 202.362 31.4567 200.16C38.7567 191.825 45.6487 183.962 41.0692 171.587C41.0238 171.465 40.9105 171.37 40.7669 171.331C40.6233 171.293 40.4646 171.319 40.3437 171.395C28.8571 178.741 25.0711 205.611 24.9124 206.753C24.8897 206.939 25.0182 207.104 25.2222 207.168C25.2675 207.181 25.3204 207.187 25.3733 207.187ZM40.3815 172.372C44.4169 184.051 37.7592 191.653 30.7161 199.695C29.2047 201.456 27.5875 203.262 26.1064 205.132C27.1341 199.101 31.2073 178.863 40.3815 172.372Z" fill="#AFC0D9"/>
<path d="M18.0258 158.526C18.0258 158.526 19.7639 144.606 26.21 140.337C29.6635 149.125 22.5902 152.157 18.0258 158.526Z" fill="#AFC0D9"/>
<path d="M18.0274 158.748C18.1181 158.748 18.2012 158.703 18.2465 158.639C19.4103 157.082 20.7026 155.588 22.1006 154.171C25.8337 150.246 29.053 146.857 26.461 140.258C26.4307 140.188 26.3703 140.137 26.2871 140.111C26.204 140.092 26.1133 140.111 26.0453 140.149C19.5917 144.432 17.8309 157.924 17.7326 158.499C17.7175 158.601 17.7931 158.696 17.9065 158.728C17.9442 158.748 17.982 158.754 18.0274 158.748ZM26.0755 140.711C28.3426 146.883 25.267 150.138 21.6925 153.897C20.5967 155.046 19.4783 156.233 18.4355 157.56C18.972 154.376 21.0048 144.4 26.0755 140.711Z" fill="#AFC0D9"/>
<path d="M212.424 141.004C219.611 140.576 222.717 141.285 225.823 135.828C228.929 130.371 239.766 127.441 243.287 132.202C246.809 136.964 248.078 140.27 256.225 137.449C264.371 134.628 267.054 136.676 268.233 140.436C269.412 144.195 288.047 142.382 282.591 147.756H213.566C213.566 147.756 205.208 141.431 212.424 141.004Z" fill="#F5F5F5"/>
<path d="M-1.28242 111.85C2.78323 111.607 4.53645 112.009 6.27456 108.92C8.01266 105.831 14.164 104.172 16.1591 106.865C18.1541 109.558 18.8645 111.435 23.4742 109.833C28.084 108.231 29.6029 109.399 30.2755 111.524C30.9481 113.649 41.49 112.628 38.3992 115.666H-0.677872C-0.677872 115.666 -5.34807 112.067 -1.28242 111.85Z" fill="#F5F5F5"/>
<path d="M47.3831 36.9937C49.4009 34.2237 55.1669 33.3047 60.3207 35.4555C65.4746 37.6064 61.9681 24.1268 71.6108 26.3862C85.3796 29.6157 81.5482 39.2594 87.284 38.3787C93.0197 37.4979 109.842 39.8594 100.947 44.6781H50.0508C50.0508 44.6781 45.373 39.7573 47.3831 36.9937Z" fill="#F5F5F5"/>
</g>
<path d="M83.2292 87.3082L89.373 84.2064L85.7986 83.6128L76.2768 85.2084L83.2292 87.3082Z" fill="#AFC0D9"/>
<path opacity="0.3" d="M83.2292 87.3082L89.373 84.2064L85.7986 83.6128L76.2768 85.2084L83.2292 87.3082Z" fill="#AFC0D9"/>
<path d="M40.7254 77.7946L48.1992 69.8677L45.4334 69.4146C43.189 69.0444 40.869 69.2295 38.7455 69.9443L24.3116 74.8396L40.7254 77.7946Z" fill="#AFC0D9"/>
<path opacity="0.3" d="M40.7254 77.7946L48.1992 69.8677L45.4334 69.4146C43.189 69.0444 40.869 69.2295 38.7455 69.9443L24.3116 74.8396L40.7254 77.7946Z" fill="#AFC0D9"/>
<path d="M1.52447 72.1168L3.74622 71.6508C5.89996 71.1722 8.15195 71.1275 10.3284 71.5168L83.5176 85.558L84.2053 88.2195L81.3488 89.9427L7.29044 77.695C4.86465 77.2929 2.60513 76.3674 0.730995 75.0016C-0.107826 74.4399 -0.243858 73.406 0.421158 72.6976C0.700768 72.404 1.08617 72.1997 1.52447 72.1168Z" fill="#AFC0D9"/>
<path d="M46.2872 91.5086L78.3308 97.261L78.2475 97.5919L46.2039 91.8394L46.2872 91.5086Z" fill="#AFC0D9"/>
<path d="M50.4298 74.1207L71.3118 77.8694L71.2285 78.2003L50.3466 74.4516L50.4298 74.1207Z" fill="#AFC0D9"/>
<path d="M84.319 98.3371L92.9009 99.8777L92.8176 100.209L84.2357 98.6679L84.319 98.3371Z" fill="#AFC0D9"/>
<path opacity="0.3" d="M9.14725 76.5945L81.4751 89.6082C81.8076 89.6656 82.125 89.7677 82.4197 89.9145C82.0645 89.9528 81.7018 89.9464 81.3541 89.8826L7.29578 77.6412C6.08666 77.437 4.91534 77.1051 3.80447 76.6519L3.53242 76.5434C5.39144 76.2435 7.29579 76.2626 9.14725 76.5945Z" fill="#AFC0D9"/>
<path d="M84.2269 88.1673L86.0859 94.7986L82.5115 94.205L76.0049 87.0312L84.2269 88.1673Z" fill="#AFC0D9"/>
<path d="M83.5339 85.5005L87.8716 78.8692L84.539 78.314L74.9189 84.0772L83.5339 85.5005Z" fill="#AFC0D9"/>
<path d="M40.0733 80.582L41.2749 99.7291C37.844 99.161 34.8817 97.3421 33.1889 94.7636L21.8912 77.5886L40.0733 80.582Z" fill="#AFC0D9"/>
<g opacity="0.5">
<path d="M58.8785 82.9175L59.7891 83.0752L59.4475 84.4819L58.5369 84.3242L58.8785 82.9175Z" fill="white"/>
<path d="M57.0418 82.6151L57.9524 82.7727L57.6111 84.1795L56.7005 84.0219L57.0418 82.6151Z" fill="white"/>
<path d="M55.1905 82.2946L56.1011 82.4521L55.7598 83.859L54.8492 83.7014L55.1905 82.2946Z" fill="white"/>
<path d="M53.3462 81.9774L54.2568 82.135L53.9155 83.5418L53.0049 83.3842L53.3462 81.9774Z" fill="white"/>
<path d="M51.4949 81.6566L52.4055 81.8142L52.0642 83.221L51.1536 83.0634L51.4949 81.6566Z" fill="white"/>
<path d="M49.6509 81.3434L50.5615 81.501L50.2202 82.9078L49.3096 82.7502L49.6509 81.3434Z" fill="white"/>
<path d="M47.807 81.0226L48.7175 81.1802L48.3762 82.587L47.4656 82.4294L47.807 81.0226Z" fill="white"/>
<path d="M45.9703 80.6799L46.8809 80.8376L46.5393 82.2444L45.6287 82.0867L45.9703 80.6799Z" fill="white"/>
<path d="M44.126 80.3849L45.0366 80.5425L44.6953 81.9493L43.7847 81.7917L44.126 80.3849Z" fill="white"/>
<path d="M42.2821 80.0568L43.1926 80.2144L42.8513 81.6212L41.9407 81.4636L42.2821 80.0568Z" fill="white"/>
<path d="M40.4306 79.7313L41.3486 79.8901L41.0073 81.2969L40.0893 81.1381L40.4306 79.7313Z" fill="white"/>
<path d="M38.594 79.4227L39.5046 79.5803L39.1633 80.9871L38.2527 80.8295L38.594 79.4227Z" fill="white"/>
<path d="M36.7572 79.0764L37.6677 79.2341L37.3261 80.6409L36.4156 80.4832L36.7572 79.0764Z" fill="white"/>
<path d="M34.9057 78.7728L35.8237 78.9316L35.4824 80.3384L34.5644 80.1796L34.9057 78.7728Z" fill="white"/>
<path d="M33.0471 78.452L33.9651 78.6108L33.6238 80.0176L32.7058 79.8588L33.0471 78.452Z" fill="white"/>
<path d="M31.2105 78.1471L32.1211 78.3047L31.7798 79.7115L30.8692 79.5539L31.2105 78.1471Z" fill="white"/>
<path d="M29.3591 77.8179L30.2771 77.9768L29.9358 79.3836L29.0178 79.2247L29.3591 77.8179Z" fill="white"/>
<path d="M27.5222 77.5081L28.4402 77.667L28.0989 79.0738L27.1809 78.9149L27.5222 77.5081Z" fill="white"/>
<path d="M25.6712 77.1886L26.5818 77.3462L26.2405 78.753L25.3299 78.5954L25.6712 77.1886Z" fill="white"/>
<path d="M23.8197 76.8386L24.7302 76.9963L24.3886 78.4031L23.4781 78.2454L23.8197 76.8386Z" fill="white"/>
<path d="M21.9682 76.5423L22.8862 76.7012L22.5449 78.108L21.6269 77.9491L21.9682 76.5423Z" fill="white"/>
<path d="M20.139 76.2338L21.0496 76.3914L20.7082 77.7982L19.7977 77.6406L20.139 76.2338Z" fill="white"/>
</g>
<path opacity="0.5" d="M1.53423 72.1116L3.75598 71.6457C4.0507 71.5819 4.35299 71.5181 4.66283 71.4734L7.93499 72.0095C8.39596 72.0861 8.6907 72.4627 8.60757 72.8456C8.52444 73.2285 8.07102 73.4838 7.61004 73.4136L1.02036 72.2839C1.17906 72.2074 1.35286 72.1499 1.53423 72.1116Z" fill="white"/>
<path d="M190.773 34.6272H192.094V96.7987H190.773V34.6272Z" fill="#AFC0D9"/>
<path d="M175.854 67.0437H283.677V87.7609H175.854V67.0437Z" fill="#AFC0D9"/>
<path opacity="0.3" d="M175.854 67.0437H283.677V87.7609H175.854V67.0437Z" fill="white"/>
<path d="M270.456 75.8421L273.124 73.5891H276.819L273.608 76.3016H280.084V78.5099H273.6L276.819 81.2224H273.124L270.456 78.9631L268.612 77.3994L270.456 75.8421Z" fill="white"/>
<path opacity="0.7" d="M182.038 74.3762H220.798V80.4267H182.038V74.3762Z" fill="#AFC0D9"/>
<path opacity="0.7" d="M227.045 74.5547H243.648V80.6052H227.045V74.5547Z" fill="#AFC0D9"/>
<path d="M249.353 71.2312H263.976V83.5811H249.353V71.2312Z" fill="white"/>
<path d="M251.027 74.3762H251.541C251.843 74.3954 252.138 74.4656 252.402 74.5805L254.669 75.5378L258.917 74.9379C259.279 74.8996 259.642 74.9506 259.967 75.0847L260.375 75.2442L257.602 76.8845L260.179 77.9057L261.886 77.4908L262.642 77.7972L260.647 79.0736L256.43 77.3887L254.05 76.3931L251.654 75.4229C251.48 75.3463 251.314 75.257 251.163 75.1485C251.027 75.0528 250.906 74.9379 250.808 74.8102C250.695 74.7017 250.71 74.5358 250.838 74.44C250.891 74.4017 250.959 74.3762 251.027 74.3762Z" fill="#AFC0D9"/>
<path d="M250.35 81.0671H262.97V82.1011H250.35V81.0671Z" fill="#AFC0D9"/>
<path d="M175.854 93.9209H283.677V114.638H175.854V93.9209Z" fill="#AFC0D9"/>
<path opacity="0.3" d="M175.854 93.9209H283.677V114.638H175.854V93.9209Z" fill="white"/>
<path d="M278.24 102.715L275.565 100.462H271.87L275.089 103.175H268.612V105.377H275.089L271.87 108.096H275.565L278.24 105.836L280.084 104.273L278.24 102.715Z" fill="white"/>
<path opacity="0.7" d="M182.038 101.253H220.798V107.304H182.038V101.253Z" fill="#AFC0D9"/>
<path opacity="0.7" d="M226.651 101.253H243.254V107.304H226.651V101.253Z" fill="#AFC0D9"/>
<path d="M249.353 98.1011H263.976V110.451H249.353V98.1011Z" fill="white"/>
<path d="M251.027 101.253H251.541C251.843 101.273 252.13 101.336 252.402 101.451L254.669 102.409L258.917 101.815C259.272 101.777 259.642 101.828 259.967 101.955L260.375 102.121L257.602 103.755L260.179 104.783L261.886 104.368L262.642 104.674L260.647 105.951L256.445 104.247L254.042 103.27L251.632 102.281C251.45 102.204 251.292 102.115 251.14 102C251.004 101.904 250.883 101.79 250.785 101.662C250.687 101.541 250.725 101.381 250.868 101.298C250.914 101.273 250.974 101.253 251.027 101.253Z" fill="#AFC0D9"/>
<path d="M250.35 107.937H262.97V108.971H250.35V107.937Z" fill="#AFC0D9"/>
</g>
<path d="M192.683 293.168C192.683 293.168 165.301 298.21 131.52 298.21C97.7394 298.21 70.3574 293.168 70.3574 293.168C70.3574 293.168 97.7394 288.126 131.52 288.126C165.301 288.126 192.683 293.168 192.683 293.168Z" fill="#DEDEDE"/>
<path d="M208.395 43.5386L211.935 46.558C213.598 46.366 215.288 46.7678 216.83 47.2983C219.674 48.1304 222.515 49.074 225.396 49.6338L233.115 43.0409L208.395 43.5386ZM211.642 84.3639L228.021 84.0342L219.774 79.9829L211.642 84.3639Z" fill="#FAFAFA"/>
<path d="M219.9 82.8269C219.795 82.83 219.694 82.7717 219.621 82.6648C219.548 82.5579 219.509 82.4111 219.512 82.2568L220.119 49.5688C220.12 49.4924 220.132 49.4164 220.153 49.3452C220.175 49.274 220.205 49.2089 220.243 49.1538C220.281 49.0987 220.326 49.0545 220.375 49.0238C220.424 48.9931 220.476 48.9765 220.529 48.9749C220.581 48.9734 220.633 48.9869 220.681 49.0147C220.729 49.0425 220.772 49.0841 220.808 49.137C220.844 49.19 220.872 49.2532 220.891 49.3233C220.91 49.3933 220.919 49.4686 220.917 49.5451L220.311 82.233C220.308 82.3873 220.263 82.5366 220.186 82.6479C220.109 82.7593 220.006 82.8236 219.9 82.8269Z" fill="#FAFAFA"/>
<path d="M211.287 46.4386L220.078 53.5418L225.144 49.4363C222.178 48.8908 219.253 47.9709 216.326 47.1596C214.738 46.6423 212.999 46.2507 211.287 46.4386Z" fill="#DB4A87"/>
<path d="M228.427 54.8134C227.939 54.3446 226.933 54.1789 225.656 54.2769C225.248 54.3127 224.818 54.3609 224.373 54.4558C223.155 54.6786 221.796 55.0814 220.464 55.6525C219.922 55.8778 219.39 56.1374 218.871 56.4157C218.709 56.5023 218.56 56.5827 218.423 56.6818C214.992 58.9016 213.965 64.1134 213.965 64.1134C213.965 64.1134 209.606 66.9089 209.153 69.554C208.712 72.1928 210.742 75.1118 213.676 75.7175C214.642 75.9172 220.478 73.4915 223.972 70.5465C227.466 67.6014 229.696 55.9734 228.45 54.8011L228.427 54.8134Z" fill="#F0C4AB"/>
<path d="M220.035 71.6443C220.035 71.6443 250.202 133.717 214.92 149.936C185.751 163.342 171.423 129.176 171.423 129.176L182.156 94.9089C182.156 94.9089 196.494 123.983 204.177 123.124C211.849 122.256 218.583 102.338 214.495 74.2237C215.009 72.0617 220.045 71.6526 220.045 71.6526L220.035 71.6443Z" fill="url(#paint0_linear_120_4099)"/>
<path d="M150.857 75.588C151.538 82.7001 155.182 87.7003 155.182 87.7003L148.813 94.4285C148.813 94.4285 129.478 91.7405 123.336 89.4283C117.194 87.1243 115.832 80.5882 115.832 80.5882C115.832 80.5882 118.103 73.0921 118.557 69.4359C119.011 65.7796 150.857 75.588 150.857 75.588Z" fill="#F0C4AB"/>
<path d="M116.207 283.63C116.207 284.065 114.203 290.041 114.203 290.041L116.76 291.294L117.787 290.667L118.301 292.304C118.301 292.304 126.349 296.928 133.508 294.724C129.854 286.744 119.663 288.397 119.663 288.397L120.137 283.572L116.217 283.63H116.207Z" fill="#100F23"/>
<path d="M120.93 289.091L125.196 287.905L126.904 288.356L122.807 289.842L120.93 289.091Z" fill="#696A77"/>
<path d="M143.207 283.269C142.012 285.572 142.358 291.057 142.358 291.057L146.278 291.199L146.446 289.905C146.446 289.905 151.048 292.501 154.632 292.501C158.216 292.501 164.181 291.783 164.181 291.783C164.181 291.783 162.304 288.469 157.189 287.459C152.074 286.449 147.809 286.883 147.809 286.883L146.1 283.853L143.197 283.277L143.207 283.269Z" fill="#100F23"/>
<path d="M156.501 286.732C155.987 286.874 151.553 288.026 151.553 288.026L150.023 287.733L153.262 286.147L156.501 286.723V286.732Z" fill="#696A77"/>
<path d="M179.744 204.596L147.336 285.634L141.875 285.342L151.424 221.325L144.946 221.033L121.287 285.634H115.263L116.971 201.733L179.744 204.596Z" fill="#F0C4AB"/>
<path d="M109.461 86.1637L111.96 85.0117L137.89 94.6281L148.12 91.3559L159.496 87.8916C159.496 87.8916 167.227 95.0038 170.871 106.732C174.505 118.46 174.278 133.653 173.596 137.493C172.915 141.341 169.726 151.333 169.726 151.333C169.726 151.333 137.653 130.564 131.067 120.572C124.471 110.572 116.512 103.46 116.512 103.46L109.461 86.1553V86.1637Z" fill="#FDFEFE"/>
<path d="M156.315 95.9669L154.044 99.6232C154.044 99.6232 166.328 121.736 172.242 144.425C178.157 167.113 159.731 159.809 159.731 159.809C159.731 159.809 160.64 138.848 149.037 100.399C143.804 98.8635 141.306 97.9036 141.306 97.9036L148.129 91.3674L156.315 95.9836V95.9669Z" fill="#F8A801"/>
<path d="M163.966 207.386C164.174 207.478 164.381 207.561 164.598 207.645C171.451 210.241 181.938 206.81 181.938 206.81C181.938 206.81 186.49 179.505 187.853 151.048C189.215 122.591 182.165 94.9109 182.165 94.9109C182.165 94.9109 168.518 93.375 164.193 90.6787C168.518 97.2149 174.878 116.247 173.515 133.936C172.152 151.624 169.002 149.796 169.002 149.796V149.88L163.966 207.386Z" fill="url(#paint1_radial_120_4099)"/>
<path opacity="0.5" d="M163.966 207.387C164.174 207.478 164.381 207.562 164.598 207.645C165.072 207.362 165.428 207.053 165.655 206.711C169.289 201.134 177.03 160.565 171.115 151.341L169.002 149.889L163.976 207.395L163.966 207.387Z" fill="#100F23"/>
<path d="M81.2739 98.2728C81.5899 98.5065 101.062 113.874 101.053 138.266C108.903 146.054 112.843 155.353 114.442 164.436C115.015 167.708 115.292 170.963 115.331 174.102C115.489 185.463 112.596 195.372 110.147 199.988C122.658 209.404 160.635 212.292 164.279 206.716C167.913 201.14 175.645 160.571 169.74 151.347L152.449 139.426L127.2 114.434C127.2 114.434 109.466 95.5932 104.913 88.2808C100.134 92.129 81.2542 98.2811 81.2542 98.2811L81.2739 98.2728Z" fill="url(#paint2_radial_120_4099)"/>
<path d="M140.164 177.676L139.482 180.564L121.284 180.948L121.748 177.484L140.164 177.676Z" fill="#F8A801"/>
<path d="M181.22 177.294L180.657 180.274L185.772 180.466L186.454 176.718L181.22 177.294Z" fill="#F8A801"/>
<path d="M148.129 91.3558L141.76 100.78C141.76 100.78 119.246 98.0922 111.969 85.0116C113.559 81.7394 115.84 80.5874 115.84 80.5874C115.84 80.5874 123.798 90.7798 148.139 91.3558H148.129Z" fill="#EDE6E6"/>
<path d="M148.123 91.3544C148.805 91.5464 157.218 98.2746 157.218 98.2746C157.218 98.2746 159.943 90.9705 159.489 87.8902C158.353 86.9302 154.937 85.3943 154.937 85.3943C154.937 85.3943 153.12 90.0105 148.114 91.3544H148.123Z" fill="#EDE6E6"/>
<path d="M159.506 87.8909C159.506 87.8909 162.685 88.0829 164.226 89.3767C165.095 90.1113 175.423 104.803 175.65 106.347C175.878 107.883 173.379 111.923 173.379 111.923C173.379 111.923 177.023 114.812 178.159 116.924C179.294 119.036 174.979 144.037 169.745 151.341C175.206 122.5 165.875 97.1233 159.515 87.8909H159.506Z" fill="#283760"/>
<path d="M170.416 149.219C170.416 149.795 169.735 151.331 169.735 151.331C169.735 151.331 132.33 132.983 124.48 121.914C122.436 119.034 124.934 113.842 124.934 113.842C124.934 113.842 118.338 114.034 115.158 111.154C111.979 108.274 104 89.8176 104.188 88.6572C104.533 86.4952 110.665 85.3433 110.665 85.3433C110.665 85.3433 111.09 94.5506 126.761 111.346C152.237 138.651 170.426 149.219 170.426 149.219H170.416Z" fill="#283760"/>
<path d="M163.711 160.753C163.711 161.713 164.63 162.481 165.755 162.481C166.881 162.481 167.799 161.704 167.799 160.753C167.799 159.801 166.881 159.025 165.755 159.025C164.63 159.025 163.711 159.801 163.711 160.753Z" fill="#F8A801"/>
<path d="M162.224 181.617C162.224 182.577 163.143 183.345 164.268 183.345C165.394 183.345 166.312 182.568 166.312 181.617C166.312 180.665 165.394 179.889 164.268 179.889C163.143 179.889 162.224 180.665 162.224 181.617Z" fill="#F8A801"/>
<path d="M119.467 72.0478C120.563 73.3584 122.123 74.4352 124.138 75.2616C124.335 75.3451 124.533 75.4202 124.73 75.4953C128.611 76.9562 132.709 78.5255 139.641 78.4003C139.927 78.4003 140.223 78.3919 140.52 78.3752C141.922 78.3335 143.393 78.2667 144.924 78.1666C148.399 77.9412 151.233 77.4821 153.524 76.9144C153.87 76.8309 154.196 76.7391 154.512 76.6557C160.703 74.911 162.55 72.34 162.708 71.6805C162.826 71.1964 163.172 63.2244 162.115 51.997C161.908 49.7515 161.631 47.3641 161.296 44.8932C160.812 41.3371 160.18 37.5807 159.36 33.7241C158.146 27.9894 156.526 22.0292 154.364 16.1859C162.717 4.21552 156.714 0.0584329 148.34 0C148.054 0 147.777 0 147.481 0.00834756C146.721 0.0250427 145.941 0.075128 145.151 0.158604C144.558 0.217037 143.956 0.300512 143.354 0.392335C140.865 0.776323 138.377 1.42743 136.155 2.26219C132.403 3.67293 129.144 5.11705 126.33 6.55283C126.034 6.70309 125.747 6.85335 125.461 7.0036C125.333 7.07038 125.204 7.13716 125.086 7.20395C124.79 7.36255 124.503 7.52115 124.217 7.67141C111.182 14.842 108.931 21.3781 108.931 21.3781C108.931 21.3781 101.91 23.2313 101.022 25.2764C100.143 27.3132 115.725 67.5902 119.467 72.0478Z" fill="#283760"/>
<g style="mix-blend-mode:screen" opacity="0.5">
<path d="M127.532 21.1302L128.055 21.5726C131.797 16.4389 131.027 11.589 129.24 8.99286C128.46 7.85759 127.453 7.03953 126.317 6.56372C126.021 6.71398 125.734 6.86423 125.448 7.01449C126.742 7.39013 127.867 8.19984 128.716 9.42693C130.365 11.8143 131.047 16.322 127.541 21.1386L127.532 21.1302Z" fill="#53638E"/>
<path d="M145.619 18.4901L146.181 18.9325C151.306 11.4114 150.901 3.99873 148.314 0.000244141C148.028 0.000244141 147.751 0.000244141 147.455 0.0085917C150.151 3.65648 150.724 10.9856 145.609 18.4817L145.619 18.4901Z" fill="#53638E"/>
</g>
<path d="M127.805 54.8254C136.099 55.535 148.433 55.9607 162.119 51.9956C161.911 49.7501 161.635 47.3627 161.299 44.8918C160.815 41.3358 160.183 37.5794 159.364 33.7228C158.149 27.988 156.53 22.0279 154.367 16.1846C154.367 16.1846 154.071 17.4784 145.362 18.6888C135.734 20.0244 120.893 21.527 118.236 23.6974C116.133 25.417 114.425 27.4454 114.405 29.9163C114.346 37.1954 117.348 44.8918 119.589 49.6165C120.962 52.5048 124.122 54.5082 127.795 54.8254H127.805Z" fill="#F0C4AB"/>
<path d="M147.237 44.483C146.743 44.483 128.465 47.2711 128.465 47.2711L125.177 34.466L126.164 30.0084L140.986 27.646C140.986 27.646 146.753 38.3643 147.247 44.4914L147.237 44.483Z" fill="#F0C4AB"/>
<path d="M145.695 38.8256L147.482 45.8042L161.297 44.8859C160.813 41.3299 160.181 37.5735 159.361 33.7169L148.549 33.3496L145.695 38.8256Z" fill="#F0C4AB"/>
<path d="M128.792 41.8652C129.237 42.7834 131.577 44.7535 132.248 44.9455C132.93 45.1291 139.378 44.5281 139.684 44.2025C139.99 43.8853 140.987 41.2809 141.056 39.8034C140.464 39.7282 139.151 39.6531 137.561 39.7115C137.215 39.7199 136.86 39.7449 136.504 39.77C134.411 39.9119 132.031 40.2875 130.145 41.1306C130.027 41.1807 129.908 41.2308 129.799 41.2892C129.434 41.4645 129.108 41.6565 128.792 41.8736V41.8652Z" fill="white"/>
<path d="M150.368 34.2563C144.66 39.6405 147.573 45.5756 151.049 48.9897C151.582 49.5156 153.024 49.3153 154.12 50.3337C156.056 52.1368 151.039 54.6577 146.112 54.1819C142.271 53.8146 141.471 52.07 142.794 50.9598C144.107 49.8495 146.853 50.7761 146.853 50.7761C146.853 50.7761 145.756 42.4035 143.94 36.9693C142.133 31.5433 138.173 26.8103 138.173 26.8103L147.228 24.7234L150.358 34.2563H150.368Z" fill="url(#paint3_linear_120_4099)"/>
<path d="M130.756 41.448C130.667 43.2427 132.317 44.7453 134.44 44.8204C136.563 44.8955 138.34 43.5015 138.429 41.7068C138.468 40.9471 138.192 40.2293 137.688 39.6616C135.417 39.8202 132.84 40.2293 130.796 41.1308C130.776 41.2393 130.766 41.3395 130.756 41.448Z" fill="#354C69"/>
<path d="M150.473 43.0074C150.503 43.0575 150.532 43.0993 150.562 43.1326C151.362 43.2328 152.26 43.2328 153.109 43.1744C154.897 43.0575 156.496 42.6819 156.595 42.4899C156.743 42.2061 157.03 39.4848 156.822 38.9756C156.161 38.625 154.936 38.5081 153.672 38.4998H153.653C151.579 38.4831 149.407 38.7585 149.407 38.7585C149.367 39.6601 150.009 42.2562 150.463 43.0074H150.473Z" fill="white"/>
<path d="M150.473 43.0074C150.503 43.0575 150.532 43.0993 150.562 43.1326C151.362 43.2328 152.26 43.2328 153.109 43.1744C154.127 42.6652 154.798 41.7303 154.798 40.6618C154.798 39.8103 154.364 39.0423 153.672 38.4998H153.653C151.579 38.4831 149.407 38.7585 149.407 38.7585C149.367 39.6601 150.009 42.2562 150.463 43.0074H150.473Z" fill="#354C69"/>
<path d="M156.843 38.9761C155.075 38.4752 149.289 39.0846 149.289 39.0846L148.953 38.1163C148.953 38.1163 154.009 37.2147 156.902 38.1163C157.484 38.6922 156.843 38.9677 156.843 38.9677V38.9761Z" fill="#283760"/>
<path d="M111.941 45.4019C111.21 44.4754 109.847 44.0663 108.574 44.3752C106.144 44.9762 102.185 46.1031 101.493 47.1633C100.486 48.7159 105.275 58.1153 106.954 59.0085C108.021 59.5761 111.565 58.8248 113.995 58.2071C115.436 57.8398 116.335 56.6378 116.108 55.3856C115.831 53.8413 115.298 51.6543 114.291 49.4004C113.461 47.5389 112.612 46.2534 111.941 45.3936V45.4019Z" fill="#F0C4AB"/>
<path d="M112.461 56.0609C112.461 56.0609 109.804 56.712 108.057 55.944C106.299 55.1677 103.899 48.3144 103.899 48.3144C103.899 48.3144 107.267 46.7116 108.461 47.3377C109.646 47.9638 111.681 53.0641 112.47 56.0609H112.461Z" fill="#C78B67"/>
<path d="M103.888 48.3137C103.888 48.3137 108.242 46.0098 108.933 46.8779C111.432 49.9832 112.409 55.7848 112.409 55.7848L112.449 56.0686C112.449 56.0686 109.2 47.8295 108.341 47.6542C107.482 47.4789 103.878 48.322 103.878 48.322L103.888 48.3137Z" fill="#73503B"/>
<path d="M150.861 59.1744C143.356 60.2846 133.294 57.7303 130.223 55.7603C134.311 63.9075 139.377 66.153 143.672 66.1112C147.967 66.0695 150.861 59.1744 150.861 59.1744Z" fill="#B27171"/>
<path d="M130.223 55.7603C133.452 61.1528 138.142 64.0577 142.171 64.5836C142.655 64.6504 143.129 64.6754 143.593 64.6754C147.888 64.6337 150.861 59.1744 150.861 59.1744C149.231 59.4165 147.474 59.4833 145.696 59.4248C139.307 59.1994 132.632 57.3046 130.223 55.7603Z" fill="#F6F8FC"/>
<path d="M130.223 55.7613C133.452 61.1538 138.142 64.0588 142.171 64.5847L145.696 59.4175C139.307 59.1921 132.632 57.2972 130.223 55.7529V55.7613Z" fill="white"/>
<path d="M147.575 29.1749L149.718 35.3021C149.718 35.3021 156.136 34.8847 160.254 36.1368C161.567 34.4673 160.748 31.8211 160.748 31.8211C160.748 31.8211 158.447 28.6741 151.278 29.1749C150.291 29.2417 150.705 32.7978 150.705 32.7978L149.056 28.7576L147.575 29.1749Z" fill="#283760"/>
<path d="M121.227 31.8198C121.227 31.8198 122.708 33.9067 125.512 35.0252C128.968 30.8515 140.284 29.6995 140.284 29.6995C140.284 29.6995 140.166 25.2836 136.71 22.5039C136.364 22.5456 136.019 22.6041 135.683 22.6625L137.539 27.237L133.224 23.2301C129.353 24.3571 126.48 26.3187 124.515 28.0801L125.196 30.0167L123.537 29.0234C121.987 30.601 121.246 31.8281 121.246 31.8281L121.227 31.8198Z" fill="#283760"/>
<path d="M141.469 38.9093L141.035 39.8025C141.035 39.8025 132.849 39.9361 128.771 41.856C128.405 41.4303 128.129 41.0129 128.129 41.0129C128.129 41.0129 132.928 38.3751 141.469 38.9093Z" fill="#283760"/>
<path d="M78.2299 213.744C76.4229 216.733 76.5907 219.571 77.1931 221.75C77.7954 223.937 79.7802 225.247 80.3825 223.494C80.9849 221.749 78.2299 213.736 78.2299 213.736V213.744Z" fill="#F0C4AB"/>
<path d="M81.0316 210.463C77.7138 212.867 76.8547 215.563 77.5459 219.203C78.2371 222.843 80.3898 225.172 81.8512 225.096C83.3126 225.021 81.9401 223.644 80.8144 221.165C79.6986 218.694 81.0316 210.463 81.0316 210.463Z" fill="#F0C4AB"/>
<path d="M81.5128 210.106C79.0145 212.435 78.4122 215.348 79.3601 219.422C80.3081 223.495 83.7345 225.883 84.5245 225.173C85.8181 224.005 83.7543 222.627 82.3719 220.148C80.9894 217.677 81.5128 210.106 81.5128 210.106Z" fill="#F0C4AB"/>
<path d="M82.0251 209.519C79.9219 210.554 80.386 216.072 81.5907 219.052C82.7953 222.032 85.2936 224.294 86.4983 223.342C87.703 222.399 84.948 220.646 83.7433 217.224C82.5386 213.801 83.2298 211.764 84.1778 211.764C85.1257 211.764 86.5872 213.726 86.4983 216.205C86.4094 218.676 89.2533 218.392 88.9077 214.97C88.5621 211.547 84.0889 208.492 82.0153 209.51L82.0251 209.519Z" fill="#F0C4AB"/>
<path d="M81.2682 98.2854C55.634 134.096 62.8621 187.045 79.7277 210.669C82.621 211.887 85.5142 209.851 85.5142 209.851C85.5142 209.851 78.0491 160.775 101.057 138.262C103.348 109.237 81.278 98.2771 81.278 98.2771L81.2682 98.2854Z" fill="url(#paint4_linear_120_4099)"/>
<path d="M173.3 32.4079C156.404 31.384 149.659 33.3713 147.276 34.4943C147.229 34.5129 147.187 34.5434 147.135 34.5699C146.411 34.7751 145.661 34.9064 144.901 34.961C144.274 35.0066 143.643 35.0005 143.017 34.9428C142.915 34.8956 142.808 34.8561 142.698 34.825C140.121 34.0592 133.076 33.0639 116.63 36.4949C116.353 36.5541 116.112 36.6985 115.954 36.9C115.796 37.1015 115.732 37.3456 115.776 37.5846L116.144 39.5319C116.183 39.7486 116.309 39.9473 116.5 40.0948C116.692 40.2423 116.938 40.3296 117.197 40.3419L117.407 40.3521C117.64 40.3562 117.865 40.4247 118.048 40.5471C118.231 40.6695 118.361 40.8391 118.419 41.03C119.119 44.103 123.612 52.8386 135.634 50.036C145.349 47.7651 144.868 39.7537 144.274 36.6143C144.543 36.4768 144.842 36.3872 145.153 36.3511C145.464 36.3151 145.781 36.3332 146.083 36.4045C146.112 39.5288 147.183 47.6212 157.294 48.4697C169.704 49.5084 172.125 40.8158 172.451 37.1272C172.476 36.9326 172.573 36.7497 172.729 36.6046C172.884 36.4595 173.09 36.3598 173.316 36.3195L173.523 36.2789C173.774 36.2275 173.997 36.1061 174.156 35.9343C174.315 35.7625 174.4 35.5504 174.399 35.3323L174.365 33.3575C174.359 33.1156 174.246 32.8844 174.049 32.7088C173.853 32.5333 173.586 32.426 173.3 32.4079ZM135.071 48.9692C127.732 50.3971 122.182 47.4136 119.809 41.7331L119.792 41.6855C119.539 41.09 119.441 40.4554 119.504 39.825C119.567 39.1945 119.79 38.583 120.157 38.032C120.525 37.481 121.028 37.0035 121.633 36.6319C122.239 36.2602 122.932 36.0032 123.665 35.8784C125.361 35.5681 127.166 35.4512 128.762 35.2643C131.169 34.974 133.598 34.8346 136.03 34.8472C137.923 34.8155 139.811 35.0448 141.618 35.5259C141.974 35.628 142.29 35.8093 142.534 36.0507C142.778 36.2921 142.941 36.5847 143.005 36.8977C143.554 39.5365 143.806 47.2706 135.071 48.9692ZM171.233 37.9742C171.231 37.9879 171.23 38.0075 171.227 38.0211C170.032 43.9647 165.154 47.6981 157.636 47.3439C148.691 46.9188 147.386 39.2573 147.395 36.5768C147.396 36.2603 147.497 35.9498 147.689 35.6779C147.88 35.406 148.155 35.1826 148.483 35.0313C150.166 34.2967 151.98 33.8005 153.853 33.5624C156.248 33.2003 158.671 32.9886 161.103 32.9291C162.711 32.8818 164.514 32.7386 166.248 32.8081C166.996 32.8264 167.73 32.9806 168.401 33.2601C169.072 33.5396 169.663 33.9379 170.136 34.428C170.609 34.918 170.952 35.4883 171.141 36.1002C171.33 36.7121 171.362 37.3512 171.233 37.9742Z" fill="white"/>
<g style="mix-blend-mode:multiply">
<path d="M143.017 36.9033C143.567 39.5421 143.818 47.2761 135.084 48.9748C127.745 50.4027 122.194 47.4192 119.821 41.7387L119.804 41.6911C119.551 41.0956 119.453 40.461 119.516 39.8306C119.579 39.2001 119.802 38.5886 120.17 38.0376C120.537 37.4866 121.041 37.0091 121.646 36.6374C122.251 36.2658 122.944 36.0088 123.678 35.884C125.374 35.5737 127.179 35.4568 128.775 35.2698C131.182 34.9796 133.611 34.8402 136.042 34.8528C137.936 34.8211 139.824 35.0503 141.631 35.5315C141.986 35.6336 142.303 35.8148 142.547 36.0563C142.791 36.2977 142.953 36.5903 143.017 36.9033Z" fill="#717171"/>
</g>
<g style="mix-blend-mode:multiply">
<path d="M171.241 37.9743C171.238 37.988 171.237 38.0076 171.235 38.0213C170.039 43.9648 165.161 47.6982 157.644 47.344C148.699 46.9189 147.393 39.2574 147.402 36.5769C147.403 36.2604 147.504 35.9499 147.696 35.678C147.887 35.4061 148.162 35.1827 148.49 35.0314C150.173 34.2968 151.987 33.8006 153.86 33.5626C156.255 33.2004 158.678 32.9887 161.11 32.9292C162.718 32.8819 164.521 32.7387 166.255 32.8082C167.003 32.8266 167.737 32.9807 168.408 33.2602C169.079 33.5397 169.671 33.938 170.143 34.4281C170.616 34.9181 170.959 35.4884 171.148 36.1003C171.338 36.7122 171.369 37.3513 171.241 37.9743Z" fill="#717171"/>
</g>
<defs>
<linearGradient id="paint0_linear_120_4099" x1="243.526" y1="83.9152" x2="154.172" y2="193.207" gradientUnits="userSpaceOnUse">
<stop offset="0.22" stop-color="#374F6D"/>
<stop offset="0.36" stop-color="#334966"/>
<stop offset="0.55" stop-color="#293853"/>
<stop offset="0.78" stop-color="#181D34"/>
<stop offset="0.88" stop-color="#100F23"/>
</linearGradient>
<radialGradient id="paint1_radial_120_4099" cx="0" cy="0" r="1" gradientUnits="userSpaceOnUse" gradientTransform="translate(142.529 151.825) scale(50.085 42.3138)">
<stop stop-color="#100F23"/>
<stop offset="0.64" stop-color="#2A3A55"/>
<stop offset="1" stop-color="#374F6D"/>
</radialGradient>
<radialGradient id="paint2_radial_120_4099" cx="0" cy="0" r="1" gradientUnits="userSpaceOnUse" gradientTransform="translate(113.142 170.181) rotate(0.988388) scale(67.8835 59.0281)">
<stop stop-color="#100F23"/>
<stop offset="0.515357" stop-color="#2A3A55"/>
<stop offset="1" stop-color="#374F6D"/>
</radialGradient>
<linearGradient id="paint3_linear_120_4099" x1="146.359" y1="24.7234" x2="146.359" y2="54.2406" gradientUnits="userSpaceOnUse">
<stop stop-color="#C78B67" stop-opacity="0"/>
<stop offset="1" stop-color="#C78B67"/>
</linearGradient>
<linearGradient id="paint4_linear_120_4099" x1="84.0725" y1="134.923" x2="62.5138" y2="272.278" gradientUnits="userSpaceOnUse">
<stop offset="0.11" stop-color="#374F6D"/>
<stop offset="1" stop-color="#100F23"/>
</linearGradient>
</defs>
</svg>
